<?xml version="1.0" encoding="utf-8"?>
<!-- Generator: Adobe Illustrator 24.3.0, SVG Export Plug-In . SVG Version: 6.00 Build 0)  -->
<svg version="1.1" id="Layer_1" xmlns="http://www.w3.org/2000/svg" xmlns:xlink="http://www.w3.org/1999/xlink" x="0px" y="0px"
	 viewBox="0 0 2394.76 1788.1" style="enable-background:new 0 0 2394.76 1788.1;" xml:space="preserve">
<style type="text/css">
	.st0{fill:#FFFFFF;}
	.st1{fill:#DBDCEE;}
	.st2{fill:#6B72B5;}
	.st3{fill:#113599;}
	.st4{fill:#9FA0CF;}
	.st5{fill:#384EA0;}
	.st6{fill:#1B184F;}
	.st7{fill:#314199;}
	.st8{fill:#1D1B53;}
	.st9{fill:#19164C;}
	.st10{fill:#9696CA;}
	.st11{fill:#9C9DCE;}
	.st12{fill:#A1A1D0;}
	.st13{fill:#999BCC;}
	.st14{fill:#1E1D56;}
	.st15{fill:#AEB0D7;}
	.st16{fill:#9691AC;}
	.st17{fill:#2A2C77;}
	.st18{fill:#1C1951;}
	.st19{fill:#384EA1;}
	.st20{fill:#A0A1D0;}
	.st21{fill:#A2A1D0;}
	.st22{fill:#7479B9;}
	.st23{fill:#A2A2D0;}
	.st24{fill:#33459B;}
	.st25{fill:#9F9FCF;}
	.st26{fill:#0E1128;}
	.st27{fill:#5960AA;}
	.st28{fill:#747AB9;}
	.st29{fill:#37489D;}
	.st30{fill:#A0A0CF;}
	.st31{fill:#324298;}
	.st32{fill:#1D1B4A;}
	.st33{fill:#121241;}
	.st34{fill:#2A2C76;}
	.st35{fill:#A1A2D0;}
	.st36{fill:#A2A3D1;}
	.st37{fill:#5760AA;}
	.st38{fill:#A3A2D0;}
	.st39{fill:#A1A0CF;}
	.st40{fill:#304199;}
	.st41{fill:#19174E;}
	.st42{fill:#222260;}
	.st43{fill:#232361;}
	.st44{fill:#3A52A3;}
	.st45{fill:#555CA8;}
	.st46{fill:#1A194F;}
	.st47{fill:#1F1B54;}
	.st48{fill:#151445;}
	.st49{fill:#111327;}
	.st50{fill:#101329;}
	.st51{fill:#11152D;}
	.st52{fill:#10132D;}
	.st53{fill:#101324;}
	.st54{fill:#10132A;}
	.st55{fill:#CED2E5;}
	.st56{fill:#B7B7D0;}
	.st57{fill:#394B9F;}
	.st58{fill:#38489B;}
	.st59{fill:#31429A;}
	.st60{fill:#7D80BD;}
	.st61{fill:#37499D;}
	.st62{fill:#1A184E;}
	.st63{fill:#19174D;}
	.st64{fill:#1D1C53;}
	.st65{fill:#0F112F;}
	.st66{fill:#38489C;}
	.st67{fill:#1C1A4D;}
	.st68{fill:#252768;}
	.st69{fill:#374699;}
	.st70{fill:#33439A;}
	.st71{fill:#35459B;}
	.st72{fill:#CCCCE6;}
	.st73{fill:#2B2F80;}
	.st74{fill:#2F3E97;}
	.st75{fill:#9FA1CF;}
	.st76{fill:#555DA9;}
	.st77{fill:#272260;}
	.st78{fill:#1A184F;}
	.st79{fill:#1D1B54;}
	.st80{fill:#333A90;}
	.st81{fill:#9E9ECE;}
	.st82{fill:#3F4A9E;}
	.st83{fill:#3A3F89;}
	.st84{fill:#8080BD;}
	.st85{fill:#7577B6;}
	.st86{fill:#797CBA;}
	.st87{fill:#7B7CB9;}
	.st88{fill:#8080BC;}
	.st89{fill:#8F90C6;}
	.st90{fill:#8D8EC5;}
	.st91{fill:#8B8BC3;}
	.st92{fill:#908FC4;}
	.st93{fill:#8D8CC4;}
	.st94{fill:#8C8DC5;}
	.st95{fill:#8586C0;}
	.st96{fill:#8182BD;}
	.st97{fill:#081461;}
	.st98{fill:#1A3297;}
	.st99{fill:#030A44;}
	.st100{fill:#182E95;}
	.st101{fill:#9AAEE7;}
	.st102{fill:#798FD4;}
	.st103{fill:#081563;}
	.st104{fill:#AFBADB;}
	.st105{fill:#6C80CB;}
	.st106{fill:#030A4A;}
	.st107{fill:#97ABE4;}
	.st108{fill:#B9CEF6;}
	.st109{fill:#9CB0ED;}
	.st110{fill:#7688CE;}
	.st111{fill:#93A7E4;}
	.st112{fill:#081561;}
	.st113{fill:#071462;}
	.st114{fill:#08145F;}
	.st115{fill:#08145E;}
	.st116{fill:#010739;}
	.st117{fill:#97AAE7;}
	.st118{fill:#BDBDE5;}
	.st119{fill:#030A4E;}
	.st120{fill:#0F1F77;}
	.st121{fill:#8DA0EB;}
	.st122{fill:#606FCC;}
	.st123{fill:#07135F;}
	.st124{fill:#99ACEA;}
	.st125{fill:#A3C2F1;}
	.st126{fill:#030B47;}
	.st127{fill:#E0EBFA;}
	.st128{fill:#071052;}
	.st129{fill:#394B94;}
	.st130{fill:#243DAA;}
	.st131{fill:#8FA1EB;}
	.st132{fill:#A1B4EF;}
	.st133{fill:#A1B3EE;}
	.st134{fill:#ABB9DD;}
	.st135{fill:#ACB9DE;}
	.st136{fill:#ABB8DC;}
	.st137{fill:#97ABE7;}
	.st138{fill:#ACB8DA;}
	.st139{fill:#9AAEE6;}
	.st140{fill:#99ADE5;}
	.st141{fill:#7487D3;}
	.st142{fill:#5666C6;}
	.st143{fill:#7185D4;}
	.st144{fill:#030A43;}
	.st145{fill:#4359BC;}
	.st146{fill:#9DB0ED;}
	.st147{fill:#98ACEC;}
	.st148{fill:#4766B8;}
	.st149{fill:#122DA2;}
	.st150{fill:#7A8AD1;}
	.st151{fill:#ADB8D8;}
	.st152{fill:none;stroke:#ADB8D8;stroke-width:4;stroke-linecap:round;stroke-miterlimit:10;}
	.st153{fill:#DBDEEF;}
	.st154{fill:#ECECF6;}
	.st155{fill:#374DA0;}
	.st156{fill:#A3A7D3;}
	.st157{fill:#0E1233;}
	.st158{fill:#A1A5D2;}
	.st159{fill:#3D3B7D;}
	.st160{fill:#A7A5C7;}
	.st161{fill:#38336E;}
	.st162{fill:#0F1236;}
	.st163{fill:#EBEDF7;}
	.st164{fill:#0E1134;}
	.st165{fill:#0E1237;}
	.st166{fill:#AAADD6;}
	.st167{fill:#0E1133;}
	.st168{fill:#0F1133;}
	.st169{fill:#38499D;}
	.st170{fill:#0E1132;}
	.st171{fill:#F9F9F9;}
	.st172{fill:#151345;}
	.st173{fill:#0E1131;}
	.st174{fill:#0F1231;}
	.st175{fill:#9195C9;}
	.st176{fill:#9EA2D1;}
	.st177{fill:#354499;}
	.st178{fill:#A2A6D3;}
	.st179{fill:#A6A6D2;}
	.st180{fill:#A9ABD5;}
	.st181{fill:#38489D;}
	.st182{fill:#3C4DA5;}
	.st183{fill:#AAACD5;}
	.st184{fill:#A4A6D3;}
	.st185{fill:#A8ACD6;}
	.st186{fill:#9FA3D1;}
	.st187{fill:#A0A4D1;}
	.st188{fill:#8C94C9;}
	.st189{fill:#19194D;}
	.st190{fill:#7D83BE;}
	.st191{fill:#8B90C7;}
	.st192{fill:#232B59;}
	.st193{fill:#999CC9;}
	.st194{fill:#3A4B9E;}
	.st195{fill:#A5AAD5;}
	.st196{fill:#383E88;}
	.st197{fill:#393471;}
	.st198{fill:#9B9ECE;}
	.st199{fill:#7D83BF;}
	.st200{fill:#6E75B7;}
	.st201{fill:#868AC3;}
	.st202{fill:#A1A3C9;}
	.st203{fill:#3B386A;}
	.st204{fill:#43406B;}
	.st205{fill:#999DCE;}
	.st206{fill:#7E82BF;}
	.st207{fill:#9298CB;}
	.st208{fill:#0F102D;}
	.st209{fill:#38469C;}
	.st210{fill:#5560AA;}
	.st211{fill:#394A9E;}
	.st212{fill:#39499E;}
	.st213{fill:#111132;}
	.st214{fill:#231C51;}
	.st215{fill:#18184A;}
	.st216{fill:#3A4A9E;}
	.st217{fill:#39489D;}
	.st218{fill:#3B4A9E;}
	.st219{fill:#3A499E;}
	.st220{fill:#3A499D;}
	.st221{fill:#37479C;}
	.st222{fill:#21205B;}
	.st223{fill:#1C1B50;}
	.st224{fill:#1D1D56;}
	.st225{fill:#171848;}
	.st226{fill:#1E1E56;}
	.st227{fill:#20205B;}
	.st228{fill:#1D1E53;}
	.st229{fill:#191A4C;}
	.st230{fill:#39479B;}
	.st231{fill:#364399;}
	.st232{fill:#3D4B9D;}
	.st233{fill:#1C1C52;}
	.st234{fill:#3B489C;}
	.st235{fill:#38459A;}
	.st236{fill:#38469B;}
	.st237{fill:#39489C;}
	.st238{fill:#1B1D4F;}
	.st239{fill:#191A4B;}
	.st240{fill:#20205A;}
	.st241{fill:#242462;}
	.st242{fill:#21225E;}
	.st243{fill:#1A1A4C;}
	.st244{fill:#191B4B;}
	.st245{fill:#1F1F58;}
	.st246{fill:#21215D;}
	.st247{fill:#1D1D55;}
	.st248{fill:#22225F;}
	.st249{fill:#1C1C51;}
	.st250{fill:#1C1B51;}
	.st251{fill:#22225E;}
	.st252{fill:#242460;}
	.st253{fill:#202158;}
	.st254{fill:#22235D;}
	.st255{fill:#1E1F57;}
	.st256{fill:#22245F;}
	.st257{fill:#232563;}
	.st258{fill:#21225C;}
	.st259{fill:#22235E;}
	.st260{fill:#1E1F53;}
	.st261{fill:#252664;}
	.st262{fill:#20215B;}
	.st263{fill:#5962AB;}
	.st264{fill:#A1A4D1;}
	.st265{fill:#6168AE;}
	.st266{fill:#666DB2;}
	.st267{fill:#191745;}
	.st268{fill:#2D2C72;}
	.st269{fill:#B1B5DB;}
	.st270{fill:#2B348C;}
	.st271{fill:#64607F;}
	.st272{fill:#13153F;}
	.st273{fill:#605A6E;}
	.st274{fill:#3E366A;}
	.st275{fill:#595467;}
	.st276{fill:#736F87;}
	.st277{fill:#5F576A;}
	.st278{fill:#625A70;}
	.st279{fill:#655A72;}
	.st280{fill:#18154A;}
	.st281{fill:#8A8FC6;}
	.st282{fill:#8B8EC5;}
	.st283{fill:#8A8EC5;}
	.st284{fill:#8C90C6;}
	.st285{fill:#E8E9F5;}
	.st286{fill:#141740;}
	.st287{fill:#323C8E;}
	.st288{fill:#343D92;}
	.st289{fill:#343F93;}
	.st290{fill:#333D8F;}
	.st291{fill:#323D92;}
	.st292{fill:#363E90;}
	.st293{fill:#363E8F;}
	.st294{fill:#313B8E;}
	.st295{fill:#343D8F;}
	.st296{fill:#343C8E;}
	.st297{fill:#333A8C;}
	.st298{fill:#373E90;}
	.st299{fill:#383F91;}
	.st300{fill:#2A2E7B;}
	.st301{fill:#151545;}
	.st302{fill:#131540;}
	.st303{fill:#2C3D97;}
	.st304{fill:#2B3A95;}
	.st305{fill:#9DA3D1;}
	.st306{fill:#28296E;}
	.st307{fill:#191543;}
	.st308{fill:#707BB8;}
	.st309{fill:#737CBB;}
	.st310{fill:#4553A3;}
	.st311{fill:#BDC2D8;}
	.st312{fill:#A4A9D4;}
	.st313{fill:#A3A8D4;}
	.st314{fill:#1D1F52;}
	.st315{fill:#5B66AE;}
	.st316{fill:#A1A6D3;}
	.st317{fill:#1B1B50;}
	.st318{fill:#1F1F57;}
	.st319{fill:#999FCA;}
	.st320{fill:#8B90BE;}
	.st321{fill:#969CC7;}
	.st322{fill:#8F97C3;}
	.st323{fill:#8B94C0;}
	.st324{fill:#8791BE;}
	.st325{fill:#8F95C2;}
	.st326{fill:#181949;}
	.st327{fill:#1C1B4F;}
	.st328{fill:#9EA3CC;}
	.st329{fill:#9BA0CB;}
	.st330{fill:#9699C6;}
	.st331{fill:#8489B5;}
	.st332{fill:#969AC7;}
	.st333{fill:#9799C6;}
	.st334{fill:#878CB9;}
	.st335{fill:#9397C0;}
	.st336{fill:#8B91BC;}
	.st337{fill:#A0A5CD;}
	.st338{fill:#8F93C0;}
	.st339{fill:#969DCA;}
	.st340{fill:#9B9FCA;}
	.st341{fill:#9199C3;}
	.st342{fill:#1E1D53;}
	.st343{fill:#9A9ECA;}
	.st344{fill:#959BC7;}
	.st345{fill:#8689B9;}
	.st346{fill:#8283B2;}
	.st347{fill:#8D92BB;}
	.st348{fill:#1D1E54;}
	.st349{fill:#1C1D53;}
	.st350{fill:#9599C6;}
	.st351{fill:#9EA3CE;}
	.st352{fill:#999CC7;}
	.st353{fill:#97A2CC;}
	.st354{fill:#1F1E58;}
	.st355{fill:#9FA3CE;}
	.st356{fill:#989BC6;}
	.st357{fill:#9D9FC9;}
	.st358{fill:#1C1C54;}
	.st359{fill:#969CC8;}
	.st360{fill:#9398C3;}
	.st361{fill:#9AA1CB;}
	.st362{fill:#9DA3CC;}
	.st363{fill:#9196C2;}
	.st364{fill:#21225D;}
	.st365{fill:#9DA2CD;}
	.st366{fill:#979CCA;}
	.st367{fill:#9FA5CE;}
	.st368{fill:#838AB8;}
	.st369{fill:#101238;}
	.st370{fill:#101234;}
	.st371{fill:#3F4FA1;}
	.st372{fill:#AAAFD4;}
	.st373{fill:#4F4986;}
	.st374{fill:#9499C7;}
	.st375{fill:#969BC6;}
	.st376{fill:#1D1D53;}
	.st377{fill:#1F1E56;}
	.st378{fill:#1D1D54;}
	.st379{fill:#9CA2CC;}
	.st380{fill:#9297C3;}
	.st381{fill:#9598C4;}
	.st382{fill:#9BA2C9;}
	.st383{fill:#1E1F56;}
	.st384{fill:#9FA2CD;}
	.st385{fill:#9EA3CD;}
	.st386{fill:#979BC7;}
	.st387{fill:#21215C;}
	.st388{fill:#9FA4CE;}
	.st389{fill:#232360;}
	.st390{fill:#202059;}
	.st391{fill:#1B1C4F;}
	.st392{fill:#1E1D54;}
	.st393{fill:#989DC9;}
	.st394{fill:#38479C;}
	.st395{fill:#1F2059;}
	.st396{fill:#868CBC;}
	.st397{fill:#1B1A4F;}
	.st398{fill:#1D1D52;}
	.st399{fill:#A6A6D0;}
	.st400{fill:#999EC9;}
	.st401{fill:#8085B5;}
	.st402{fill:none;stroke:#554F66;stroke-width:5;stroke-linecap:round;stroke-miterlimit:10;}
</style>
<g>
	<path class="st3" d="M2394.19,510.19c-58.22-34.02-116.84-67.35-175.26-101.05c-60.46-34.88-121.25-69.22-181.83-103.92
		c-56.45-32.32-112.88-64.68-169.03-97.52c-3.15-1.85-8.18-2.95-8.43-6.7c-0.33-4.79,5.3-5.47,8.64-7.43
		c7.95-4.64,15.73-9.55,23.74-14.07c2.32-1.32,4.71-2.68,5.46-5.56c0.02-0.04,0.03-0.09,0.04-0.13c-0.21-0.23-0.42-0.45-0.59-0.68
		c-3.89-4.76-0.35-8.82,1.4-13.04c0.05-0.12,0.1-0.25,0.14-0.37c0.2-0.52,0.38-1.05,0.5-1.59c-5.47-4.61-5.28-7.54,1.52-11.44
		c48.62-27.89,96.95-56.31,145.26-84.75C2080.9,41.27,2116,20.48,2151.29,0H1775.2c-0.74,5.59-4.06,10.66-8.23,15.57
		c0.01,0.04,0.01,0.07,0.02,0.1v0.01c0.03,0.16,0.06,0.32,0.1,0.46c1.88,8.45,10.03,10.06,16.07,13.4
		c28.29,15.7,55.99,32.46,84.59,47.6c6.7,3.55,5.98,5.98-0.09,9.4c-9.77,5.54-19.42,11.33-29.13,16.99
		c-89.75,52.35-179.24,105.15-268.94,157.59c-88.53,51.75-176.99,103.6-265.4,155.54c-107.5,63.15-215.37,125.66-322.71,189.1
		c-8.1,4.78-15.03,5.66-23.7,0.73c-49.73-28.3-99.7-56.18-149.54-84.33c-96.39-54.44-192.81-108.84-289.3-163.12
		c-91.15-51.25-182.41-102.32-273.37-153.94C163.86,158.76,81.83,112.97,0,66.82v178.19c55.77,32.84,111.56,65.64,167.41,98.32
		c22.35,13.08,44.78,26.01,66.84,39.56c7.43,4.56,7.3,5.38-0.11,10.01c-6.95,4.33-14.3,7.9-21.42,11.94
		C142.07,445.08,71.03,484.63,0,524.21V903.1c50.11-28.81,101.39-55.14,156.24-74.11c0.56-0.32,1.09-0.64,1.62-1
		c0.68-0.45,1.32-0.94,1.93-1.45c2.04-1.66,3.84-3.59,5.63-5.53c30.39-32.81,65.75-59.52,102.93-84.01
		c55.5-38.26,114.11-71.36,172.86-104.26c18.08-10.13,36.91-18.91,54.24-30.34c3.05-2.98,6.43-5.45,9.98-7.66
		c5.06-3.14,10.49-5.73,15.77-8.38c1.17-0.59,3.42-1.71,6.45-3.21c0.2-0.1,0.42-0.2,0.62-0.32c20.24-10.04,72.1-35.58,74.42-35.6
		c2.72-0.4,5.56-0.94,7.75-2.44c9.63-6.59,17.79-3.92,26.99,1.94c47.63,30.34,96.33,58.97,144.53,88.4
		c82.45,50.35,164.57,101.26,247.16,151.38c22.08,13.39,43.59,27.8,66.83,39.23c2.33,0.61,20.51,11.16,42.07,24.08l1.32,0.8
		c23.74,14.22,51.22,31.1,66.18,40.68c0.11,0.06,0.23,0.13,0.34,0.21c6.62,4.25,10.7,7.02,10.79,7.43c1.74,4.02,5.49,5.77,8.88,7.96
		c11.9,7.73,24.41,14.47,36.24,22.26c10.38,6.84,22.14,11.73,30.89,20.96c0.24,0.25,0.46,0.49,0.69,0.74
		c0.27,0.37,0.52,0.75,0.77,1.13c3.38,5.25,5.1,11.53,9.91,15.89c0.05,0.05,0.1,0.09,0.15,0.14c0.47,0.29,0.95,0.55,1.43,0.82
		c9.88,5.47,21.35,7.54,30.8,13.72c11.24,7.36,16.03,15.43,7.2,23.33c-0.38,0.34-0.79,0.69-1.22,1.02
		c-0.16,0.11-0.33,0.23-0.49,0.33c-2.09,1.41-4.22,2.77-6.4,4.06c-58.06,34.27-115.82,69.03-173.5,103.92
		c-62.35,37.71-124.72,75.37-187.21,112.83c-73.6,44.12-147.1,88.41-220.56,132.76c-45.46,27.44-90.83,55.07-136.29,82.52
		c-82.49,49.81-164.83,99.88-247.7,149.07c-6.49,3.85-12.63,6.17-19.99,4.49c-0.05-0.01-0.11-0.02-0.16-0.03
		c-1.1-0.08-2.21-0.14-3.32-0.2c-17.93-1-35.88,0.25-53.8,0.26c-9.92,0-18.54-2.49-27.08-7.42c-48.89-28.25-97.2-57.51-146.13-85.7
		C79.72,1480.72,39.9,1457.28,0,1433.95v354.15h622.13c35.75-29.29,71.79-58.21,107.75-87.23
		c64.6-52.14,128.81-104.77,193.72-156.52c26.54-21.15,20.76-18.86,44.18-8.22c0,0,0,0,0.01,0c0.45,0.2,0.92,0.42,1.4,0.62
		c0.38,0.17,0.77,0.35,1.17,0.52c10.13-2.38,16.23-10.77,24.2-16.33c11.45-7.98,11.2-8.04,23.49-1.17
		c13.83,7.74,27.07,16.57,41.78,22.71c0.01,0,0.01,0,0.02,0c0.45,0.18,0.91,0.38,1.37,0.54c0.53,0.24,1.07,0.45,1.62,0.65
		c4.34-0.11,7.6-2.69,11.06-4.83c10.42-6.45,20.81-12.92,31.19-19.42c5.89-3.69,11.13-3.7,17.08-0.09
		c11.92,7.23,23.88,14.42,35.77,21.68c135.24,82.65,270.75,164.85,406.24,247.07h830.58v-45.76
		c-37.07-22.43-74.3-44.59-111.66-66.53c-83.13-48.81-165.64-98.64-248.58-147.77c-105.22-62.31-210.22-125.01-315.22-187.67
		c-78.4-46.79-157.07-93.13-235.58-139.7c-10.02-5.95-9.98-6.2-0.11-11.92c49.2-28.58,98.17-57.54,147.2-86.37
		c69.6-40.92,138.81-82.5,208.34-123.54c38.43-22.69,76.82-45.43,115.23-68.13c22.24-13.16,44.49-26.3,66.76-39.39
		c52.49-30.88,105-61.74,157.47-92.64c7.9-4.65,15.45-10.19,23.89-14h0.01c3.02-1.36,6.13-2.5,9.42-3.29
		c4.51-0.74,8.12-3.37,11.91-5.63c33.27-19.87,66.39-39.97,99.41-60.25c7.57-4.65,14.22-7.23,21.43-3.64
		c1.42,0.72,2.87,1.67,4.34,2.89c0.56,0.46,1.16,0.89,1.79,1.26c1.98,1.15,4.28,1.77,6.75,1.34c0.06-0.02,0.12-0.04,0.18-0.06
		c0.38-0.13,0.75-0.27,1.11-0.42c0.07-0.02,0.14-0.06,0.22-0.08l0.01-0.01l0.14-0.06c6.33-2.67,11.08-7.98,17.44-10.69
		c6.91-2.96,13.01-3.82,18.08-2.67V510.52C2394.57,510.42,2394.38,510.3,2394.19,510.19z"/>
	<path class="st0" d="M2377.76,705.03c5.7,3.2,11.42,6.4,17.01,9.79v33.59c-1.03,1.3-1.43,2.66,0,4.17v896.09
		c-7.1-4.48-14.12-9.11-21.31-13.4c-103.15-61.61-206.47-122.96-309.85-184.18c-72.63-43.01-144.93-86.57-217.67-129.4
		c-78.61-46.28-157.1-92.76-235.22-139.87c-13.11-7.91-26.46-15.44-39.52-23.43c-2.58-1.58-5.35-2.98-7.19-5.36c0,0,0,0-0.01-0.01
		c-0.37-0.47-0.7-0.96-0.97-1.52c-0.21-0.4-0.4-0.83-0.55-1.29c0.37-6.37,5.99-7.85,10.14-10.39
		c83.44-50.92,167.8-100.28,251.46-150.84c43.38-26.21,86.83-52.27,130.33-78.27c32.38-19.36,64.77-38.69,97.16-58.03
		c51.33-30.64,102.93-60.85,154.22-91.56c1.67-1,3.46-2.26,5.69-1.84c22.71-12.15,44.29-26.2,66.37-39.42
		c17.44-10.44,34.9-20.83,52.15-31.58c4.45-2.76,8.1-3.41,12.37-0.84l0.09,0.05c0.38,0.23,0.76,0.48,1.15,0.76
		c3.14,2.28,6.65,4.04,10.12,5.87c1.03,0.53,2.06,1.08,3.07,1.65c0.99,0.27,1.66,0.63,2.09,1.08c0.01,0,0.01,0.01,0.01,0.01
		l0.09,0.09c1.24,1.45,0.18,3.59-0.44,5.17c-2.19,5.54-3.13,11.55-6.45,16.63c-0.12,0.72-0.85,1.32-1.72,1.9
		c-0.6,0.39-1.29,0.78-1.88,1.19c-1.57,1.06-2.55,2.23-0.09,4.04c0.49,0.36,1.11,0.74,1.89,1.15c0.08,0.05,0.17,0.09,0.27,0.14
		c2.32,1.24,4.53,2.69,7.11,3.38c0.06,0,0.12,0,0.17-0.01c0.88,0,1.71-0.11,2.49-0.31c3.42-0.81,6.02-3.09,8.86-5.18
		c-2.1-3.6-5.69-4.99-8.49-7.1c-0.71-0.53-1.36-1.11-1.92-1.77c-0.46-0.54-0.86-1.15-1.19-1.83c-0.72-5.89,2.6-9.62,6.9-12.82
		c0.74-0.24,1.45-0.38,2.14-0.44c0.85-0.09,1.68-0.06,2.48,0.07C2372.22,701.64,2375,703.47,2377.76,705.03z"/>
	<path class="st97" d="M1879.09,83.07c-9.45,5.61-19.01,11.34-28.62,16.98c-35.19,20.65-70.39,41.28-105.61,61.9
		c-41.06,24.04-82.18,48-123.22,72.07c-33.14,19.44-66.18,39.05-99.34,58.45c-30.81,18.04-61.75,35.84-92.56,53.87
		c-31.38,18.38-62.67,36.94-94.03,55.36c-26.39,15.5-52.85,30.89-79.23,46.39c-33.71,19.81-67.3,39.8-101.08,59.48
		c-40.25,23.45-80.67,46.62-120.96,70c-18.83,10.92-37.61,21.91-56.22,33.18c-6.51,3.94-11.63,4.01-18.65-0.01
		c-46.91-26.88-94.32-52.86-141.18-79.86c-40.95-23.61-82.51-46.15-123.68-69.4c-42.94-24.23-85.67-48.85-128.6-73.09
		c-21.61-12.21-43.58-23.8-65.22-35.97c-27.85-15.67-55.51-31.71-83.32-47.45c-18.95-10.71-38.09-21.1-57.05-31.79
		c-29.34-16.53-58.56-33.23-87.88-49.78c-23.39-13.21-46.88-26.25-70.29-39.44c-29.63-16.7-59.18-33.51-88.81-50.22
		c-23.71-13.36-47.46-26.62-71.18-39.96C28.24,85.84,14.12,77.89,0,69.92V0h66.49c14.72,8.62,29.29,17.53,44.23,25.76
		c15.5,8.54,30.52,17.97,46.31,25.99c11.18,5.68,20.18,13.52,27.27,23.97c9.01,13.27,18.79,25.99,34.33,32.56
		c8.36,3.54,16.82,5.56,25.83,2.85c7.71-2.3,14.62-0.59,21.51,3.27c48.66,27.39,96.79,55.68,145.34,83.26
		C472,232.15,532.43,267.1,593.13,301.55c46.19,26.22,92.22,52.73,138.42,78.92c29.92,16.96,59.66,34.2,89.53,51.22
		c32.83,18.73,65.54,37.65,98.5,56.14c9.8,5.49,17.81,5.6,27.52-0.06c132.06-77.03,264.68-153.1,396.74-230.12
		c68.23-39.79,136.57-79.41,204.94-118.99c8.44-4.89,17.53-8.63,25.59-14.17c0.09-0.06,0.18-0.12,0.28-0.18
		c0.3-0.17,0.6-0.35,0.9-0.52c0.02-0.01,0.03-0.02,0.05-0.03c0.28-0.15,0.56-0.32,0.84-0.48c58.03-33.49,115.87-67.28,173.68-101.16
		c5.2-3.05,9.99-7.84,16.87-6.44v0.01c0.24,0.04,0.47,0.09,0.71,0.15c3.17,5.37,9.19,6.95,14.03,9.73
		c29.79,17.11,59.88,33.68,89.86,50.43C1874.48,77.61,1877.98,78.58,1879.09,83.07z"/>
	<path class="st0" d="M1580.28,0c-101.49,58.37-202.39,117.73-303.8,176.22c-111.23,64.15-222.3,128.54-333.23,193.18
		c-14.69,8.56-24.42,7.74-38.45-0.37c-93.45-54.03-187.57-106.91-281.43-160.22C514.99,147.27,406.59,85.76,297.73,25.07
		c-12.2-6.8-24.17-14-36.2-21.08c-1.94-1.15-4.06-2.22-5.23-3.99h503.49C695.7,36.35,631.5,72.47,567.48,108.92
		c-3.38,1.92-9.03,2.97-8.87,7.36c0.14,4.35,5.83,5.01,9.27,6.97C617.89,151.75,668,180.08,717.76,209
		c7.83,4.55,13.77,4.49,21.57,0.1c67.98-38.23,135.61-77.1,203.39-115.69c54.62-31.1,109.26-62.16,163.8-93.41H1580.28z"/>
	<path class="st0" d="M2394.76,0v451.88c-105.85-62.36-212.19-123.91-318.35-185.76c-57.05-33.23-114.07-66.52-171.11-99.78
		c-2.8-1.63-5.28-3.5-6.98-6.23c-0.12-0.2-0.25-0.41-0.37-0.62c-3.24-2.94-7.87-4.01-10.88-7.94c22.53-13.11,44.88-26,67.15-39.05
		c63.92-37.46,127.83-74.95,191.71-112.5H2394.76z"/>
	<path class="st0" d="M1569.24,1788.1H658.22c73.16-44.36,146.01-89.22,218.99-133.85c58.12-35.56,115.75-71.91,173.75-107.67
		c2.82-1.75,5.66-3.41,8.87-4.09c0.01,0,0.01,0,0.02,0c0.77-0.17,1.57-0.28,2.38-0.32c14.85-8.91,29.87-17.57,44.45-26.9
		c5.34-3.41,9.02-3.31,14.5,0.03c131.51,80.19,263.18,160.14,394.78,240.19C1533.76,1766.3,1551.51,1777.19,1569.24,1788.1z"/>
	<path class="st0" d="M542.69,1112.32c-0.98,1.71-3.32,3.51-7.03,5.71c-31.05,18.37-62.4,36.23-93.46,54.57
		c-54.8,32.35-109.51,64.84-163.94,97.8c-33.77,20.44-67.58,40.85-101.18,61.57c-6.31,3.89-11.45,3.78-17.85-0.12
		c-52.86-32.22-106.19-63.66-159.23-95.59v-113.05c9.51-5.85,19.1-11.55,28.53-17.53c9.41-5.98,19.16-11.43,28.78-18.39
		c-13.85-9.5-28.26-16.99-42.19-25.27c-4.08-2.44-7.72-1.31-11.39,1.07c-1.24,0.81-2.49,1.61-3.74,2.38v-36.47
		c1.13-0.74,2.24-1.49,3.34-2.27c2-1.42,3.85-1.92,5.62-1.85c2.88,0.1,5.57,1.72,8.38,3.4c41.72,24.92,83.69,49.39,125.36,74.38
		c54.81,32.86,109.79,65.43,164.8,97.96c-68.95-40.89-137.78-81.95-206.61-123.03c-26.53-15.84-53.22-31.44-79.82-47.18
		c-6.38-3.78-9.05-5.74-7.99-8.01c0.72-1.56,3.17-3.24,7.37-5.75c49.04-29.4,98.17-58.63,148.65-85.55
		c9.92-5.28,20.21-10.04,29.55-16.15c9.6-6.27,17.47-4.73,26.32,0.84c22.17,13.94,44.7,27.33,67.17,40.81
		c80.26,48.13,160.52,96.29,240.76,144.45c0.88,0.53,1.78,1.01,2.64,1.56c3.95,2.45,6.39,4.41,7.3,6.25
		C543.4,1110.02,543.36,1111.14,542.69,1112.32z"/>
	<path class="st0" d="M840.28,1238.61c-0.02,0.48-0.1,0.93-0.26,1.36c-0.02,0.05-0.04,0.09-0.06,0.14c-0.18,0.46-0.45,0.88-0.8,1.28
		c-0.01,0.01-0.01,0.01-0.02,0.01c-0.57,0.48-1.16,0.93-1.75,1.33c-5.84,4.14-12.85,5.96-19.26,8.89
		c-49.3,22.62-95.93,50.1-142.44,77.81c-96.52,57.52-192.33,116.22-288.52,174.27c-4.03,2.44-7.86,5.55-12.81,5.93
		c-0.35,0.03-0.71,0.04-1.06,0.04c-0.08-0.01-0.15-0.02-0.24-0.03c-4.1-0.46-7.56-2.53-10.99-4.59
		c-113.64-68.56-227.92-136.06-341.68-204.41c-6.77-4.07-13.6-8.04-20.39-12.07v-53.24c53.14,31.09,105.85,62.87,158.43,94.88
		c7.43,4.52,12.47,4.38,19.99-0.28c59.76-37.02,120.03-73.2,180.38-109.25c58.94-35.19,117.92-70.32,177.6-104.26
		c3.07-1.74,5.16-3.01,6.28-4.09c1.25-1.23,1.29-2.24,0.12-3.48c-1.09-1.17-3.26-2.54-6.5-4.47
		c-81.83-49.06-163.47-98.45-245.49-147.2c-24.52-14.58-48.62-29.86-73.41-44.03c-4.84-2.77-8.41-2.53-13.12-0.02
		c-64.77,34.65-128.48,71.15-191.23,109.27c-1.37,0.83-2.74,1.67-4.11,2.5c-2.99,1.82-5.98,3.64-8.95,5.47v-54.92
		c6.33-3.73,12.77-7.34,19.1-11.07c44.82-26.46,90-52.28,136.56-75.62c2.32-1.17,5.19-1.89,6.32-5.69
		c-5.17-1.88-9.14,1.12-13.01,3.15C98.58,912.78,48.51,939.93,0,969.84v-69.99c29.63-16.94,59.59-33.28,90.63-47.55
		c18.5-8.5,37.29-16.42,56.56-23.08c2.89-0.99,5.68-2.32,8.83-2.29c1.34-0.41,2.59-0.51,3.77-0.4c3.87,0.36,6.99,3.02,10.25,4.98
		c59.22,35.67,118.38,71.41,177.77,106.79c128.71,76.67,256.8,154.39,385.35,231.34c32.14,19.23,64.39,38.26,96.03,58.3
		c4,2.54,8.36,4.71,10.74,9.18c0.02,0.11,0.05,0.23,0.07,0.34c0.06,0.24,0.11,0.47,0.16,0.72
		C840.22,1238.31,840.25,1238.46,840.28,1238.61z"/>
	<path class="st4" d="M1112.66,0c-16.62,9.64-33.34,19.08-50.03,28.58c-22.44,12.77-44.96,25.42-67.41,38.17
		c-19.8,11.25-39.56,22.54-59.33,33.84c-18.29,10.45-36.56,20.92-54.85,31.38c-22.1,12.67-44.18,25.39-66.33,37.99
		c-17.43,9.92-34.94,19.68-52.4,29.52c-9.18,5.17-18.47,10.15-27.42,15.67c-4.39,2.7-7.97,2.47-12.23-0.02
		c-19.07-11.13-38.25-22.12-57.4-33.1c-17.99-10.31-35.98-20.61-54.03-30.81c-17.47-9.86-35.03-19.54-52.48-29.42
		c-2.56-1.45-4.74-3.55-8-6.04c8.6-5.25,16.15-10.26,24.07-14.62c36.03-19.81,71.64-40.36,107.33-60.76
		c23.88-13.64,47.9-27.01,71.93-40.38H1112.66z"/>
	<path class="st4" d="M246.11,387.48c-0.88,3.54-3.83,4.15-6.05,5.4c-58.11,32.75-116.22,65.5-174.39,98.14
		C43.83,503.28,21.91,515.43,0,527.56V241.64c78.49,46.13,156.98,92.27,235.44,138.43C239.19,382.27,243.11,384.31,246.11,387.48z"
		/>
	<path class="st98" d="M1757.03,0c-28.65,16.57-57.14,33.42-85.82,49.93c0,0-0.01,0.01-0.01,0c-0.2,0.12-0.4,0.24-0.6,0.36
		c-0.34,0.19-0.68,0.38-1.01,0.57c-9.3,5.23-18.64,10.38-27.66,16.1c-0.04,0.02-0.09,0.05-0.13,0.07c-0.51,0.3-1.02,0.59-1.53,0.89
		c-19.57,11.24-38.87,22.96-58.7,33.75c-0.01,0-0.01,0-0.01,0c-0.54,0.31-1.07,0.6-1.62,0.89c-0.3,0.16-0.6,0.33-0.9,0.49
		c-0.01,0.01-0.03,0.01-0.04,0.02c-0.42,0.21-0.83,0.44-1.25,0.66c0,0,0,0-0.01,0c-1.23,0.67-2.44,1.36-3.61,2.12
		c-5.73,3.28-11.27,6.87-16.98,10.2c-0.01,0-0.03,0.01-0.04,0.02c-0.8,0.46-1.6,0.91-2.39,1.37
		c-56.48,32.34-112.88,64.79-169.1,97.59c-76.98,44.91-154.33,89.21-231.43,133.9c-0.12,0.07-0.25,0.15-0.37,0.23
		c-1.17,0.71-2.35,1.37-3.56,2c-0.17,0.1-0.35,0.2-0.52,0.31c-39.54,23.72-79.66,46.46-119.62,69.47
		c-29.21,16.81-58.57,33.39-87.27,51.06c-9.29,5.72-17.31,3.51-25.8-1.37c-24.81-14.24-49.64-28.46-74.51-42.61
		c-61.25-34.84-122.54-69.62-183.77-104.51c-68.94-39.27-137.76-78.75-206.5-118.36c-66.38-38.25-133.41-75.35-199.97-113.27
		c-1.14-0.27-2.27-0.43-3.41-0.51c-0.01,0-0.01,0-0.02,0c-3.62-0.28-7.24,0.23-10.86,0.68h-0.01c-3.72,0.46-7.44,0.86-11.18,0.28
		c-16.58-1.96-28.39-11.71-36.26-25.26c-6.3-10.84-14.74-17.55-25.43-23.62C139.5,28.85,113.73,14.57,88.13,0h48.5
		c1.66,0.94,3.33,1.86,5,2.74c20.5,10.72,40.33,22.69,60.41,34.16c5.74,3.27,10.53,3.46,16.14,0.16c8.51-4.98,17-10.06,25.77-14.58
		c7.88-4.07,10.53-2.91,13.19,5.61v0.01c0.09,0.3,0.18,0.59,0.28,0.91c0.06,0.56,0.12,1.14,0.16,1.71c0.23,2.66,0.26,5.32,0.06,7.98
		c-0.04,0.51-0.06,1.01-0.07,1.52c-0.02,0.88,0,1.75,0.03,2.64v0.01c0.1,2.74,0.36,5.48,0.07,8.23c-0.03,0.29-0.06,0.56-0.1,0.85
		c0,0.27,0.01,0.52,0.02,0.79c0.06,2.93,0.25,5.86,0.12,8.79c-0.26,1-0.37,1.92-0.37,2.76c0,1.35,0.28,2.5,0.77,3.51v0.01
		c1.52,3.14,5.06,4.93,8.34,6.75c21.42,11.91,42.59,24.25,64,36.15c60.39,33.54,120.36,67.83,180.46,101.92
		c83.18,47.17,166.76,93.65,249.85,140.99c52.92,30.16,105.99,60.07,158.75,90.54c2.2,1.27,4.29,2.9,6.7,3.64
		c1,0.32,2.07,0.48,3.21,0.4c0.1,0,0.21-0.01,0.33-0.02c25.72-13.28,50.36-28.47,75.43-42.87c54.59-31.39,108.66-63.69,164.08-93.64
		c0.39-0.21,0.77-0.43,1.16-0.65c0.83-0.46,1.65-0.92,2.47-1.39c37.86-21.33,75.34-43.34,113.03-65c0.01,0,0.01-0.01,0.02-0.01
		c0.64-0.4,1.29-0.79,1.93-1.19h0.01c32.16-19.74,65.1-38.15,97.75-57.06c41.86-24.23,83.38-49.07,125.88-72.18
		c9.1-4.95,10.25-12,10.08-20.01c0.01,0,0.01,0,0-0.01c-0.01-0.8-0.04-1.63-0.07-2.45c-0.01-0.07-0.01-0.13-0.01-0.19
		c-0.02-0.24-0.03-0.47-0.04-0.71c-0.01-0.4-0.01-0.8-0.01-1.2c-0.02-1.73-0.03-3.45-0.03-5.17c0.02-4.98-0.01-9.96,0.01-14.93
		c0.07-2.73,0.03-5.48,1.13-8.07c0.25-0.5,0.52-0.97,0.83-1.42c0.04-0.06,0.08-0.12,0.12-0.18c2.21-3.2,5.57-5.13,8.87-7.02
		c30.43-17.42,60.56-35.38,90.97-52.83h17.87c0.43,2.52,0.57,5.93,0.59,10.32c0.03,6.8,0.17,13.63-0.03,20.43
		c-0.22,7.4,2.4,8.1,8.41,4.6c20.35-11.87,40.83-23.52,61.2-35.36H1757.03z"/>
	<path class="st99" d="M1575.49,126.22c-8.79,8.4-20.47,11.95-30.64,18.08c-35.78,21.56-72.28,41.92-108.19,63.31
		c-37.67,22.42-76.1,43.53-114.03,65.49c-25.28,14.63-50.21,29.88-75.43,44.61c-23.19,13.54-46.56,26.74-69.83,40.12
		c-32.11,18.46-63.91,37.46-96.14,55.65c-26.34,14.88-51.86,31.15-78.67,45.24c-18.62,9.78-36.65,20.77-54.48,31.98
		c-10.22,6.42-19.07,6.44-29.33,0.04c-14.38-8.98-29.52-16.71-44.24-25.13c-14.14-8.1-28.55-15.75-42.34-24.51
		c-12.59-7.98-25.92-14.8-38.87-22.19c-15.64-8.93-31.2-18-46.84-26.9c-18.28-10.41-36.63-20.67-54.92-31.08
		c-21.26-12.09-42.5-24.25-63.72-36.43c-10.6-6.09-20.97-12.63-31.77-18.34c-36.4-19.19-71.45-40.71-107.21-61.03
		c-29.53-16.78-59.28-33.2-88.34-50.85c-22.06-13.4-45.01-25.34-67.47-38.1c-21.56-12.26-43.03-24.68-64.45-37.17
		c-7.76-4.52-15.27-8-24.8-5.11c-16.07,4.87-29.15-2.59-41.02-12.13c-8.77-7.04-15.79-15.93-21.67-25.56
		c-5.69-9.29-13.69-15.89-23.22-20.85c-24.39-12.71-47.95-26.91-71.7-40.77C77.76,9.7,69.32,4.84,60.87,0h33.35
		c12.16,6.76,24.31,13.53,36.48,20.27c16.9,9.37,32.92,20.34,50.56,28.42c3.24,1.48,4.66,4.44,6.21,7.65
		c6.33,13.09,15.08,24.11,28.75,30.37c3.11,1.42,6.18,2.9,9.7,2.88c9.43,2.56,18.88-0.47,28.32,0.1
		c23.26,13.2,46.54,26.4,69.79,39.62c15.9,9.05,31.56,18.54,47.72,27.06c14.67,7.74,28.78,16.39,43.18,24.58
		c22.35,12.7,44.59,25.56,66.93,38.27c26.22,14.91,52.51,29.66,78.72,44.59c13.24,7.55,26.32,15.4,39.54,23
		c13.75,7.92,27.61,15.68,41.39,23.54c24.1,13.75,48.16,27.56,72.27,41.28c11.46,6.51,23.02,12.82,34.5,19.3
		c25.62,14.48,51.24,28.97,76.82,43.53c23.5,13.38,46.93,26.89,70.4,40.33c9.4,5.38,18.98,10.48,28.21,16.14
		c5.74,3.52,10.68,2.74,16.13-0.51c19.5-11.63,39.09-23.14,58.7-34.55c21.4-12.46,42.86-24.8,64.31-37.16
		c26.14-15.06,52.66-29.49,78.1-45.73c2.88-1.84,5.67-3.73,9.14-4.26c0.92-0.07,0.73,2.35,1.97,1c0.34-0.37-0.25-1.76,0.18-2.66
		c12.57-7.35,25.1-14.73,37.69-22.05c19.03-11.05,38.07-22.1,57.15-33.08c25.24-14.53,50.56-28.94,75.76-43.52
		c21.7-12.56,43.27-25.33,64.94-37.94c19.89-11.59,39.81-23.15,59.76-34.66c20.54-11.85,40.96-23.87,61.7-35.35
		c15.98-8.85,30.92-19.53,47.82-26.74v-0.01h0.01c0.02,0.84,0.04,1.63,0.07,2.34c0.33,9,1.17,8.87,12.55,6.99
		c2.04-0.34,4.03-0.59,5.88,0.67c0.01,0.02,0.02,0.03,0.03,0.05c0.05,0.06,0.09,0.12,0.11,0.18
		C1576.19,124.71,1576.08,125.47,1575.49,126.22z"/>
	<path class="st100" d="M1353.62,994.96c-5.58,3.36-1.82,12.33-9.55,13.96h-0.01c-1.07-0.25-1.74-0.87-2.17-1.69
		c-1.63-3.02-0.16-8.69-5.64-7.67c-4.21,0.78-7.52,4.52-11.34,6.77c-69.3,40.74-137.79,82.84-206.79,124.08
		c-83.62,49.99-166.89,100.55-250.3,150.9c-88.37,53.34-176.86,106.49-265.16,159.91c-76.36,46.2-153.01,91.96-229.23,138.4
		c-9.56,5.82-17.07,5.71-26.17-0.33c-12.75-8.46-25.86-16.42-39.35-23.7c-0.3-0.16-0.6-0.33-0.9-0.49c-0.1-0.06-0.2-0.11-0.31-0.17
		c-11.8-6.58-23.19-13.89-34.89-20.65c-1.02-0.62-2.05-1.26-3.07-1.89c-0.97-0.59-1.93-1.19-2.9-1.79
		c-10.98-6.84-21.9-13.78-33.14-20.19c-1.12-0.62-2.23-1.25-3.35-1.87c-0.78-0.43-1.56-0.86-2.34-1.29
		C151.67,1461.53,75.48,1417.19,0,1371.71v-29.17c47.38,28.05,94.53,56.48,141.86,84.6c69.13,41.06,138.21,82.2,207.24,123.43
		c4.31,2.58,8.61,5.69,14.11,5.28c0.56-0.33,1.12-0.67,1.68-1c50.99-30.23,101.38-61.45,152.22-91.91
		c95.82-57.4,191.23-115.48,286.99-173c2.93-1.75,5.73-3.78,8.86-5.08c10.07-4.14,15.05-11.85,17.43-22.25
		c1.57-6.83,2.77-14.01,7.01-19.89c0.63-0.87,1.32-1.71,2.1-2.52l0.06-0.05c0.16-0.07,0.32-0.13,0.47-0.19
		c6.4-2.51,8.46,3.07,11.16,6.75c7.66,10.45,7.55,10.56,18.91,3.62c86.28-52.67,172.93-104.73,259.64-156.68
		c55.48-33.23,110.54-67.16,166.29-99.93c11.68-6.88,11.62-6.99,8.27-20.51c-0.45-1.82-0.83-3.62-0.28-5.36
		c0.15-0.51,0.39-1.01,0.72-1.5c7.3,2.75,14.8,5.05,21.83,8.37c8.32,3.93,18.19,6.04,21.93,16.43
		C1349.04,992.71,1351.59,993.53,1353.62,994.96z"/>
	<path class="st101" d="M1612.28,0c-30,17.76-60.36,34.92-90.51,52.43c-0.09,0.05-0.17,0.1-0.27,0.15
		c-0.42,0.25-0.83,0.48-1.25,0.73c-0.4,0.24-0.81,0.47-1.21,0.71c-37.22,21.66-74.43,43.33-111.86,64.64
		c-0.1,0.06-0.21,0.12-0.32,0.18c-0.31,0.17-0.61,0.36-0.92,0.53c-40.63,23.61-81.29,47.18-121.95,70.75h-0.01
		c-39.63,22.97-79.25,45.93-118.89,68.9c-61.83,35.81-123.86,71.31-185.53,107.42c-15.56,9.12-31.49,17.63-46.9,27
		c-1.23,0.75-2.42,1.35-3.61,1.8c-0.01-0.01-0.01,0-0.01,0c-4.8,1.86-9.35,1.32-14.46-1.65c-65.65-38.19-132.01-75.16-198.1-112.58
		C608.9,220.09,501.62,158.65,393.99,97.78c-40.78-23.06-81.81-45.68-122.21-69.42c-0.57-0.34-1.15-0.68-1.72-1.01
		c-0.73-0.42-1.45-0.85-2.18-1.28c-14.94-7.75-17.94-11.94-16.23-23.48c0.12-0.81,0.16-1.71,0.27-2.59h7.75
		c0.72,0.4,1.49,0.75,2.2,1.15c57.77,32.61,115.58,65.14,173.3,97.82c58.91,33.36,117.7,66.89,176.59,100.28
		c48.24,27.35,96.55,54.55,144.78,81.92c53.25,30.23,106.49,60.46,159.55,91.01c6.4,3.68,10.68,3.59,17.18-0.38
		c25.54-15.59,51.67-30.24,77.58-45.22c36.23-20.94,72.48-41.84,108.69-62.8c32.68-18.91,65.31-37.9,98.01-56.79
		c36.52-21.11,73.12-42.08,109.61-63.24c39.43-22.88,78.74-45.94,118.13-68.87c42.93-24.97,85.88-49.87,128.79-74.88H1612.28z"/>
	<path class="st102" d="M375.25,1513.44c-2.95,13.94-4.53,28.24-10.37,41.41c-0.59,1.35-1.24,2.7-1.93,4.03
		c-6.87,1.58-11.33-3.5-16.3-6.41c-24.67-14.43-49.06-29.35-73.61-43.98c-91-54.22-182.03-108.42-273.04-162.61v-60.54
		c57.81,34.46,115.56,69.05,173.35,103.55c66.55,39.73,133.13,79.4,199.71,119.11c0.49,0.5,0.94,1.04,1.31,1.63
		C375.11,1510.79,375.53,1512.09,375.25,1513.44z"/>
	<path class="st103" d="M350.66,1599.75c-19.98-0.02-39.98-0.42-59.95,0.1c-8.97,0.24-16.67-2.18-24.15-6.58
		c-19.92-11.72-39.91-23.31-59.83-35.02c-21.97-12.91-43.87-25.96-65.87-38.81c-38.02-22.19-76.13-44.25-114.16-66.43
		c-8.93-5.22-17.79-10.56-26.7-15.85v-52.01c43.77,26.11,87.71,51.94,131.52,77.99c27.5,16.36,54.82,33.06,82.62,48.92
		c1.73,1.06,3.45,2.12,5.18,3.17c1.83,1.13,3.67,2.25,5.5,3.37c0.01,0,0.01,0,0.01,0c10.99,6.7,22.01,13.34,33.1,19.86
		c1.39,0.81,2.78,1.63,4.17,2.44c0.98,0.57,1.95,1.14,2.94,1.71c4.81,3.57,9.9,6.76,14.73,10.29c2.04,1.78,4.3,3.19,6.92,3.99
		c4.73,2.06,9.38,4.26,13.93,6.72c0.18,0.11,0.36,0.21,0.54,0.33c0.44,0.27,0.88,0.54,1.32,0.81h0.01
		c13.03,7.89,25.96,15.95,38.68,24.33c3.3,2.18,7.73,3.67,9.08,7.8C350.52,1597.73,350.67,1598.67,350.66,1599.75z"/>
	<path class="st104" d="M543.61,1113.95c-7.38,4.22-14.58,8.74-22,12.88c-46.32,25.87-91.7,53.34-137.36,80.32
		c-47.7,28.19-95.03,57.03-142.44,85.71c-21.82,13.19-43.55,26.54-65.1,40.15c-6.13,3.88-11.23,3.16-17.01-0.37
		c-22.33-13.65-44.73-27.18-67.2-40.6c-29.47-17.62-59.03-35.09-88.55-52.63c-1.32-0.79-2.64-1.57-3.96-2.35v-4.02
		c2.46,1.52,4.91,3.05,7.4,4.5c30.51,17.9,60.81,36.13,91.14,54.33c21.28,12.77,42.54,25.59,63.65,38.66
		c4.29,2.65,7.27,2.81,11.84,0.03c67.35-41.05,134.64-82.23,202.43-122.55c53.78-32,107.56-64.02,162.17-94.62
		c1.18-0.65,2.5-1.19,2.81-3.28c-8.61-6.76-18.65-11.73-28.15-17.53c-31.65-19.31-63.37-38.49-95.18-57.55
		c-43.48-26.04-87.09-51.86-130.58-77.87c-21.02-12.57-41.89-25.38-62.83-38.06c-2.04-1.24-4.21-2.28-6.14-3.66
		c-5.43-3.91-9.94-2.89-15.73,0.49c-17.62,10.29-35.79,19.63-53.75,29.33c-30.24,16.34-59.85,33.76-89.39,51.29
		c-13.46,7.99-26.96,15.9-40.42,23.88c-1.7,1-3.93,1.45-4.59,4.31c50.37,30.02,100.82,60.2,151.38,90.19
		c50.37,29.89,100.9,59.53,151.07,89.76c-0.44,0.78-0.87,1.56-1.3,2.33c-6.69-3.65-13.5-7.1-20.04-11
		c-41.49-24.7-82.94-49.46-124.38-74.27c-28.89-17.29-57.67-34.76-86.59-51.99c-23.08-13.76-46.36-27.19-69.38-41.04
		c-4.27-2.57-7.33-1.93-11.09,0.59c-1.44,0.97-2.91,1.92-4.37,2.85v-3.79c12.71-7.68,25.42-15.35,38.21-22.89
		c33.38-19.7,66.56-39.75,100.67-58.2c21.24-11.48,42.46-23,63.52-34.81c6.27-3.52,11.2-3.7,17.73,0.33
		c29.19,18.06,58.81,35.45,88.28,53.06c44.05,26.34,88.13,52.65,132.16,79.03c33.52,20.1,66.99,40.31,100.48,60.47
		c1.16,0.7,2.3,1.46,3.33,2.34C547.2,1110.12,546.86,1112.08,543.61,1113.95z"/>
	<path class="st105" d="M271.78,28.36c-0.4,1.65-1.82,2.88-3.44,4.02c-0.22,0.16-0.46,0.33-0.7,0.49c-0.16,0.1-0.33,0.21-0.49,0.33
		c-3.92,0.98-6.89-0.4-9.58-2.49c-1-0.79-1.96-1.67-2.93-2.56c-1.9-7.01-2.04-7.27-7.44-4.32c-10.73,5.84-21.43,11.79-31.85,18.15
		c-3.81,2.33-6.73,2.06-10.29,0.04C180.28,28.01,155.46,14,130.65,0h20.82c12.64,7.25,25.16,14.69,38,21.57
		c5.03,2.7,9.74,6.04,16.67,8.45c-1.38-5.76-5.49-7.43-8.9-9.48C185.17,13.33,172.7,6.79,160.39,0h30.9
		c4.72,2.68,9.52,5.21,14.54,7.37c0.29-3.86-1.42-5.85-3.55-7.37h52.45c-1.07,4.52,0.26,9.27,0.43,13.89
		c0.08,2.13,2.24,3.19,4.06,4.15c3.89,2.04,7.76,4.09,11.62,6.14c0,0.01,0.01,0.01,0.01,0.02
		C271.85,25.87,272.06,27.22,271.78,28.36z"/>
	<path class="st106" d="M232.8,1517.22c-1.46,2.25-3.82,2.47-6.25,1.83c-0.57-0.14-1.15-0.3-1.72-0.44c0,0,0,0-0.01,0
		c-3.94-1.01-7.86-2.12-11.19-4.7c-3.18-0.24-5.73-1.95-8.4-3.48c-23.21-13.35-45.91-27.55-69.14-40.9
		c-26.79-15.4-52.56-32.57-79.45-47.78c-18.94-10.71-37.1-22.73-56.33-32.92c-0.1-0.05-0.19-0.1-0.3-0.16v-20.41
		c47.09,28.04,94.2,56.03,141.29,84.07c28.02,16.68,56,33.42,83.97,50.18c1.12,0.67,1.87,1.92,2.79,2.92
		c1.73,1.49,3.5,2.98,4.66,4.98c0.03,0.04,0.05,0.09,0.08,0.13C234,1512.7,234.18,1515.11,232.8,1517.22z"/>
	<path class="st107" d="M1629.74,0c-35.04,20.34-70.05,40.7-105.08,61.08c-0.46-0.36-0.89-0.72-1.28-1.04
		c-3.39-2.94-4.01-5.08-1.62-7.6c0.95-1,2.36-2.06,4.28-3.25c12.92-8.08,26.34-15.36,39.49-23.08c15.05-8.84,30.31-17.33,45.4-26.09
		H1629.74z"/>
	<path class="st107" d="M1717.55,0c-19.39,11.09-38.75,22.2-58.13,33.3c-6.39,3.65-12.79,7.29-20.72,11.81V0H1717.55z"/>
	<path class="st108" d="M61.04,1087.34c-4.5,5.26-10.92,8.35-16.73,12c-14.67,9.22-29.51,18.2-44.31,27.24v-64.51
		c1.4-0.92,2.79-1.83,4.2-2.74c4.34-2.8,7.19-3.05,11.73-0.21c13.21,8.27,26.88,15.8,40.38,23.6
		C58.08,1083.75,59.77,1084.83,61.04,1087.34z"/>
	<path class="st109" d="M165.77,886.23c-1.67,1.16-3.43,2.21-5.25,3.12c-48.68,24.37-95.71,51.71-142.82,78.93
		c-5.98,3.46-11.84,7.12-17.69,10.78v-12.53c0.62-0.41,1.26-0.81,1.9-1.2c30.87-18.6,62.02-36.71,93.78-53.76
		c19.18-10.29,38.42-20.45,57.67-30.62c3.93-2.08,7.93-4.31,12.2-0.44C167.69,882.48,168.54,884.29,165.77,886.23z"/>
	<path class="st107" d="M208.94,34.76c-7.41-1.67-13.17-6.41-19.42-9.8C174.52,16.8,159.61,8.5,144.82,0h21.24
		c0.57,0.31,1.15,0.62,1.72,0.94c11.56,6.39,23.2,12.63,34.58,19.34C209.54,24.53,209.54,24.52,208.94,34.76z"/>
	<path class="st110" d="M1614.49,0c-1.32,0.78-2.63,1.55-3.95,2.31c-26.58,15.48-53.26,30.81-79.89,46.24
		c-2.04,1.18-4,2.54-5.84,4.02c-2.87,2.32-3.25,4.8-1.3,7.28c0.32,0.41,0.71,0.82,1.16,1.23c-0.15,2.68-0.32,5.35-0.48,8.03
		c-1.43,5.32-1.21,10.64-0.13,15.98c-0.03,2.16-0.06,4.33-0.09,6.5c-0.58,0.18-1.14,0.24-1.66,0.15c-0.18-0.02-0.35-0.06-0.52-0.11
		c-0.09-0.03-0.18-0.06-0.28-0.1c-0.37-0.15-0.73-0.38-1.06-0.68c-5.27-12.25-5.43-24.54-1.39-36.84c0.36-1.13,0.77-2.25,1.21-3.38
		c11.02-6.55,22.08-13.03,33.05-19.66c17.7-10.7,35.91-20.57,53.78-30.98H1614.49z"/>
	<path class="st111" d="M208.89,13.04C201.1,8.6,193.41,4.3,185.83,0h21.66C210.22,3.19,210.02,7.58,208.89,13.04z"/>
	<path class="st0" d="M1284.71,940.17c-6.94-4.38-37.99-23.52-78.86-48.66c-0.11-0.08-0.22-0.15-0.34-0.21
		c-20.25-12.45-42.88-26.37-66.18-40.68l-1.32-0.8c-79.98-49.13-167.34-102.7-192.23-117.89
		c-80.97-49.39-161.96-98.74-242.92-148.14c-24.09-14.7-48.22-29.36-72.09-44.41c-5.27-3.33-9.48-3.85-14.82-0.58
		c-4.3,2.64-9.21,4.28-13.85,6.36c-2.65,1.57-40.18,20.28-73.85,37.66c-0.2,0.11-0.42,0.21-0.62,0.32
		c-7.79,4.02-15.35,7.97-22.21,11.59c-6.26,3.32-11.94,6.37-16.67,9c-46.7,25.93-93.82,51.03-139.55,78.63
		c-27.93,16.85-56.49,32.78-82.52,52.64c-40.44,26.37-78.53,55.56-110.65,91.93c0.61,0.36,1.22,0.71,1.83,1.05
		c9.97,5.77,20,11.43,29.87,17.36c27.34,16.46,54.54,33.15,81.89,49.58c30.85,18.52,61.86,36.8,92.73,55.3
		c20.09,12.03,39.8,24.73,60.15,36.33c24.77,14.14,48.93,29.31,73.43,43.9c27.41,16.33,54.69,32.91,82.04,49.34
		c35.79,21.51,71.62,42.97,107.39,64.5c23.85,14.37,47.53,29.02,71.49,43.18c27.76,16.41,55.4,33.03,82.49,50.53
		c0.29,0.08,0.56,0.14,0.84,0.18c3.95,0.67,6.16-2.43,8.61-4.73c26.72-25.13,55.07-48.26,84.96-69.52c3.08-2.19,7.12-3.91,7.81-8.24
		c0.02,0.01,0.04,0.02,0.06,0.02c4.73-0.14,8.28-2.92,11.93-5.36c106.99-71.72,218.93-134.93,333.22-194.12
		c2.51-1.3,5.3-2.26,7.35-4.25c0.62-0.6,1.18-1.31,1.64-2.14C1294.23,944.18,1288.8,942.75,1284.71,940.17z M673.24,996.64
		c-17.1,11.12-33.99,22.54-50.58,34.42c-2.85,2.04-5.56,5.39-10.37,2.67c1.41-4.75,5.73-6.49,9.15-8.88
		c14.47-10.15,29.71-19.19,43.74-29.96c2.4-1.84,5.84-3.02,6.5-6.39c6.49-1.06,11.57-4.99,16.85-8.44
		c24.78-16.19,49.69-32.18,75.2-47.2c3.5-2.06,6.9-5.71,11.8-3.25c-0.15,3.96-3.27,4.54-5.41,5.87
		c-17.36,10.73-34.97,21.08-52.03,32.28c-11.9,7.82-25.2,13.82-34.77,24.9C679.05,991.29,676.26,994.68,673.24,996.64z"/>
	<path class="st4" d="M1395.92,448.51c40.5-22.99,80.98-46.03,121.52-68.96c61.56-34.82,123.23-69.46,184.66-104.51
		c6.56-3.74,11.24-3.44,17.54,0.33c85.47,51.21,171.11,102.13,256.67,153.2c15.77,9.41,31.34,19.14,47,28.73
		c0.48,6.69-5.25,8.28-9.38,10.64c-50.19,28.74-100.6,57.09-150.78,85.85c-45.16,25.88-90.78,50.96-135.62,77.41
		c-5.26,3.1-10.38,6.68-16.99,6.03c-16.25-5.69-29.93-16.11-44.55-24.71c-86.89-51.13-173.62-102.55-260.03-154.49
		C1401.97,455.64,1397.23,453.84,1395.92,448.51z"/>
	<path class="st112" d="M2240.7,1583.83c51.27,30.59,102.67,61,154.06,91.42v70.28c-10.01-5.96-20.03-11.91-30.04-17.84
		c-35.11-20.76-70.32-41.37-105.37-62.23c-29.21-17.38-58.22-35.11-87.41-52.53c-29.77-17.78-59.66-35.35-89.46-53.09
		c-30.67-18.25-61.24-36.65-91.95-54.86c-28.36-16.82-56.87-33.39-85.25-50.2c-24.85-14.72-49.57-29.7-74.4-44.48
		c-32.14-19.11-64.37-38.05-96.49-57.21c-35.62-21.24-71.11-42.71-106.75-63.92c-22.49-13.38-45.22-26.4-67.74-39.73
		c-27.48-16.28-54.87-32.73-82.29-49.12c-2.83-1.69-6.37-2.63-7.32-7.14c9.46-5.62,19.03-11.33,28.64-16.99
		c30.47-17.93,60.93-35.88,91.44-53.75c28.74-16.85,57.6-33.51,86.27-50.49c38.02-22.52,75.84-45.37,113.88-67.88
		c33.06-19.55,66.33-38.75,99.42-58.24c21.37-12.59,42.51-25.54,63.88-38.09c40.13-23.57,80.75-46.29,120.41-70.61
		c33.33-20.44,67.74-39,100.84-59.8c9.75-6.13,20.16-11.29,30.01-17.35c1.83-1.14,3.97-3.16,6.37-0.7
		c-2.98,1.79-5.97,3.59-8.94,5.39h-0.01c-31.1,18.74-62.18,37.47-93.29,56.18c-97.06,58.35-194.11,116.71-291.22,174.99
		c-82.51,49.51-165.1,98.91-247.59,148.46c-2.61,1.57-6.72,1.89-6.96,6.25v0.01c0.23,0.82,0.4,1.64,0.53,2.46
		c0.01,0.01,0.01,0.01,0.01,0.01c0.9,5.27,0.31,10.61-0.11,15.81c-0.78,9.39,2.94,14.95,10.99,19.71
		c32.54,19.24,65.24,38.2,97.74,57.51c104.51,62.08,209.02,124.17,313.58,186.18C2071.12,1482.6,2155.91,1533.23,2240.7,1583.83z"/>
	<path class="st113" d="M1949.83,1736.78c-26.75,12.9-55.32,20.38-83.83,28.02c-4.79,1.28-9.29,0.16-13.72-2.27
		c-24.46-13.39-49.1-26.43-73.5-39.92c-30.93-17.11-61.6-34.7-92.56-51.75c-19.06-10.5-38.15-20.93-56.93-31.94
		c-23.74-13.92-47.76-27.38-71.41-41.47c-26.56-15.82-52.97-31.92-79.2-48.27c-18.14-11.31-35.91-23.22-53.79-34.94
		c-2.25-1.48-5-2.97-6.19-5.18c-8.5-15.69-24.25-23.34-37.34-33.84c-10.32-8.27-21.36-15.64-32.06-23.43
		c-6.06-4.42-10.91-9.53-8.53-17.89c1.1-3.86-0.84-5.93-3.83-7.24c-16.48-7.22-32.73-15.15-50.46-19.01
		c-10-2.18-16.82-7.08-21.28-16.82c-7.25-15.83-17.8-29.65-29.88-42.24c-1.41-1.47-2.79-2.98-4.06-4.58
		c-0.36-0.46-0.31-1.25-0.57-2.51c3.78-2.62,7.48-0.76,11.24,0.35c21.16,6.24,42.34,12.37,63.87,17.26
		c5.43,1.23,10.68,1.76,16.14,1.27c3.52-3.19,7.1-1.75,10.69-0.16c10.6,4.83,16.42,14.96,24.69,22.38
		c9.25,8.29,18.91,15.38,31.99,15.99c3.39,0.16,6.73,1.07,9.07,3.95c2.31,4.5,4.48,8.9,9.2,11.77
		c25.22,15.31,49.27,32.43,73.94,48.59c3.13,2.05,6.39,3.83,9.78,5.4c8.97,16.67,26.14,23.3,40.84,32.7
		c84.67,54.16,172.68,102.52,260.98,150.43c46.37,25.16,92.88,50.12,138.47,76.69C1937.48,1731.58,1944.77,1731.79,1949.83,1736.78z
		"/>
	<path class="st114" d="M1728.87,860.21c-2.91,2.6-6.47,1.66-9.78,1.66c-49.37,0.07-98.74,0.01-148.11,0.16
		c-5.34,0.02-9.7-1.49-14.26-4.22c-30.31-18.15-60.8-35.98-91.2-53.98c-21.92-12.98-43.77-26.08-65.67-39.09
		c-38.83-23.08-77.67-46.15-116.52-69.2c-23.08-13.69-46.2-27.33-69.28-41.02c-0.53-0.31-0.79-1.06-1.66-2.28
		c7.73-6.41,16.73-10.95,25.41-15.79c41.26-23,82.87-45.37,124.01-68.6c22.17-12.52,44.44-24.82,66.77-37.05
		c4.44-2.43,8.8-5.23,13.95-6.11c2.03-0.46,2.61,0.63,2.55,2.39c-6.31,8-16.21,10.63-24.17,16.15c-3.59,2.49-7.89,3.92-10.93,7.23
		c-2.3,12.36-0.89,24.79-0.89,37.18c0,5.89,4.64,8.38,8.8,11.39c6.42,4.64,15.16,6.12,19.22,13.99c-1.6,9.52-12.18,9.6-16.77,15.97
		c-2.95,12.45-1.18,25.04-1.13,37.55c0.03,6.57,5.82,8.72,10.4,11.5c40.44,24.54,81.3,48.38,121.81,72.79
		c55.37,33.36,111.08,66.17,166.52,99.41C1722.19,852.78,1727.47,854.45,1728.87,860.21z"/>
	<path class="st115" d="M2152.18,317.72c80.97,46.83,161.9,93.73,242.58,141.04v54.91c-1.93-1.12-3.88-2.23-5.81-3.35
		c-27.66-15.95-55.29-31.97-82.99-47.86c-24.14-13.83-48.42-27.44-72.55-41.32c-22.96-13.21-45.73-26.74-68.71-39.92
		c-22.69-13.02-45.58-25.66-68.27-38.67c-23.58-13.52-46.99-27.31-70.52-40.89c-16.48-9.51-33.06-18.84-49.58-28.28
		c-24.76-14.18-49.51-28.37-74.25-42.62c-15.01-8.65-29.95-17.4-44.93-26.09c-1.74-1.01-3.83-1.61-4.76-4.9
		c14.49-8.69,29.23-17.52,43.98-26.36c0.18-0.1,0.36-0.19,0.54-0.28c4.22-2.02,7.45,0.93,10.65,2.8
		C1988.98,223.42,2070.6,270.54,2152.18,317.72z"/>
	<path class="st116" d="M1949.83,1736.78c-12.86,0.41-22.08-8.13-32.47-13.54c-15.95-8.31-31.42-17.53-47.15-26.27
		c-24.93-13.85-49.89-27.67-74.88-41.41c-16.67-9.16-33.45-18.14-50.16-27.24c-22.96-12.51-46-24.89-68.82-37.66
		c-23.38-13.08-46.67-26.31-69.74-39.93c-17.24-10.17-34.08-21.02-51.06-31.64c-16.98-10.62-33.82-21.44-50.88-31.92
		c-7.18-4.41-12.7-9.85-14.84-18.21c-6.3-9.31-3.36-18.86-0.32-28.17c1.99-6.1,4.77-11.99,9.56-16.59c0.81-0.7,1.73-1.25,2.72-1.65
		c6.06-1.73,10.46,2.09,15.02,4.84c36.43,22.02,72.66,44.38,109.15,66.32c53.69,32.29,106.79,65.56,160.13,98.43
		c46.1,28.4,91.94,57.21,137.89,85.85c2.89,1.8,5.93,3.4,8.68,5.38c4.92,3.55,8.76,2.88,13.64-0.88c6.8-5.24,13.82-11.77,23.83-7.13
		c15.42,9.51,14.16,23.15,6.77,38.4C1971.47,1724.95,1962.68,1733.62,1949.83,1736.78z"/>
	<path class="st117" d="M839.33,1237.99c9.43-7.26,17.66-15.88,26.51-23.78c19.28-17.2,39.69-32.9,60.37-48.31
		c5.16-3.85,10.3-7.74,15.45-11.6c12.53-8.19,25.07-16.35,37.59-24.56c44.12-28.94,89.46-55.88,135.07-82.4
		c35.01-20.36,70.42-40.02,105.9-59.54c22.66-12.47,45.82-24.04,68.77-35.99c2.1-1.09,4.2-2.34,6.75-1.96
		c4.29,4.81,5.59,11.24,8.99,16.52c1.25,3.52,2.43,7.06,3.77,10.55c3.96,10.27,3.98,10.26-4.95,15.61
		c-13.13,7.87-26.27,15.71-39.38,23.61c-93.53,56.32-187.06,112.62-280.56,168.99c-39.9,24.05-79.71,48.25-119.56,72.39
		c-6.97,4.22-6.93,4.21-11.43-3.09c-2.32-3.76-4.79-7.43-7.21-11.13c-1.38-2.11-3.11-3.58-5.86-3.12
		C839.48,1239.44,839.41,1238.71,839.33,1237.99z"/>
	<path class="st118" d="M1989.97,527.15c15.14,9.48,30.29,18.95,45.43,28.43c0.65,6.42-5.01,7.57-8.76,9.79
		c-31.88,18.87-64.36,36.68-96.58,54.96c-56.77,32.19-113.31,64.76-170.15,96.82c-12.09,6.82-23.57,14.86-36.63,19.94
		c-1.03,0.15-2.06,0.11-3.09-0.06c-26.51-14.13-52.03-29.94-77.38-46.04c-2.58-1.64-6.39-3.61-3.02-7.91
		c4.22-2.77,9.01-2.44,13.69-2.46c17.81-0.05,35.61-0.3,53.39,0.49c1.08-0.02,2.18-0.06,3.26-0.14c20.73-9.5,39.82-21.98,59.6-33.21
		c69.49-39.46,139.05-78.81,208.34-118.61C1981.6,527.12,1985.3,523.58,1989.97,527.15z"/>
	<path class="st119" d="M350.66,1599.75c-13.96-11.55-29.81-20.23-45.14-29.7c-2.28-1.41-4.87-2.34-6.01-5.05
		c4.96-2.52,5.84-7.81,8.2-12.09c5.28,0.72,9.11,4.4,13.45,6.9c10.31,5.93,20.44,12.2,30.35,18.77c6.47,4.29,11.55,3.93,18.4-0.27
		c39.14-23.96,78.77-47.14,118.08-70.84c42.8-25.81,85.35-52.03,128.15-77.84c43.09-25.98,86.43-51.56,129.53-77.53
		c29.41-17.72,58.28-36.34,87.96-53.58c27.93-16.23,55.09-33.7,82.9-50.12c40.39-23.85,80.32-48.47,120.54-72.61
		c41.68-25.02,83.53-49.75,125.19-74.79c28.84-17.33,57.46-35.04,86.24-52.48c28.49-17.27,57.06-34.41,85.61-51.6
		c1.46-0.88,2.96-1.7,4.52-2.38c4.4-1.93,6.17-0.95,4.85,3.41c-1.21,4,0.28,7.33,0.59,10.96c-14.21,8.69-28.37,17.45-42.62,26.05
		c-22.42,13.52-44.91,26.94-67.37,40.39c-24.21,14.5-48.59,28.73-72.6,43.57c-25.16,15.56-51.03,29.95-76.14,45.55
		c-22.51,13.98-45.29,27.49-67.92,41.27c-38.61,23.52-77.49,46.59-116.27,69.83c-28.01,16.79-56.28,33.15-83.98,50.44
		c-20.2,12.6-40.76,24.55-61.18,36.77c-15.43,9.23-30.5,19.13-46.03,28.25c-21.97,12.91-43.72,26.18-65.52,39.38
		c-36.94,22.36-73.78,44.88-110.79,67.12c-22.13,13.3-44.98,25.45-66.62,39.49c-16.85,10.93-34.15,21.04-51.25,31.5
		c-16.49,10.09-33.48,19.41-49.63,30C360.49,1602.25,355.82,1599.86,350.66,1599.75z"/>
	<path class="st120" d="M1970.12,1675.37c-9.8,0.07-17.7,4.57-24.27,11.27c-3.79,3.86-6.62,4.25-11.31,1.28
		c-32.96-20.9-66.04-41.6-99.21-62.17c-30.87-19.14-62.05-37.79-92.81-57.11c-23.86-14.98-47.94-29.59-72.02-44.19
		c-31.34-19-62.49-38.3-93.78-57.38c-22.31-13.61-44.75-27.03-67.04-40.68c-2.42-1.48-4.72-2.6-7.54-2.54
		c3.61-14.33,15.64-17.47,27.59-20.7c10.36-0.76,18.65,3.52,27.34,8.95c24.49,15.3,49.77,29.3,74.57,44.12
		c23.31,13.93,46.89,27.42,69.5,42.52c10.99,7.34,22.71,13.55,33.67,21.03c20.46,13.96,41.44,27.17,62.11,40.83
		c48.75,32.21,97.45,64.5,146.16,96.77C1952.1,1663.34,1961.1,1669.37,1970.12,1675.37z"/>
	<path class="st121" d="M1062.24,1542.17c-0.34,0.3-0.68,0.58-1.01,0.86c-8.02,6.74-17.49,11.27-26.29,16.77
		c-47.59,29.8-95.33,59.37-143.16,88.76c-75.9,46.62-151.9,93.05-227.89,139.54h-22.02c43.89-35.01,88.5-69.08,132.85-103.51
		c60.49-46.98,120.92-94.07,181.48-140.96c3.62-2.8,6.73-6.78,11.58-7.49c0,0,0,0,0.01,0c0.73-0.1,1.48-0.13,2.3-0.08
		c10.33-7.75,20.7-15.44,30.97-23.26c2.62-1.99,4.79-3.13,8.19-1.15C1026.85,1521.96,1044.57,1532.02,1062.24,1542.17z"/>
	<path class="st122" d="M2045.95,637.1c2.31,14.16,0.92,28.41,1.07,42.63c0.05,4.24-3.69,5.31-6.59,6.96
		c-36.63,20.85-73.26,41.72-109.92,62.51c-63.29,35.89-126.6,71.76-189.98,107.48c-2.89,1.63-5.42,5.44-9.73,3.33
		c-5.73-7.8-3-16.8-3.41-25.3c-0.31-6.31-0.61-12.71,0.96-18.95c1.26-4.39,5.05-6.15,8.62-8.14
		c89.49-49.92,178.02-101.55,267.67-151.21c10.12-5.61,20.13-11.44,30.07-17.38C2038.11,637.01,2041.6,634.21,2045.95,637.1z"/>
	<path class="st122" d="M1722.73,735.16c31.55-18.07,63.05-36.22,94.66-54.2c27.48-15.63,55.12-30.96,82.59-46.59
		c26.28-14.95,52.32-30.32,78.68-45.12c17.19-9.65,34.65-18.82,51.48-29.11c2.05-1.25,4.27-2.15,5.26-4.55
		c2.33,1.12,1.95,3.31,1.96,5.25c0.06,12.14-0.12,24.27,0.16,36.4c0.1,4.62-1.38,7.4-5.61,9.49c-5.71,2.82-11.05,6.38-16.54,9.63
		c-0.61,3.49-3.49,4.84-6.13,6.36c-54.04,31.03-108.14,61.95-162.35,92.69c-34.66,19.65-69.3,39.34-103.73,59.4
		c-4.42,2.57-8.84,5.14-13.47,7.3c-3.67,1.72-7.28,2.46-9.27-2.51c-1.4-12.04-0.45-24.09-0.6-36.13
		C1719.78,740.36,1720.53,737.5,1722.73,735.16z"/>
	<path class="st7" d="M1712.26,683.64c-0.54,0.31-1.12,0.42-1.73,0.33c-6.95-1.71-13.35-4.51-19.51-8.26
		c-77.53-47.14-156.05-92.63-233.71-139.54c-4.57-2.76-9.93-4.61-12.9-9.59c-0.62-0.63-1.24-1.26-1.86-1.89
		c-13.04-7.88-25.96-15.98-39.19-23.53c-5.3-3.02-8.12-6.51-7.91-12.86c0.44-13.25,0.35-26.52,0.48-39.79
		c28.5,17.15,56.94,34.41,85.51,51.44c56.57,33.73,113.19,67.38,169.83,100.99c19.56,11.61,39.24,23.01,58.86,34.5
		c2.82,2.42,3.54,5.71,3.67,9.16c0.4,10.84-0.02,21.71,0.93,32.54C1714.95,679.62,1713.94,681.8,1712.26,683.64z"/>
	<path class="st7" d="M1730.66,813.24c0.82,15.59,0.73,31.18,0.14,46.78c-0.65-0.02-1.3,0.04-1.94,0.19
		c-51.66-30.75-103.36-61.44-154.98-92.26c-50.16-29.95-100.19-60.13-150.44-89.94c-5.39-3.2-7.68-6.67-7.4-12.91
		c0.46-10.18,0.11-20.39,0.2-30.58c0.02-2.63-0.75-5.51,1.68-7.64c5.32-1.25,9.01,2.3,12.97,4.65
		c69.91,41.52,139.71,83.24,209.44,125.07c14.58,8.75,29.13,17.57,44.07,25.71c12.59,7.73,25.36,15.16,37.94,22.9
		C1725.64,807.23,1729.96,808.43,1730.66,813.24z"/>
	<path class="st122" d="M1712.26,683.64c-2.94-15.96-0.93-32.14-2.13-48.18c9.7-0.78,16.65-7.43,24.59-11.82
		c23.79-13.18,47.33-26.8,70.96-40.25c25.41-14.46,50.82-28.9,76.21-43.39c22.73-12.97,45.42-26.01,68.16-38.96
		c20.68-11.78,41.43-23.42,62.06-35.27c4.05-2.32,8.67-4.05,11.2-8.45c2.53,1.54,1.95,4.1,1.96,6.37
		c0.06,11.82-0.15,23.65,0.15,35.47c0.13,5.07-1.7,8.1-6.2,10.35c-7.24,3.62-14.25,7.7-21.32,11.66c-2.91,1.63-6.3,2.66-7.93,5.99
		c-11.05,2.85-20.01,9.87-29.68,15.32c-46.19,26.02-92.14,52.47-138.15,78.8c-34.51,19.75-68.98,39.56-103.48,59.32
		C1716.61,681.76,1714.39,682.63,1712.26,683.64z"/>
	<path class="st118" d="M1730.66,813.24c-15.78-9.54-32.16-18.1-47.11-28.98c12.8-6.66,26.06-3.2,39.23-1.76
		c19.2-9.52,37.33-20.95,55.95-31.49c39.04-22.11,78.01-44.36,116.98-66.59c34.54-19.71,69.04-39.48,103.58-59.2
		c5.31-3.03,10.71-5.92,16.07-8.87c8.37,5.11,16.78,10.16,25.08,15.38c2.16,1.36,5.27,1.96,5.51,5.37
		c-6.75,0.83-11.54,5.61-17.12,8.7c-25.53,14.15-50.87,28.62-76.24,43.04c-27.73,15.76-55.37,31.67-83.13,47.38
		c-28.65,16.21-57.41,32.24-86.09,48.4c-13.6,7.67-27.12,15.49-40.71,23.17C1738.83,809.96,1735.14,812.48,1730.66,813.24z"/>
	<path class="st123" d="M970.1,1536.05c-0.3,0.24-0.6,0.47-0.9,0.71c-40.75,31.72-81.47,63.42-122.21,95.14
		c-66.85,52.06-133.68,104.13-200.5,156.2h-28.42c10.6-8.73,21.21-17.45,31.85-26.12c20.77-16.93,41.65-33.75,62.48-50.61
		c18.73-15.16,37.46-30.31,56.19-45.47c16.88-13.66,33.73-27.37,50.64-40.99c23.52-18.94,47.12-37.79,70.62-56.75
		c15.58-12.58,31.29-25,46.47-38.05c6.23-5.36,12.04-7.23,19.25-2.96C960.46,1530.04,966.67,1530.77,970.1,1536.05z"/>
	<path class="st124" d="M2301.79,394c31.01,18.16,61.91,36.55,92.97,54.63v13.61c-127.23-73.87-254.45-147.74-381.67-221.63
		c-35.9-20.85-71.73-41.82-107.61-62.67c-2.57-1.49-5.31-2.7-8-3.98c-0.37-0.17-0.74-0.36-1.09-0.53c-1.85-3.2-6.45-3.35-8.03-6.94
		c2.53-3.49,6.94-4.05,9.61-7c0.17,0.08,0.35,0.16,0.51,0.26c17.58,8.51,33.95,19.17,50.82,28.92c44.75,25.86,89.32,52,133.97,78.01
		c33.49,19.5,67.01,38.94,100.5,58.45C2223.12,348.05,2262.49,370.98,2301.79,394z"/>
	<path class="st125" d="M1529.73,1403.14c-10.15,5.63-20.65,10.8-27.59,20.7c0,0-0.68,0-0.68,0c-5.31,1.1-8.97-2.49-12.86-4.87
		c-22.49-13.76-45.06-27.4-67.71-40.91c-9.65-5.76-10.54-5.44-15.73,4.95c-1.9,3.8-2.63,8.66-8.08,9.49
		c-12.82-4.39-22.84-14.07-35.72-18.53c-9.79-3.39-19.52-7.12-29-11.38c-3.21-1.97-6.91-1.66-10.43-2.21
		c-9.6-19.71-19.96-38.94-33.97-56.01c-4.29-5.23-9.36-9.75-13.43-15.05c-2.09-2.71,1.35-1.22,2.38-1.49
		c1.38-0.31,2.81-0.28,3.98,0.42c21.56,12.87,44.43,23.7,63.97,39.7c5.58,4.56,6.79,0.34,9.42-2.34
		c14.39,12.54,31.78,20.55,47.39,31.23c6.49,4.44,12.28,4.81,18.38-0.13c1.35-0.09,3.03,0.32,3.98-0.33
		c8.72-6,16.34-2.97,24.56,1.71C1475.49,1373.38,1502.66,1388.17,1529.73,1403.14z"/>
	<path class="st126" d="M1777.97,0c-0.19,2.24-0.45,4.48-0.56,6.69c-0.27,5.32-6.47,6.03-9.71,9.15c-0.2,0.1-0.4,0.2-0.6,0.31
		c-20.35,10.42-39.62,22.72-59.38,34.17c-19.67,11.38-39.34,22.75-58.98,34.19c-13.18,7.68-26.14,15.76-39.49,23.16
		c-11.23,6.23-21.96,13.36-33.76,18.56c0-0.69,0-1.38-0.01-2.07c0.02-0.12,0.04-0.25,0.07-0.37c0-0.03,0-0.05,0.02-0.08
		c1.62-8.33,10.1-9.94,14.97-15.01c0.46-1.17,0.17-2.09-0.91-2.77c-0.79-0.31-1.53-0.61-2.31-0.88c-2.2-0.8-4.76-0.54-6.96-1.31
		c-0.47-0.16-0.94-0.38-1.37-0.66c-0.18-0.12-0.36-0.25-0.52-0.39c-0.35-0.29-0.69-0.62-0.99-1.03
		c14.68-8.71,29.34-17.48,44.06-26.1c6.36-3.72,12.9-7.15,19.37-10.71c0.32,0.79,0.6,1.52,0.89,2.2c3.3,7.85,5.07,8.03,14.58,4.07
		c5.3-2.21,10.86-4.08,15.39-7.77c4.43-3.6,7.98-7.42-0.2-10.98c-0.8-0.35-1.56-0.82-1.98-1.49c-0.4-0.62-0.5-1.41-0.1-2.42
		c17.08-11.63,35.41-21.14,53.21-31.59c9.53-5.6,19.03-11.22,28.55-16.85H1777.97z"/>
	<path class="st127" d="M1420.06,1356.73c-4.3,8.77-7.21,10.1-14.55,5.7c-14.23-8.53-27.8-18.2-42.74-25.46
		c-4.96-2.41-5.46-7.2-8.07-10.85c-4.11,1.68-8.03,0.93-11.77-1.06c-19.18-10.24-37.63-21.72-56.14-33.09
		c-1.67-1.03-5.13-1.7-3.18-5.04c0.82-1.41,2.37-0.77,3.57,0.02c18.88,7.64,38.5,12.92,58.08,18.3c0.33,0.09,0.67,0.13,1,0.19
		c16.91,3.05,31.95,8.08,42.33,24.05C1396.12,1341.08,1408.9,1348.36,1420.06,1356.73z"/>
	<path class="st128" d="M2394.76,680.01v12.56c-6.2-2.74-12.24-1.28-17.45,3.04c-2.61,2.16-5.22,4.22-8.23,5.57
		c-0.71,0.32-1.42,0.6-2.18,0.83c-0.56,0.17-1.15,0.32-1.75,0.44c-1.88,4.01-5.73,7.05-5.91,11.91v0.01c0.49,1.2,1,2.4,1.44,3.6
		c1.64,4.35,2.56,8.6-0.37,12.28c-0.89,1.14-2.16,2.22-3.88,3.23c-2.14-1.3-4.27-2.6-6.4-3.9c-0.17-0.27-0.35-0.53-0.49-0.81
		c-0.56-0.95-0.95-1.91-1.17-2.88c-0.32-1.35-0.3-2.69,0.09-4.04c0.3-1.05,0.82-2.11,1.59-3.17c1.36-3.94,2.26-8.04,3.65-11.97
		c0,0,0.02-0.04,0.05-0.12c0.9-2.55,2.01-5.01,3.58-7.31c0.45-0.65,0.56-1.3,0.42-1.89c-0.01-0.03-0.01-0.07-0.02-0.1
		c-0.15-0.53-0.5-1.03-0.97-1.5c0.11-0.08,0.21-0.16,0.33-0.24c2.75-2.03,5.51-4.04,8.25-6.08c0.01,0,0.01,0,0.01,0
		c0.28-0.2,0.54-0.4,0.81-0.61c0.05-0.03,0.11-0.07,0.16-0.11h0.01c0.9-0.67,1.8-1.34,2.7-2.01c3.03-2.26,6.33-3.85,9.95-5.01
		C2384.84,679.82,2390.15,679.29,2394.76,680.01z"/>
	<path class="st129" d="M1287.18,1286.94c-1,0.47-3.58,0.37-2.64,1.53c1.61,2.01,4.35,3.15,6.69,4.53
		c15.81,9.35,31.9,18.24,47.3,28.22c5.28,3.42,11.54,0.99,16.18,4.89c0.45,3.39,1.28,7.06-3.26,8.33c-3.99,1.11-7.81,0.32-8.84-4.18
		c-0.94-4.07-4.15-5-6.93-6.7c-19.58-11.92-39.69-22.96-58.75-35.72c-0.23-1.97-2.62-5.36,2.09-4.51
		C1281.84,1283.83,1285.06,1284.39,1287.18,1286.94z"/>
	<path class="st130" d="M2272.34,1571.73c40.85,24.28,81.63,48.68,122.42,73.06v33.94c-3.7-2.15-7.4-4.32-11.08-6.51
		c-34.22-20.29-68.34-40.75-102.53-61.1c-33.59-20.01-67.21-40-100.82-59.97c-39.18-23.27-78.38-46.5-117.54-69.8
		c-46.47-27.63-92.9-55.34-139.37-82.96c-25.43-15.11-50.94-30.1-76.36-45.23c-33.9-20.16-67.71-40.47-101.64-60.58
		c-46.81-27.74-93.7-55.33-140.53-83.02c-12.88-7.61-25.61-15.48-38.57-22.95c-3.73-2.16-5.52-4.74-5.07-8.99
		c0.93-8.69-1.87-17.68,1.75-26.14c0.13-0.32,0.28-0.62,0.43-0.94h0.01v0.01c36.24,21.54,72.47,43.09,108.71,64.62
		c57.92,34.4,115.84,68.77,173.75,103.19c55.85,33.19,111.66,66.47,167.52,99.65C2099.72,1469.29,2186.06,1520.45,2272.34,1571.73z"
		/>
	<path class="st131" d="M2394.76,797.96v71.8c-42.44-24.84-84.87-49.72-127.3-74.58c-0.88-0.52-1.84-0.91-2.69-1.46
		c-4.96-3.27-4.97-4.28,0.46-7.57c15.71-9.51,31.62-18.67,47.14-28.49c4.75-3,8.36-3,12.98-0.25
		c16.95,10.09,34.05,19.88,51.09,29.82C2382.55,790.79,2388.65,794.38,2394.76,797.96z"/>
	<path class="st132" d="M2231.08,819.8c6.79-7.07,13.5-7.69,21.81-2.56c19.08,11.76,38.58,22.84,57.91,34.19
		c0.88,0.52,1.99,0.81,2.63,1.53c1.85,2.08,6.44,2.09,5.38,6.29c-0.98,3.88-7.69,7.5-11.53,6.47c-1.61-0.43-3.16-1.27-4.62-2.13
		c-22.27-13.06-44.53-26.14-66.74-39.29C2234.24,823.3,2232.09,822.68,2231.08,819.8z"/>
	<path class="st133" d="M2394.76,900.53v17.19c-19.66-11.03-41.94-24.3-47.59-28.88c1.69-1.53,2.66-2.45,3.64-3.33
		c5.77-5.19,11.01-5.27,17.95-0.8C2377.28,890.2,2385.99,895.42,2394.76,900.53z"/>
	<path class="st3" d="M2394.76,688.75v29.54c-6.91-3.83-13.52-8.17-20.45-11.94c-0.66-0.36-1.29-0.76-1.92-1.16
		c-0.28-0.17-0.55-0.35-0.83-0.52c-0.74-0.47-1.48-0.91-2.27-1.28c-1.25-0.6-2.59-1-4.12-0.95c0.33-0.3,0.64-0.6,0.97-0.89
		c0.15-0.15,0.32-0.31,0.48-0.45c2.48-2.28,4.97-4.54,7.36-6.91C2380,688.22,2387.4,686.37,2394.76,688.75z"/>
	<path class="st3" d="M2356.44,733.47c3.95-5.93,0.69-12.92,2.81-19.12c5.12,3.04,10.23,6.08,17.01,10.11
		C2369.09,728.3,2364.77,734.61,2356.44,733.47z"/>
	<path class="st3" d="M2386.91,750.67c2.83-1.95,5.37-3.71,7.85-5.41v10.77C2392.08,754.64,2389.64,752.75,2386.91,750.67z"/>
	<path class="st3" d="M2350.07,718.68c0.74,3.63,0.3,7.27-0.02,10.9c-3.52-0.61-5.96-3.03-9.5-5.21
		C2343.73,721.69,2346.33,719.34,2350.07,718.68z"/>
	<path class="st134" d="M144.63,1071.45c47.01-27.84,93.64-55,140.29-82.12c1.42,2.45,1.19,3.54,0.32,4.05
		c-44.87,26.34-89.76,52.64-134.67,78.89C149.22,1073.07,147.61,1074.27,144.63,1071.45z"/>
	<path class="st135" d="M411.37,1066.3c-0.41,0.86-0.59,2.11-1.28,2.52c-44.51,26.19-89.05,52.31-133.61,78.41
		c-1.16,0.68-2.49,1.14-5.01-0.83c14.69-10.54,30.57-18.34,45.6-27.44c15.4-9.33,30.99-18.35,46.55-27.43
		c15.44-9.01,30.94-17.91,46.41-26.87C410.47,1065.21,410.92,1065.76,411.37,1066.3z"/>
	<path class="st134" d="M380.31,1047.51c-7.89,7.5-131.19,79.35-138.9,80.93c-0.85-2.89,1.81-3.42,3.28-4.28
		c44.72-26.25,89.5-52.4,134.27-78.57C379.41,1046.23,379.86,1046.87,380.31,1047.51z"/>
	<path class="st135" d="M303.05,1166.1c-0.52-1.7,0.68-2.54,1.82-3.2c45.65-26.16,90.56-53.59,136.71-78.88
		c0.27-0.15,1.05,0.64,1.59,0.99c0.48,1.16-0.09,2.1-0.95,2.6c-45.84,26.53-91.69,53.04-137.58,79.47
		C304.39,1167.24,303.6,1166.45,303.05,1166.1z"/>
	<path class="st136" d="M316.28,1009.55c0.54,2.45-1,3.46-2.34,4.25c-45.02,26.38-90.06,52.71-135.13,79.06
		c-2.28-3.82,0.11-4.78,1.67-5.69c29.66-17.32,59.37-34.54,89.05-51.83c13.81-8.05,27.57-16.17,41.32-24.33
		C312.62,1009.96,314.22,1008.82,316.28,1009.55z"/>
	<path class="st134" d="M208.3,1108.42c45.33-26.6,90.66-53.19,136-79.78c1.48-0.87,3.07-1.54,4.67-0.13
		c-6.41,6.46-131.66,80.02-139.57,81.97C209.04,1109.8,208.67,1109.11,208.3,1108.42z"/>
	<path class="st134" d="M104.41,1109.42c-34.79,20.42-69.59,40.83-104.41,61.2v-4.48c34.8-20.45,69.45-40.62,104.09-60.77
		C105.52,1107.83,105.29,1108.91,104.41,1109.42z"/>
	<path class="st135" d="M230.55,1182.34c-0.41,0.86-0.59,2.11-1.28,2.52c-44.51,26.19-89.05,52.31-133.61,78.41
		c-1.16,0.68-2.49,1.14-5.01-0.83c14.69-10.54,30.57-18.34,45.6-27.44c15.4-9.33,30.99-18.35,46.55-27.43
		c15.44-9.01,30.94-17.91,46.41-26.87C229.65,1181.25,230.1,1181.79,230.55,1182.34z"/>
	<path class="st134" d="M199.48,1163.54c-7.89,7.5-131.19,79.35-138.9,80.93c-0.85-2.89,1.81-3.42,3.28-4.28
		c44.72-26.25,89.5-52.4,134.27-78.57C198.58,1162.27,199.03,1162.91,199.48,1163.54z"/>
	<path class="st135" d="M122.23,1282.14c-0.52-1.7,0.68-2.54,1.82-3.2c45.65-26.16,90.56-53.59,136.71-78.88
		c0.27-0.15,1.05,0.64,1.59,0.99c0.48,1.16-0.09,2.1-0.95,2.6c-45.84,26.53-91.69,53.04-137.58,79.47
		C123.57,1283.27,122.77,1282.49,122.23,1282.14z"/>
	<path class="st136" d="M133.12,1129.84C88.77,1155.83,44.4,1181.77,0,1207.72v-4.71c29.55-17.26,59.15-34.41,88.72-51.64
		c13.8-8.04,27.57-16.17,41.32-24.32c1.76-1.04,3.37-2.18,5.43-1.45C136,1128.04,134.46,1129.05,133.12,1129.84z"/>
	<path class="st134" d="M27.48,1224.46c45.33-26.6,90.66-53.19,136-79.78c1.48-0.87,3.07-1.54,4.67-0.13
		c-6.41,6.46-131.66,80.02-139.57,81.97C28.21,1225.84,27.85,1225.15,27.48,1224.46z"/>
	<path class="st137" d="M362.96,1558.88c0.93-14.43,5.83-28.03,8.93-42c0.66-2.97,1.35-5.84,1.16-8.87
		c14.51-6.8,27.53-16.13,41.23-24.3c42.05-25.08,83.89-50.5,125.78-75.85c32.58-19.71,64.96-39.75,97.68-59.22
		c44.12-26.25,87.93-53.01,133.43-76.91c20.5-10.77,41.33-20.7,62.5-30.01c1.88-0.83,3.67-1.82,5.83-1.5
		c-3.37,11.72-6.9,23.39-10.02,35.18c-1.04,3.93-4.06,5.23-6.9,6.94c-20.98,12.61-42.04,25.1-62.99,37.76
		c-71.89,43.41-143.74,86.88-215.61,130.32c-58.49,35.35-116.98,70.7-175.49,106.02C366.77,1557.45,364.8,1558.07,362.96,1558.88z"
		/>
	<path class="st138" d="M736.07,1222.32c-29.34-17.79-58.66-35.6-88.07-53.27c-18.63-11.19-69.08-41.29-69.08-41.29
		c-6.68-5.39-12.62-4.38-19.54-0.23c-58.31,34.93-116.84,69.53-175.16,104.47c-44.03,26.38-87.86,53.11-131.76,79.7
		c-18.9,11.44-37.8,22.89-56.66,34.4c-5.11,3.12-5.28,4.5-0.14,7.76c7.72,4.9,118.06,70.14,161.61,96.61
		c6.79,4.12,11.58,4.41,18.37,0.06c25.15-16.15,50.59-31.87,76.2-47.28c50.65-30.46,101.56-60.52,152.25-90.92
		c44.3-26.55,88.76-52.83,133.89-77.94c2.57-1.43,5.72-2.32,6.26-6.41C741.59,1226.14,738.94,1224.06,736.07,1222.32z
		 M539.41,1331.99c-35.67-22.59-72.14-43.88-108.37-65.56c-3.62-2.17-7.14-5.52-11.64-4.93c0.15,1.16,0.16,2.22-0.08,3.12
		c-0.14,0.52-0.37,0.98-0.7,1.38c-0.33,0.09-0.68,0.17-1.04,0.24c-0.26,0.06-0.51,0.1-0.78,0.13c1.61,3.93,6.16,5.27,9.55,7.32
		c34.65,20.93,69.58,41.38,103.92,62.8c10.22,6.37,10.22,6.58,0,12.65c-52.66,31.24-105.04,62.93-156.96,95.37
		c-5.14,3.21-8.88,2.9-13.89-0.14c-41.62-25.18-83.17-50.47-125.23-74.92c-3.18-1.85-6.25-3.96-9.78-4.78
		c52.82-32.15,105.74-64.15,158.51-96.37c6.77-4.13,24.74-0.53,33.87-1.91c-0.09-0.24-0.18-0.48-0.25-0.74
		c-0.25-0.83-0.37-1.77-0.33-2.83c0-0.09,0.01-0.18,0.01-0.28c1.11-0.57,2.16-0.9,3.16-1.02c-0.71-5.26-4.46-12.39-0.98-14.49
		c53.76-32.42,107.94-64.14,161.84-96.34c4.39-2.63,9.73-4.34,12.37-9.23c1.65,2.92,4.71,4.31,7.45,5.98
		c41.63,25.23,83.46,50.14,124.89,75.7c8.99,5.56,8.94,6.24-0.4,11.57c-55.59,31.74-110.92,63.91-165.52,97.33
		C552.11,1336.26,546.54,1336.5,539.41,1331.99z"/>
	<path class="st139" d="M254.66,28.16c4.88-1.1,7.73,3.82,12.15,4.08c10.05,0.69,17.47,7.34,25.59,11.95
		c126.99,72.18,254.26,143.89,381.13,216.28c80.14,45.73,160.52,91.04,240.8,136.54c5.42,3.07,8.4,3.21,13.95-1.17
		c12.77-10.07,28-16.57,42.08-24.77c41.08-23.9,82.28-47.58,123.42-71.37c42.34-24.49,84.68-49,127.11-73.35
		c18.56-10.65,36.97-21.54,55.39-32.42c3.81-2.25,8.6-6.96,12.13-0.62c3.5,6.29,0.48,11.06-6.42,13.13
		c-35.59,17.88-68.69,40.11-103.64,59.11c-2.79,1.51-4.61,3.96-6.49,6.38c-47.59,27.72-95.6,54.72-143.14,82.52
		c-32.29,18.88-64.9,37.2-97.21,56.03c-1.19,0.67,1.32,1.54,0.25,0.68c-0.23-0.18-0.06-0.49,0.54-0.85
		c32.74-19.45,66.05-37.95,98.89-57.24c42.22-24.8,84.96-48.7,127.33-73.25c3.94-2.28,7.8-7.08,13.51-3.51
		c2,4.1,1.85,8.25,0.31,12.44c-8.05,9.19-19.23,13.92-29.5,19.68c-68.58,38.45-136.29,78.39-204.46,117.55
		c-5.84,3.36-10.59,5.14-15.32-2.39c-3.85-6.13-11.51-8.25-17.65-11.79c-77.94-44.85-156.31-88.95-234.51-133.34
		c-95.38-54.15-190.85-108.16-286.17-162.42c-39.66-22.58-79.45-44.93-119.1-67.54c-4.45-2.54-8.94-5.05-10.96-10.21
		C254.66,34.92,254.66,31.54,254.66,28.16z"/>
	<path class="st140" d="M1170.42,314c-54.72,30.42-108.92,61.76-162.99,93.32c-23.21,13.55-46.55,26.89-69.85,40.29
		c-2.63,1.51-5.07,3.49-8.25,3.85c-3.71-4.99-8.47-8.63-13.9-11.69c-81.54-45.88-162.77-92.32-244.37-138.09
		c-63.21-35.45-126.21-71.27-189.3-106.92c-72.28-40.83-144.72-81.37-216.86-122.44c-4.2-2.39-8.38-4.6-10.09-9.53
		c0-3.36,0-6.71,0-10.07c4.51-3.85,8.37-0.76,12.08,1.36c59.36,34.04,118.99,67.62,178.58,101.25
		c82.13,46.35,163.95,93.24,246.18,139.4c55.51,31.16,110.91,62.55,166.07,94.35c22.41,12.92,45.39,24.85,67.19,38.8
		c4.16,2.66,6.94,1.11,10.21-0.74c31.3-17.8,62.42-35.92,93.63-53.89c37.41-21.54,74.55-43.55,112.22-64.63
		c7.72-4.32,15.22-9.01,22.93-13.34c2.89-1.62,5.93-4.25,8.63,0.36C1174.51,302.08,1174.82,308.31,1170.42,314z"/>
	<path class="st141" d="M1170.45,293.93c-25.02,14.39-50.04,28.77-75.05,43.17c-23.84,13.73-47.68,27.43-71.48,41.23
		c-23.21,13.45-46.33,27.04-69.53,40.51c-7.05,4.09-14.33,7.8-21.3,12.02c-4.11,2.48-7.17,0.33-10.36-1.47
		c-15.38-8.68-30.71-17.44-46.06-26.18c-18.59-10.59-37.18-21.19-55.76-31.79c-28.03-15.98-56.02-32.04-84.1-47.93
		c-18.92-10.71-38.01-21.12-56.96-31.77c-22.8-12.82-45.54-25.73-68.28-38.64c-22.75-12.91-45.47-25.85-68.19-38.8
		c-21.84-12.44-43.63-24.96-65.49-37.37c-18.02-10.23-36.14-20.29-54.16-30.53c-27.76-15.77-55.43-31.69-83.21-47.43
		c-18.92-10.72-37.97-21.2-56.91-31.86c-6.21-3.5-12.32-7.19-18.41-10.88c-3.22-1.95-6.34-4.06-10.39-3.48
		c-0.04-4.81-0.09-9.62-0.13-14.42c15.81,10.63,32.74,19.32,49.25,28.73c21.53,12.28,42.98,24.72,64.53,36.97
		c18.6,10.57,37.33,20.91,55.94,31.47c38.99,22.12,77.9,44.38,116.91,66.47c43.15,24.44,86.41,48.68,129.54,73.14
		c32.19,18.26,64.01,37.18,96.44,55c32.45,17.83,64.41,36.52,96.66,54.69c19.53,11,38.88,22.32,58.45,33.24
		c3.79,2.11,5.22,5.03,5.08,8.71c3.31,0.96,5.23-0.68,7.2-1.81c45.35-26.03,90.96-51.62,135.9-78.33
		c32.4-19.26,65.81-36.76,97.88-56.57c0.55-0.34,1.31-0.35,1.97-0.52C1171.7,290.96,1171.69,292.44,1170.45,293.93z"/>
	<path class="st142" d="M1170.45,293.93c-0.02-1.48-0.03-2.95-0.05-4.43c-0.04-4.59-0.07-9.18-0.1-13.77
		c-0.98-1.54-0.79-3.06,0.08-4.56c-0.07-3.44,1.63-5.45,4.67-7.08c35.82-19.22,69.65-41.92,105.91-60.39
		c5.58-0.07,5.44,4.09,5.34,7.71c-0.15,5.76,0.82,11.36,1.68,16.99c0.04,6.12,1,12.3-0.88,18.33c-18,10.66-35.78,21.73-54.06,31.88
		c-18.33,10.17-36.36,20.82-54.43,31.43c-2.61,1.53-5.46,2.65-8.2,3.96C1170.43,307.31,1170.44,300.62,1170.45,293.93z"/>
	<path class="st143" d="M254.79,62.79c12.3,7.21,24.51,14.57,36.9,21.61c36.33,20.62,72.71,41.15,109.12,61.64
		c23.68,13.33,47.5,26.43,71.17,39.78c29.29,16.52,58.48,33.22,87.74,49.78c22.47,12.71,45.01,25.29,67.48,37.99
		c24.54,13.87,49.03,27.84,73.59,41.69c23.68,13.34,47.46,26.5,71.12,39.87c26.02,14.7,51.95,29.57,77.93,44.34
		c18.6,10.57,37.22,21.12,55.84,31.65c5.92,3.34,11.74,6.9,17.88,9.78c4.81,2.25,6.48,5.58,5.77,10.54
		c-1.81,1.68-3.21-0.03-4.49-0.76c-54.08-30.88-108.02-62-162.19-92.72c-56.54-32.07-113.32-63.72-169.94-95.67
		c-45.35-25.59-90.57-51.41-135.9-77.04c-47.1-26.64-94.27-53.16-141.4-79.74c-18.08-10.2-36.1-20.52-54.29-30.52
		C255.99,72.18,253.3,68.74,254.79,62.79z"/>
	<path class="st107" d="M1287.11,246.73c-4.05-5.75-1.48-12.21-1.98-18.34c13.71-1.78,23.99-10.89,35.39-17.25
		c23.75-13.24,46.86-27.64,70.7-40.75c5.47-3.01,7.23-10.2,14.06-11.16c4.7,0.22,8.49-2.14,12.32-4.36
		c30.06-17.4,59.95-35.1,90.4-51.8c5.76-3.16,7.93-9.87,14.36-11.61c0.53,0.08,1.07,0.13,1.6,0.13c0.7,21.82,3.16,16.42-14.45,26.62
		c-67.92,39.34-135.92,78.54-203.89,117.8C1299.45,239.57,1293.28,243.16,1287.11,246.73z"/>
	<path class="st99" d="M1669.48,48.44c2.27,3.17,6.35,1.75,9.21,3.67c2.81,1.88,3.88,4.08,1.64,6.66c-2.87,3.31-5.77,7.02-9.47,9.08
		c-5.86,3.26-12.4,5.31-18.67,7.83c-3.88,1.56-7.96,2.77-11.48-0.39c-3.71-3.33,0.35-6.95,0.2-10.46
		C1649.87,58.39,1659.38,52.89,1669.48,48.44z"/>
	<path class="st144" d="M1593.89,109.84c-6.49,4.32-12.72,8.96-18.4,14.31c-3.82,1.16-7.59,2.46-11.46,3.45
		c-3.6,0.92-7.49,1.61-9.94-2.17c-2.11-3.26-0.84-6.35,1.5-9.12c0.63-0.75,0.99-1.72,1.48-2.6c4.81-4.42,10.61-7.24,16.44-9.97
		c5.43-1.66,10.86-1.63,16.29-0.02C1591.65,105.43,1596.9,104.88,1593.89,109.84z"/>
	<path class="st97" d="M254.24,89.68c-9.45,3.78-18.89,2.8-28.32-0.1c7.04-0.49,14.19,0.75,21.12-1.9
		C249.42,86.79,252.5,86.68,254.24,89.68z"/>
	<path class="st144" d="M1152.26,347.06c0.81,1.01,1.46,2.26,2.48,2.99c1.85,1.33,3.06,2.56,0.93,4.56
		c-1.45,1.36-3.04,2.84-5.19,1.99c-2.81-1.12-1.17-3.18-0.77-4.96c0.21-0.96,0.27-1.95,0.4-2.93
		C1150.82,348.16,1151.54,347.61,1152.26,347.06z"/>
	<path class="st107" d="M1524.05,85.09c-2.64-5.35-2.92-10.68,0.13-15.98C1524.14,74.44,1524.1,79.76,1524.05,85.09z"/>
	<path class="st99" d="M1589.8,103.71c-5.43,0.01-10.86,0.01-16.29,0.02c0.9-1.5,2.31-2.02,3.97-2.09
		C1581.59,102.29,1586.18,100.11,1589.8,103.71z"/>
	<path class="st144" d="M1491.67,162.98c-2.63,5.3-7.73,6.97-12.92,9.25C1481.28,165.1,1481.97,164.62,1491.67,162.98z"/>
	<path class="st144" d="M1229.03,310.57c-0.37,2.21-1.88,3.23-4.09,3.29c-1.11,0.03-1.93-0.61-1.66-1.82
		c0.46-2.05,1.42-3.73,3.93-3.51C1228.3,308.64,1228.98,309.3,1229.03,310.57z"/>
	<path class="st144" d="M1491.44,163.25c1.22-1.87,1.95-3.92,4.45-3.39c0.35,0.07,0.89,1.05,0.76,1.39
		C1495.7,163.73,1493.35,162.47,1491.44,163.25z"/>
	<path class="st106" d="M307.71,1552.91c0.02,0.66-0.02,1.32,0.09,1.97c1.57,9.34,1.58,9.34-8.29,10.12
		c-5.34-0.76-9.55-4.1-14.3-6.22c-1.93-1.51-4.2-2.5-6.14-4c-5.25-2.73-10.63-5.27-14.3-10.2c-2.76-2.92-9.37-4.52-6.13-9.81
		c3.15-5.14,9.12-4.93,14.58-2.61C284.96,1538.68,296.62,1545.31,307.71,1552.91z"/>
	<path class="st119" d="M273.22,1532.16c-5.24-0.59-9.53,1.95-13.95,4.26c0.54,3.59,4.47,4.91,5.5,8.15
		c-10.96-4.64-21.21-10.66-30.84-17.52c-6.6-4.7-15.05-6.48-20.3-13.15c5.72,1.31,11.4,2.96,17.47,2.96
		c1.56-4.78-2.14-7.73-3.05-11.44c8.2,2.59,14.8,8.04,22.03,12.34C257.88,1522.41,265.51,1527.35,273.22,1532.16z"/>
	<path class="st141" d="M1405.57,161.07c-0.33,0.05-0.86-0.01-0.98,0.18c-8.34,13.38-23.54,17.23-35.76,24.97
		c-23.98,15.17-48.96,28.76-73.49,43.08c-3.76,2.2-7.21,4.06-10.21-0.91c-1.95-6.2-3.02-12.53-1.56-18.94
		c0.66-2.9-0.24-4.51-2.61-5.75c5.68-1.5,8.23-4.61,5.12-11.01c-3.8-0.85-6.88,1.69-9.8,3.52c-37.11,23.31-75.47,44.52-113.44,66.33
		c-37.99,21.82-75.83,43.91-113.91,65.58c-28.04,15.95-55.71,32.54-83.65,48.66c-9.71,5.6-19.72,10.69-29.61,15.98
		c-3.94,2.11-7.95,4.11-8.44,9.35c-0.31,3.34-2.12,3.93-4.92,2.51c-1.21-0.62-2.49-1.11-3.67-1.78
		c-22.41-12.8-44.8-25.65-67.22-38.43c-20.95-11.94-41.93-23.83-62.91-35.73c-29.54-16.76-59.07-33.52-88.63-50.25
		c-22.17-12.55-44.41-24.98-66.55-37.58c-26.86-15.29-53.62-30.76-80.48-46.05c-22.44-12.77-45-25.32-67.45-38.06
		c-28.06-15.93-56.02-32.01-84.09-47.92c-18.62-10.55-37.38-20.86-56.03-31.37c-16.87-9.5-33.75-18.98-50.47-28.74
		c-9.35-5.46-19.47-9.64-28.02-16.48c1.13-2.8,4.26-4.59,4.05-8.06c21.35,13.98,44.29,25.18,66.3,38.01
		c22.31,13,44.76,25.76,67.2,38.52c17.43,9.91,34.98,19.62,52.42,29.52c28.08,15.93,56.11,31.94,84.16,47.91
		c25.69,14.63,51.4,29.24,77.09,43.87c28.34,16.14,56.66,32.33,85.03,48.44c22.17,12.58,44.4,25.05,66.59,37.6
		c29.58,16.73,59.15,33.48,88.7,50.26c19.8,11.24,39.63,22.44,59.3,33.9c4.36,2.54,7.57,2.36,11.98-0.24
		c30.15-17.76,60.48-35.22,90.81-52.67c33.29-19.14,66.71-38.05,99.95-57.27c26.76-15.48,53.28-31.37,80.01-46.9
		c31.73-18.43,63.6-36.64,95.36-55.01c36.76-21.26,73.47-42.6,110.21-63.9C1411.36,131.21,1411.92,146.17,1405.57,161.07z"/>
	<path class="st145" d="M1405.57,161.07c0.14-14.96,0.27-29.92,0.41-44.87c34.19-19.86,68.36-39.73,102.57-59.54
		c3.79-2.2,7.8-4.02,11.71-6.02c0.01,9.71,0.03,19.42,0.01,29.13c-0.01,4.03-0.1,8.06,2.09,11.69c-1.4,7.35-6.9,10.56-12.91,13.96
		c-31.82,17.98-63.42,36.35-95.14,54.51C1411.66,161.44,1409.05,165.11,1405.57,161.07z"/>
	<path class="st119" d="M279.07,1554.78c2.91,0.02,4.94,1.36,6.14,4C282.29,1558.77,280.26,1557.42,279.07,1554.78z"/>
	<path class="st146" d="M272.08,827.03c-2.36,1.78-4.76,2.67-7.55,1.73c-2.32-0.79-4.39-2.34-4.97-4.74
		c-0.6-2.49,1.97-3.26,3.5-4.42c16.7-12.7,342.88-210.51,366.35-223.53c7.62-4.23,9.98-3.95,13.94,1.31
		c1.54,2.04,1.51,3.71-0.78,4.99c-2.67,1.5-5.4,2.87-8.11,4.3C588.46,630.93,279.9,821.12,272.08,827.03z"/>
	<path class="st109" d="M990.2,810.51c-8.67,4.86-17.13,9.68-25.65,14.38c-43.41,23.95-86.29,48.8-128.83,74.24
		c-4.37,2.61-8.91,4.95-13.29,7.55c-7.96,4.72-7.97,4.75-15.19-3.33c11.44-8.61,24.23-14.93,36.46-22.09
		c32.53-19.04,65.17-37.86,97.82-56.69c10.59-6.11,21.37-11.87,31.96-17.97C981.67,801.88,982.01,801.83,990.2,810.51z"/>
	<path class="st147" d="M684.12,992.95c-21.39,13.68-42.58,27.66-62.91,42.9c-1.61,1.21-3.41,2.41-5.3,2.93
		c-4,1.1-6.58-2.04-8.32-4.54c-1.79-2.57,1.59-3.71,3.39-5.13c12.02-9.43,25.22-17.12,37.68-25.91
		c7.73-5.46,15.42-10.99,23.13-16.48c14.5-7.51,27.47-17.47,41.4-25.9c18-10.88,35.75-22.16,53.72-33.09
		c7.25-4.41,7.38-4.19,15.22,3.48C749.19,951.78,716.21,971.68,684.12,992.95z"/>
	<path class="st148" d="M1397.59,1391.25c4.7-4.3,4.98-10.93,8.49-15.93c4.49-6.39,4.32-6.71,10.94-2.76
		c18.67,11.11,37.3,22.31,55.88,33.57c9.58,5.8,19.04,11.81,28.55,17.72c-8.82,13.77-14.56,28.33-11.64,45.12
		c-2.68,2.41-4.39-0.27-6.12-1.4c-26.63-17.46-53.14-35.13-79.85-52.47c-4.49-2.92-6.88-6.26-6.54-11.54
		C1395.37,1399.41,1393.4,1395.26,1397.59,1391.25z"/>
	<path class="st149" d="M1397.59,1391.25c-0.09,4.1-0.18,8.21-0.27,12.31c-2.95-2-6.31-2.12-9.7-2.2
		c-12.62-0.28-22.1-7.07-30.74-15.25c-5.11-4.85-10.83-9.29-14.43-15.46c-2.42-4.15-7.61-4.3-10.09-8.05
		c14.39,1.39,27.34,7.17,40.12,13.35C1381.33,1380.23,1389.6,1385.53,1397.59,1391.25z"/>
	<path class="st7" d="M1639.12,686.01c27.26,16.36,54.51,32.72,81.77,49.08c1.74,14.19,0.38,28.44,0.76,42.66
		c0.22,8.16-5.31,4.7-8.25,3.28c-9.8-4.72-19.06-10.48-28.37-16.12c-78.23-47.41-157.17-93.61-235.66-140.56
		c-4.6-2.75-9.9-4.7-12.93-9.62c-5.31-6.52-13.29-9.13-20.24-12.99c-7.75-4.31-11.49-9.2-10.56-18.45c0.95-9.42,0.21-19,0.29-28.51
		c0.02-2.63-0.69-5.53,2.03-7.46c13.43,4.44,24.28,13.51,36.3,20.43c62.14,35.8,123.51,72.9,185.11,109.62
		C1633.14,679.64,1637.19,681.65,1639.12,686.01z"/>
	<path class="st4" d="M1639.12,686.01c-22.23-13.1-44.47-26.16-66.67-39.3c-28.94-17.12-57.84-34.3-86.78-51.43
		c-22.79-13.49-45.66-26.86-68.36-40.5c-3.36-2.02-7.66-3.21-9.35-7.46c12.15-6.92,24.3-13.83,36.44-20.75
		c10.25,3.08,18.54,9.8,27.53,15.11c68.63,40.55,137.12,81.36,205.62,122.13c11.07,6.59,21.99,13.42,32.97,20.14
		c-20.61,0.09-41.22,0.12-61.83,0.33C1645.47,684.33,1641.87,683.06,1639.12,686.01z"/>
	<path class="st4" d="M1436.44,614.74c8.7,2.41,15.69,8.06,23.26,12.53c44.55,26.28,89,52.74,133.46,79.18
		c40.07,23.83,80.11,47.71,120.15,71.58c2,1.19,3.88,2.68,7.57,3.03c0-15.64,0-30.8,0-45.96c0.62-0.04,1.23-0.01,1.84,0.07
		c0.02,15.78,0.03,31.56,0.05,47.35c-2.9,2.63-6.45,1.49-9.73,1.55c-9.83,0.18-19.66,0.15-29.49,0.21
		c-5.1-0.33-8.49-4.09-12.53-6.45c-33.47-19.52-66.65-39.54-99.8-59.61c-47.98-29.05-96.41-57.35-144.65-85.98
		c-2.92-1.73-5.78-3.57-8.66-5.35C1423.3,621.62,1430.71,619.45,1436.44,614.74z"/>
	<path class="st99" d="M1593.89,109.84c0.21-3.09-2.77-4.06-4.09-6.13C1596.09,104.43,1596.5,105.04,1593.89,109.84z"/>
	<path class="st0" d="M591.98,1140.01c16.72,9.75,33.57,19.31,50.14,29.31c30.84,18.6,61.53,37.46,92.3,56.18
		c1.46,0.89,3.01,1.59,3.69,3.95c-8.11,6.38-17.65,10.86-26.7,15.99c-52.3,29.7-103.89,60.61-155.46,91.56
		c-5.05,3.03-8.55,3.28-13.77,0.07c-38.19-23.52-134.68-78.74-136.31-80.66c-2.29-3.9,0.45-5.3,3.24-6.96
		c12.55-7.49,25.01-15.14,37.55-22.64c37.64-22.5,75.26-45.06,113.01-67.38C570.5,1153.03,581.67,1147.23,591.98,1140.01z"/>
	<path class="st0" d="M531.07,1333.77c4.49,2.75,10.04,4.34,13.57,9.94c-8.74,5.27-17.12,10.31-25.49,15.38
		c-43.33,26.22-86.68,52.42-129.99,78.67c-6.1,3.7-12.13,7.53-18.06,11.5c-3.24,2.18-5.76,1.97-9.19-0.12
		c-35.16-21.34-70.45-42.48-105.74-63.61c-11.96-7.16-24.04-14.12-36.06-21.17c26.68-16.32,53.34-32.68,80.04-48.96
		c30.21-18.42,58.03-35.24,88.23-53.68c4.69-2.87,9.18-5.95,15.07-3.83C403.44,1257.9,500.04,1314.79,531.07,1333.77z"/>
	<path class="st150" d="M1170.38,271.17c-0.03,1.52-0.05,3.04-0.08,4.56c-20.18,10.52-39.6,22.36-59.25,33.79
		c-21.42,12.45-42.95,24.71-64.42,37.08c-28.53,16.44-57.03,32.93-85.57,49.34c-11.36,6.53-22.57,13.33-34.95,18.07
		c14.33-12.19,31.18-20.47,47.29-29.87c16.42-9.58,32.82-19.19,49.3-28.65c16.2-9.29,32.53-18.34,48.74-27.62
		c16.49-9.44,32.84-19.14,49.35-28.54C1137.31,289.93,1153.3,279.59,1170.38,271.17z"/>
	<g>
		<g>
			<path class="st151" d="M2376.55,1420.69l18.21,10.71v7.12l-24.18-14.21l-6-3.53l-114.71-67.46l-6.01-3.53l-109.74-64.55
				l-6.02-3.54l-107.73-63.36l-6.01-3.53l-110.18-64.8l-6.01-3.53l-106.61-62.7c-1.46-0.86-1.94-2.73-1.08-4.2
				c0.86-1.46,2.74-1.95,4.19-1.09l109.45,64.37l6.02,3.53l110.18,64.8l6.01,3.54l107.73,63.36h0.01l6.01,3.53l109.74,64.55
				l6.01,3.53l114.71,67.46L2376.55,1420.69z"/>
		</g>
		<g>
			<path class="st151" d="M2365.47,1283.07l29.3,17.09v7.1l-35.26-20.57l-6.04-3.52l-110.18-64.28l-6.03-3.52l-108.17-63.09
				l-6.03-3.52l-110.62-64.54l-6.04-3.52l-107.48-62.7c-1.46-0.86-1.95-2.73-1.11-4.2c0.86-1.47,2.73-1.96,4.21-1.11l110.35,64.37
				h0.01l6.03,3.52h0.01l110.61,64.54l6.04,3.52l108.16,63.1l6.03,3.51l110.18,64.28L2365.47,1283.07z"/>
		</g>
		<g>
			<path class="st151" d="M2357.57,1149.41l37.2,21.89v7.13l-43.16-25.4l-6-3.53l-107.72-63.37l-6.01-3.53l-110.16-64.81l-6.02-3.54
				l-108.14-63.62c-1.46-0.86-1.95-2.74-1.09-4.21s2.74-1.94,4.21-1.08l110.98,65.29l6.02,3.53l110.16,64.81l6.01,3.53l107.72,63.37
				L2357.57,1149.41z"/>
		</g>
		<g>
			<path class="st151" d="M2352.37,1016.55l42.39,24.92v7.12l-48.36-28.42l-6.01-3.54l-110.22-64.77l-6.02-3.53l-105.66-62.1
				c-1.46-0.86-1.94-2.74-1.08-4.21c0.85-1.46,2.74-1.95,4.2-1.09l108.51,63.78l6.02,3.53l110.21,64.77L2352.37,1016.55z"/>
		</g>
		<g>
			<path class="st151" d="M1823.98,1198.26c-1.04,0-2.05-0.53-2.63-1.48c-0.88-1.45-0.42-3.34,1.03-4.22l462.42-281.1
				c1.45-0.88,3.34-0.42,4.22,1.03c0.88,1.45,0.42,3.34-1.03,4.22l-462.42,281.1C1825.07,1198.11,1824.52,1198.26,1823.98,1198.26z"
				/>
		</g>
		<g>
			<path class="st151" d="M2394.76,983.58v7.19l-42.39,25.78l-5.97,3.62l-102.56,62.34l-5.96,3.62l-102.83,62.51l-5.98,3.63
				l-102.74,62.46l-5.96,3.61l-80.64,49.02c-0.5,0.31-1.04,0.45-1.6,0.45c-1.03,0-2.05-0.52-2.62-1.47
				c-0.88-1.45-0.42-3.34,1.02-4.22l77.83-47.31l5.96-3.62l102.72-62.44l5.97-3.63l102.86-62.52l5.96-3.62l102.56-62.35l5.96-3.62
				L2394.76,983.58z"/>
		</g>
		<g>
			<path class="st151" d="M2351.56,1145.88l43.2-26.26v7.17l-37.2,22.61l-5.97,3.62l-102.35,62.22l-5.97,3.63l-103.19,62.74
				l-5.96,3.62l-87.39,53.12c-0.5,0.3-1.05,0.44-1.6,0.44c-1.03,0-2.05-0.52-2.63-1.47c-0.88-1.44-0.42-3.34,1.03-4.22l84.56-51.41
				l5.96-3.61h0.01l103.17-62.72l5.97-3.62l102.39-62.24L2351.56,1145.88z"/>
		</g>
		<g>
			<path class="st151" d="M2359.43,1279.54l35.33-21.47v7.18l-29.3,17.81l-5.97,3.62l-103.67,63.01l-5.96,3.62l-84.73,51.51
				c-0.5,0.31-1.05,0.45-1.6,0.45c-1.03,0-2.05-0.53-2.62-1.48c-0.88-1.44-0.43-3.34,1.02-4.22l81.92-49.79l5.96-3.62l103.63-63
				L2359.43,1279.54z"/>
		</g>
		<g>
			<path class="st151" d="M2370.54,1417.16l24.22-14.72v7.18l-18.21,11.07l-5.97,3.62l-74.5,45.29c-0.5,0.31-1.05,0.45-1.6,0.45
				c-1.03,0-2.05-0.52-2.62-1.47c-0.88-1.45-0.42-3.34,1.02-4.22l71.7-43.58L2370.54,1417.16z"/>
		</g>
	</g>
	<g>
		<g>
			<path class="st151" d="M1100.11,1662.71L908.02,1788.1h-11.25l199.98-130.54c1.42-0.92,3.33-0.52,4.25,0.9
				C1101.93,1659.89,1101.53,1661.78,1100.11,1662.71z"/>
		</g>
		<g>
			<path class="st151" d="M1135.63,1682.19L973.37,1788.1h-11.24l170.14-111.05c1.42-0.92,3.33-0.52,4.25,0.89
				C1137.45,1679.36,1137.05,1681.26,1135.63,1682.19z"/>
		</g>
		<g>
			<path class="st151" d="M1171.14,1701.67l-132.42,86.43h-11.22l140.29-91.57c1.41-0.93,3.33-0.53,4.25,0.89
				C1172.97,1698.84,1172.57,1700.75,1171.14,1701.67z"/>
		</g>
		<g>
			<path class="st151" d="M1206.66,1721.15l-102.57,66.95h-11.23l110.44-72.09c1.42-0.93,3.32-0.53,4.25,0.89
				C1208.48,1718.32,1208.08,1720.23,1206.66,1721.15z"/>
		</g>
		<g>
			<path class="st151" d="M1242.18,1740.63l-72.72,47.47h-11.25l80.61-52.62c1.41-0.92,3.32-0.52,4.25,0.9
				C1244,1737.8,1243.59,1739.7,1242.18,1740.63z"/>
		</g>
		<g>
			<path class="st151" d="M1277.7,1760.1l-42.89,28h-11.22l50.76-33.13c1.41-0.93,3.32-0.53,4.25,0.89
				C1279.51,1757.28,1279.11,1759.18,1277.7,1760.1z"/>
		</g>
		<g>
			<path class="st151" d="M1313.2,1779.59l-13.05,8.51h-11.22l20.92-13.65c1.42-0.93,3.33-0.53,4.26,0.89
				C1315.02,1776.76,1314.62,1778.67,1313.2,1779.59z"/>
		</g>
	</g>
	<g>
		<line class="st152" x1="337.99" y1="860.35" x2="672.8" y2="651.64"/>
		<line class="st152" x1="368.37" y1="877.99" x2="703.18" y2="669.28"/>
		<line class="st152" x1="398.74" y1="895.63" x2="733.56" y2="686.92"/>
		<line class="st152" x1="429.12" y1="913.27" x2="763.93" y2="704.56"/>
		<line class="st152" x1="459.5" y1="930.91" x2="794.31" y2="722.2"/>
		<line class="st152" x1="489.87" y1="948.55" x2="824.68" y2="739.84"/>
	</g>
	<g>
		<line class="st152" x1="858" y1="945.91" x2="1009.68" y2="850.66"/>
		<line class="st152" x1="877.2" y1="957.85" x2="1028.88" y2="862.59"/>
		<line class="st152" x1="896.4" y1="969.78" x2="1048.08" y2="874.53"/>
		<line class="st152" x1="915.6" y1="981.72" x2="1067.29" y2="886.46"/>
	</g>
	<g>
		<line class="st152" x1="664.02" y1="1068.74" x2="815.7" y2="973.49"/>
		<line class="st152" x1="683.22" y1="1080.68" x2="834.9" y2="985.42"/>
		<line class="st152" x1="702.42" y1="1092.61" x2="854.1" y2="997.36"/>
		<line class="st152" x1="721.62" y1="1104.55" x2="873.31" y2="1009.29"/>
	</g>
	<path class="st0" d="M2359.24,714.35c0,0-0.28-5.72,6.63-12.96l6.51,3.79l2.81,8.38L2359.24,714.35z"/>
	<path class="st3" d="M2366.35,688.74c-2.67,1.79-5.15,4.84-7.18,7.93l-5.08-2.78l7.17-4.66L2366.35,688.74z"/>
	<path class="st0" d="M2359.16,696.67c-0.03,0.04-0.05,0.07-0.07,0.11c-3.25,4.94-5.37,9.93-5.37,9.93l-5.01-8.1l-0.54-0.88
		l5.92-3.84L2359.16,696.67z"/>
	<polygon class="st0" points="2359.25,696.71 2359.09,696.78 2352.6,699.75 2348.71,698.6 2348.16,698.44 2342.35,687.45 
		2354.09,693.88 2359.16,696.67 	"/>
	<polygon class="st0" points="2394.76,717.74 2394.76,724.9 2392.84,725.4 2372.53,705.61 2371.66,704.77 2371.46,704.58 	"/>
	<polygon class="st0" points="2386.91,750.67 2394.76,754.83 2394.76,759.17 	"/>
	<polygon class="st0" points="2374.07,723.17 2356.44,733.47 2341.7,723.39 2350.07,718.68 2348.16,717.95 2340.54,721.45 
		2339.23,726.39 2340.54,733.05 2357.74,738.78 2372.12,730.44 2377.82,725.4 	"/>
</g>
</svg>
