<?xml version="1.0" encoding="utf-8"?>
<!-- Generator: Adobe Illustrator 24.3.0, SVG Export Plug-In . SVG Version: 6.00 Build 0)  -->
<svg version="1.1" id="Layer_1" xmlns="http://www.w3.org/2000/svg" xmlns:xlink="http://www.w3.org/1999/xlink" x="0px" y="0px"
	 viewBox="0 0 604.58 449.22" style="enable-background:new 0 0 604.58 449.22;" xml:space="preserve">
<style type="text/css">
	.st0{fill:#DFD7D2;}
	.st1{fill:#FEFEFD;}
	.st2{fill:#D3AF82;}
	.st3{fill:#E0D9D3;}
	.st4{fill:#D3B085;}
	.st5{fill:#D3AF83;}
	.st6{fill:#C83829;}
	.st7{fill:#1F2656;}
	.st8{fill:#D3AF84;}
	.st9{fill:#FFFEFD;}
	.st10{fill:#D2AE83;}
	.st11{fill:#F2D4CE;}
	.st12{fill:#FEFEFC;}
	.st13{fill:#1C2652;}
	.st14{fill:#E75C44;}
	.st15{fill:#E65A41;}
	.st16{fill:#3F5CAA;}
	.st17{fill:#1D2553;}
	.st18{fill:#E75A46;}
	.st19{fill:#C22E27;}
	.st20{fill:#B42C25;}
	.st21{fill:#382648;}
	.st22{fill:#C5B39F;}
	.st23{fill:#DFD9D3;}
	.st24{fill:#EFE9E6;}
	.st25{fill:#C5B29E;}
	.st26{fill:#D4C8BE;}
	.st27{fill:#E0D8D3;}
	.st28{fill:#F59083;}
	.st29{fill:#DFD9D4;}
	.st30{fill:#F69386;}
	.st31{fill:#F59386;}
	.st32{fill:#3E5DAA;}
	.st33{fill:#D4CAC1;}
	.st34{fill:#C6B39B;}
	.st35{fill:#F69588;}
	.st36{fill:#F59285;}
	.st37{fill:#E65841;}
	.st38{fill:#3E5CAA;}
	.st39{fill:#F59385;}
	.st40{fill:#DB6C59;}
	.st41{fill:#C4B19A;}
	.st42{fill:#DFD8D2;}
	.st43{fill:#415AA3;}
	.st44{fill:#1E2756;}
	.st45{fill:#C5B19B;}
	.st46{fill:#1F2756;}
	.st47{fill:#3C5AA8;}
	.st48{fill:#CAB4A2;}
	.st49{fill:#DD6D5A;}
	.st50{fill:#DFD6D0;}
	.st51{fill:#C7B4A1;}
	.st52{fill:#C22F27;}
	.st53{fill:#3B59A7;}
	.st54{fill:#E0D9D4;}
	.st55{fill:#E0DAD4;}
	.st56{fill:#DDD8D1;}
	.st57{fill:#BB3227;}
	.st58{fill:#425EA9;}
	.st59{fill:#4360AB;}
	.st60{fill:#BD3427;}
	.st61{fill:#BC3327;}
	.st62{fill:#3F5DAA;}
	.st63{fill:#FEFDFD;}
	.st64{fill:#FDFCFB;}
	.st65{fill:#FCFAF9;}
	.st66{fill:#F8FCFD;}
	.st67{fill:#374162;}
	.st68{fill:#393656;}
	.st69{fill:#3B4769;}
	.st70{fill:#C13428;}
	.st71{fill:#EA6954;}
	.st72{fill:#DFD8D4;}
	.st73{fill:#332850;}
	.st74{fill:#D7705D;}
	.st75{fill:#DD6C5A;}
	.st76{fill:#E8958B;}
	.st77{fill:#DED4CE;}
	.st78{fill:#F9F8F9;}
	.st79{fill:#DBD1CB;}
	.st80{fill:#F8FAFC;}
	.st81{fill:#FBFBFB;}
	.st82{fill:#7F86B9;}
	.st83{fill:#DED7D2;}
	.st84{fill:#F9F8F8;}
	.st85{fill:#F9F8F6;}
	.st86{fill:#F9F8F7;}
	.st87{fill:#FDFBFA;}
	.st88{fill:#DFD6D1;}
	.st89{fill:#FDFCFA;}
	.st90{fill:#FEFCFA;}
	.st91{fill:#DED8D3;}
	.st92{fill:#FDFBF9;}
	.st93{fill:#DBD1CC;}
	.st94{fill:#DCD2CD;}
	.st95{fill:#DAD2CE;}
	.st96{fill:#D9D0CB;}
	.st97{fill:#FEFDFC;}
	.st98{fill:#FAF9F8;}
	.st99{fill:#C5B099;}
	.st100{fill:#C6B199;}
	.st101{fill:#C53027;}
	.st102{fill:#252A4D;}
	.st103{fill:#262C4F;}
	.st104{fill:#262B4D;}
	.st105{fill:#272D4F;}
	.st106{fill:#F2EFEE;}
	.st107{fill:#DA6B5B;}
	.st108{fill:#EE9789;}
	.st109{fill:#7974A7;}
	.st110{fill:#F6F7F8;}
	.st111{fill:#FAF8F7;}
	.st112{fill:#DBD2CC;}
	.st113{fill:#DFD5CF;}
	.st114{fill:#EEE7E4;}
	.st115{fill:#FDFBFB;}
	.st116{fill:#FCFBFB;}
	.st117{fill:#FAF9F9;}
	.st118{fill:#232854;}
	.st119{fill:#222957;}
	.st120{fill:#EFECED;}
	.st121{fill:#F1EEF0;}
	.st122{fill:#3F415F;}
	.st123{fill:#292F55;}
	.st124{fill:#20274A;}
	.st125{fill:#21284C;}
	.st126{fill:#FBF9F9;}
	.st127{fill:#202752;}
	.st128{fill:#FDFAF8;}
	.st129{fill:#40425B;}
	.st130{fill:#262D50;}
	.st131{fill:#FBFAF9;}
	.st132{fill:#F9FAFB;}
	.st133{fill:#1D2653;}
	.st134{fill:#F1F2F6;}
	.st135{fill:#F8F8F8;}
	.st136{fill:#353459;}
	.st137{fill:#282552;}
	.st138{fill:#35446B;}
	.st139{fill:#FBFAFA;}
	.st140{fill:#1F2752;}
	.st141{fill:#F4F5F6;}
	.st142{fill:#EEEFF1;}
	.st143{fill:#393E5E;}
	.st144{fill:#272245;}
	.st145{fill:#1A284C;}
	.st146{fill:#212956;}
	.st147{fill:#EEEDEF;}
	.st148{fill:#272244;}
	.st149{fill:#373A59;}
	.st150{fill:#1D2D50;}
	.st151{fill:#242957;}
	.st152{fill:#F9F7F4;}
	.st153{fill:#4361AB;}
	.st154{fill:#586AAA;}
	.st155{fill:#202855;}
	.st156{fill:#F8F6F4;}
	.st157{fill:#F8F7F5;}
	.st158{fill:#1F2249;}
	.st159{fill:#1D2248;}
	.st160{fill:#E1D7D0;}
	.st161{fill:#FBF9F7;}
	.st162{fill:#FDF6F3;}
	.st163{fill:#FCF8F6;}
	.st164{fill:#212957;}
	.st165{fill:#FCFCFA;}
	.st166{fill:#DDD1CA;}
	.st167{fill:#DED1C9;}
	.st168{fill:#2A2B4D;}
	.st169{fill:#26294C;}
	.st170{fill:#26274A;}
	.st171{fill:#2B2E51;}
	.st172{fill:#212045;}
	.st173{fill:#FEFCFB;}
	.st174{fill:#F7F4F2;}
	.st175{fill:#FBF8F5;}
	.st176{fill:#E9E4E0;}
	.st177{fill:#D9B07A;}
	.st178{fill:#395FAC;}
	.st179{fill:#232E5C;}
	.st180{fill:#242D5E;}
	.st181{fill:#1E2450;}
	.st182{fill:#1D244F;}
	.st183{fill:#E7573B;}
	.st184{fill:#E8563B;}
	.st185{fill:#FDFDFC;}
	.st186{fill:#F37B76;}
	.st187{fill:#B52B25;}
	.st188{fill:#B22925;}
	.st189{fill:#3E223E;}
	.st190{fill:#DB5B44;}
	.st191{fill:#D0C8BC;}
	.st192{fill:#B42724;}
	.st193{fill:#B22724;}
	.st194{fill:#243F8A;}
	.st195{fill:#A72422;}
	.st196{fill:#B22A24;}
	.st197{fill:#CDC6BC;}
	.st198{fill:#171C42;}
	.st199{fill:#232640;}
	.st200{fill:#272941;}
	.st201{fill:#CFB085;}
	.st202{fill:#E6563B;}
	.st203{fill:#243E89;}
	.st204{fill:#27408D;}
	.st205{fill:#23428C;}
	.st206{fill:#B42625;}
	.st207{fill:#283676;}
	.st208{fill:#28387A;}
	.st209{fill:#E6563A;}
	.st210{fill:#D2C9BD;}
	.st211{fill:#D2C8BC;}
	.st212{fill:#D1C8BE;}
	.st213{fill:#A93026;}
	.st214{fill:#C0705A;}
	.st215{fill:#40182A;}
	.st216{fill:#471926;}
	.st217{fill:#CCBBB7;}
	.st218{fill:#D5CBC0;}
	.st219{fill:#D0C8BB;}
	.st220{fill:#FCFAF8;}
	.st221{fill:#FBF9F6;}
	.st222{fill:#F9F8F5;}
	.st223{fill:#FCFCF9;}
	.st224{fill:#D3C9BD;}
	.st225{fill:#D1C9BE;}
	.st226{fill:#FBFAF6;}
	.st227{fill:#D2CBC2;}
	.st228{fill:#D5CFC5;}
	.st229{fill:#D6CABE;}
	.st230{fill:#FCFBF7;}
	.st231{fill:#F9F8F4;}
	.st232{fill:#C16663;}
	.st233{fill:#491D2B;}
	.st234{fill:#B72D25;}
	.st235{fill:#B52C25;}
	.st236{fill:#AB2E24;}
	.st237{fill:#FAF9F6;}
	.st238{fill:#FDFBF8;}
	.st239{fill:#FBF9F4;}
	.st240{fill:#FDFCF9;}
	.st241{fill:#FCFAF6;}
	.st242{fill:#E2DEDC;}
	.st243{fill:#D2AC7A;}
	.st244{fill:#305DAA;}
	.st245{fill:#D5CCC7;}
	.st246{fill:#1F2352;}
	.st247{fill:#1D234F;}
	.st248{fill:#DF5442;}
	.st249{fill:#E05241;}
	.st250{fill:#B02C25;}
	.st251{fill:#2D1C3F;}
	.st252{fill:#DE5240;}
	.st253{fill:#DE523F;}
	.st254{fill:#C6CEDB;}
	.st255{fill:#F4867C;}
	.st256{fill:#F4867B;}
	.st257{fill:#F4847A;}
	.st258{fill:#F4867A;}
	.st259{fill:#FEFEFE;}
	.st260{fill:#21295A;}
	.st261{fill:#202656;}
	.st262{fill:#FCFCFB;}
	.st263{fill:#FCFCFC;}
	.st264{fill:#FDFDFD;}
	.st265{fill:#FCFDFD;}
	.st266{fill:#FBFBFA;}
	.st267{fill:#CA849A;}
	.st268{fill:#F8F8F9;}
	.st269{fill:#FBFCFC;}
	.st270{fill:#B22C27;}
	.st271{fill:#8793AC;}
	.st272{fill:#B62925;}
	.st273{fill:#261F4D;}
	.st274{fill:#231E4C;}
	.st275{fill:#232951;}
	.st276{fill:#23224C;}
	.st277{fill:#262455;}
	.st278{fill:#201C4A;}
	.st279{fill:#231F4E;}
	.st280{fill:#27224E;}
	.st281{fill:#211C4C;}
	.st282{fill:#282558;}
	.st283{fill:#262A5B;}
	.st284{fill:#25224F;}
	.st285{fill:#222757;}
	.st286{fill:#262E5F;}
	.st287{fill:#202250;}
	.st288{fill:#1F1F4C;}
	.st289{fill:#212958;}
	.st290{fill:#1C1F47;}
	.st291{fill:#212653;}
	.st292{fill:#1F234F;}
	.st293{fill:#241E4D;}
	.st294{fill:#241F4D;}
	.st295{fill:#212753;}
	.st296{fill:#202249;}
	.st297{fill:#282D5C;}
	.st298{fill:#36579A;}
	.st299{fill:#31569D;}
	.st300{fill:#221D4B;}
	.st301{fill:#252150;}
	.st302{fill:#3B60AC;}
	.st303{fill:#DFB989;}
	.st304{fill:#E54A34;}
	.st305{fill:#F38279;}
	.st306{fill:#F4837B;}
	.st307{fill:#F4837A;}
	.st308{fill:#E44933;}
	.st309{fill:#E3E3E2;}
	.st310{fill:#E3E2E2;}
	.st311{fill:#E34932;}
	.st312{fill:#E74833;}
	.st313{fill:#E44832;}
	.st314{fill:#E5E5E3;}
	.st315{fill:#E44632;}
	.st316{fill:#E54732;}
	.st317{fill:#E44732;}
	.st318{fill:#E54832;}
	.st319{fill:#2B1D4C;}
	.st320{fill:#2B1D4D;}
	.st321{fill:#DEB786;}
	.st322{fill:#DFB889;}
	.st323{fill:#2B2A4A;}
	.st324{fill:#2B2A49;}
	.st325{fill:#DFBA89;}
	.st326{fill:#322D48;}
	.st327{fill:#37244E;}
	.st328{fill:#38224C;}
	.st329{fill:#34244F;}
	.st330{fill:#301D4E;}
	.st331{fill:#36244E;}
	.st332{fill:#382149;}
	.st333{fill:#2F1E48;}
	.st334{fill:#301F4A;}
	.st335{fill:#251747;}
	.st336{fill:#262851;}
	.st337{fill:#252751;}
	.st338{fill:#201C48;}
	.st339{fill:#2B2850;}
	.st340{fill:#2B2D53;}
	.st341{fill:#1A1A48;}
	.st342{fill:#301F4B;}
	.st343{fill:#371F4B;}
	.st344{fill:#291747;}
	.st345{fill:#301F48;}
	.st346{fill:#2A194A;}
	.st347{fill:#371F48;}
	.st348{fill:#2D2951;}
	.st349{fill:#1A163F;}
	.st350{fill:#2C2B51;}
	.st351{fill:#31315B;}
	.st352{fill:#231E4D;}
	.st353{fill:#272C57;}
	.st354{fill:#24284E;}
	.st355{fill:#2C2B4E;}
	.st356{fill:#1E2250;}
	.st357{fill:#131830;}
	.st358{fill:#1D1C2C;}
	.st359{fill:#FFFEFC;}
	.st360{fill:#1E2455;}
	.st361{fill:#F5978B;}
	.st362{fill:#FEFDFB;}
	.st363{fill:#FDFDF9;}
	.st364{fill:#F4998C;}
	.st365{fill:#F59A8D;}
	.st366{fill:#F59689;}
	.st367{fill:#FDFDFB;}
	.st368{fill:#FEFEFA;}
	.st369{fill:#F49A8F;}
	.st370{fill:#F3988D;}
	.st371{fill:#F4978A;}
	.st372{fill:#F4998D;}
	.st373{fill:#F59688;}
	.st374{fill:#FDFDFA;}
	.st375{fill:#F59789;}
	.st376{fill:#1E214E;}
	.st377{fill:#E45436;}
	.st378{fill:#E34F2F;}
	.st379{fill:#E6CDA3;}
	.st380{fill:#F6F7F9;}
	.st381{fill:#F7F8FA;}
	.st382{fill:#F5F6F8;}
	.st383{fill:#F8F9FB;}
	.st384{fill:#F5F7F7;}
	.st385{fill:#F2F3F5;}
	.st386{fill:#F4F6F8;}
	.st387{fill:#F3F5F7;}
	.st388{fill:#F8F9FA;}
	.st389{fill:#F2F5F7;}
	.st390{fill:#EFF0F5;}
	.st391{fill:#F7F9FB;}
	.st392{fill:#3F5FAA;}
	.st393{fill:#432342;}
	.st394{fill:#321844;}
	.st395{fill:#101237;}
	.st396{fill:#1B1745;}
	.st397{fill:#39335B;}
	.st398{fill:#13183F;}
	.st399{fill:#46294E;}
	.st400{fill:#331842;}
	.st401{fill:#35355C;}
	.st402{fill:#1E1F44;}
	.st403{fill:#45284C;}
	.st404{fill:#331743;}
	.st405{fill:#472D4A;}
	.st406{fill:#331B3F;}
	.st407{fill:#1F1E45;}
	.st408{fill:#30304D;}
	.st409{fill:#1B1845;}
	.st410{fill:#373757;}
	.st411{fill:#37315A;}
	.st412{fill:#24184A;}
	.st413{fill:#3A214B;}
	.st414{fill:#3E284B;}
	.st415{fill:#2D193D;}
	.st416{fill:#442242;}
	.st417{fill:#33153F;}
	.st418{fill:#3D274A;}
	.st419{fill:#2B193B;}
	.st420{fill:#36365C;}
	.st421{fill:#1D1E40;}
	.st422{fill:#412A4B;}
	.st423{fill:#2F1C3D;}
	.st424{fill:#383E5D;}
	.st425{fill:#37325A;}
	.st426{fill:#261442;}
	.st427{fill:#40234A;}
	.st428{fill:#3C274A;}
	.st429{fill:#2C1A3B;}
	.st430{fill:#232449;}
	.st431{fill:#24254A;}
	.st432{fill:#412651;}
	.st433{fill:#3E234E;}
	.st434{fill:#4966A8;}
	.st435{fill:#4561A4;}
	.st436{fill:#3D60AA;}
	.st437{fill:#4162AA;}
	.st438{fill:#3E5BA4;}
	.st439{fill:#556CAA;}
	.st440{fill:#4A65A5;}
	.st441{fill:#5B70AD;}
	.st442{fill:#D2B38C;}
	.st443{fill:#EDE2D4;}
	.st444{fill:#FFFFFE;}
	.st445{fill:#3E5BA9;}
	.st446{fill:#172046;}
	.st447{fill:#FFFEFE;}
	.st448{fill:#F58E83;}
	.st449{fill:#F58F84;}
	.st450{fill:#C5B8AF;}
	.st451{fill:#BBAEA3;}
	.st452{fill:#DF553F;}
	.st453{fill:#B8ABA2;}
	.st454{fill:#BDB0A5;}
	.st455{fill:#161E45;}
	.st456{fill:#C7BBB1;}
	.st457{fill:#171E46;}
	.st458{fill:#181F47;}
	.st459{fill:#F58A81;}
	.st460{fill:#F58E82;}
	.st461{fill:#BDAFA3;}
	.st462{fill:#1A2044;}
	.st463{fill:#1B2147;}
	.st464{fill:#AA2523;}
	.st465{fill:#202045;}
	.st466{fill:#1F2040;}
	.st467{fill:#1F2041;}
	.st468{fill:#405CA8;}
	.st469{fill:#1C2145;}
	.st470{fill:#848695;}
	.st471{fill:#FCFDFC;}
	.st472{fill:#BCADA1;}
	.st473{fill:#BBADA1;}
	.st474{fill:#D6CEC8;}
	.st475{fill:#D6CDC6;}
	.st476{fill:#D6CDC7;}
	.st477{fill:#F58E81;}
	.st478{fill:#171F45;}
	.st479{fill:#181F48;}
	.st480{fill:#161F45;}
	.st481{fill:#BEB2A7;}
	.st482{fill:#171F46;}
	.st483{fill:#181F46;}
	.st484{fill:#C7BAB0;}
	.st485{fill:#D4CBC4;}
	.st486{fill:#D5CBC4;}
	.st487{fill:#D5CBC3;}
	.st488{fill:#BCAEA1;}
	.st489{fill:#BBADA0;}
	.st490{fill:#DC563F;}
	.st491{fill:#E0553E;}
	.st492{fill:#191F48;}
	.st493{fill:#AE2624;}
	.st494{fill:#77737A;}
	.st495{fill:#F1F5F9;}
	.st496{fill:#D7CEC7;}
	.st497{fill:#DD563F;}
	.st498{fill:#D7CFC8;}
	.st499{fill:#D7CFC9;}
	.st500{fill:#AA2723;}
	.st501{fill:#212244;}
	.st502{fill:#C9BDB4;}
	.st503{fill:#D5C9C4;}
	.st504{fill:#191E43;}
	.st505{fill:#192143;}
	.st506{fill:#171F43;}
	.st507{fill:#182045;}
	.st508{fill:#1A2247;}
	.st509{fill:#171F42;}
	.st510{fill:#192147;}
	.st511{fill:#151D3F;}
	.st512{fill:#1A2145;}
	.st513{fill:#182046;}
	.st514{fill:#252A4B;}
	.st515{fill:#161E41;}
	.st516{fill:#181F42;}
	.st517{fill:#192145;}
	.st518{fill:#171E42;}
	.st519{fill:#1B2349;}
	.st520{fill:#20264B;}
	.st521{fill:#4C4455;}
	.st522{fill:#3F5AA8;}
	.st523{fill:#3F5BA9;}
	.st524{fill:#435EAA;}
	.st525{fill:#3D5AA8;}
	.st526{fill:#405CA9;}
	.st527{fill:#415CA9;}
	.st528{fill:#3F5AA7;}
	.st529{fill:#3F5BA8;}
	.st530{fill:#3F5CA9;}
	.st531{fill:#405BA8;}
	.st532{fill:#425BA7;}
	.st533{fill:#415DAA;}
	.st534{fill:#3D58A6;}
	.st535{fill:#3C59A7;}
	.st536{fill:#3B58A6;}
	.st537{fill:#405BA9;}
	.st538{fill:#8A8184;}
	.st539{fill:#F08382;}
	.st540{fill:#F08F8D;}
	.st541{fill:#EF8988;}
	.st542{fill:#F0918E;}
	.st543{fill:#F5F6F7;}
	.st544{fill:#EE8282;}
	.st545{fill:#F0908E;}
	.st546{fill:#D1AE87;}
	.st547{fill:#2F55A6;}
	.st548{fill:#FCFBFA;}
	.st549{fill:#2D54A5;}
	.st550{fill:#D93D27;}
	.st551{fill:#EBEAEA;}
	.st552{fill:#2E53A4;}
	.st553{fill:#DA3F28;}
	.st554{fill:#436BB3;}
	.st555{fill:#4670B6;}
	.st556{fill:#BF2F26;}
	.st557{fill:#2F53A4;}
	.st558{fill:#456DB5;}
	.st559{fill:#C03326;}
	.st560{fill:#B22B25;}
	.st561{fill:#1A1944;}
	.st562{fill:#191944;}
	.st563{fill:#B82F26;}
	.st564{fill:#F6F6F8;}
	.st565{fill:#3053A5;}
	.st566{fill:#F4827D;}
	.st567{fill:#1A1B45;}
	.st568{fill:#FBFCFB;}
	.st569{fill:#FAFBFB;}
	.st570{fill:#2F52A4;}
	.st571{fill:#1A1C46;}
	.st572{fill:#304F9A;}
	.st573{fill:#324D97;}
	.st574{fill:#2A4EA0;}
	.st575{fill:#F4827C;}
	.st576{fill:#F4847D;}
	.st577{fill:#F4837C;}
	.st578{fill:#F4847C;}
	.st579{fill:#D191A2;}
	.st580{fill:#294A97;}
	.st581{fill:#385196;}
	.st582{fill:#2E51A1;}
	.st583{fill:#2A4D9F;}
	.st584{fill:#EBEBEA;}
	.st585{fill:#D5CCC5;}
	.st586{fill:#3D5AA9;}
	.st587{fill:#D7CCC6;}
	.st588{fill:#1F2251;}
	.st589{fill:#E7664F;}
	.st590{fill:#202353;}
	.st591{fill:#D0AE87;}
	.st592{fill:#E9634D;}
	.st593{fill:#F17476;}
	.st594{fill:#DB6C5B;}
	.st595{fill:#F3757A;}
	.st596{fill:#D6CCC5;}
	.st597{fill:#E9624B;}
	.st598{fill:#3D5BA9;}
	.st599{fill:#D7CDC6;}
	.st600{fill:#F27479;}
	.st601{fill:#D6CEC7;}
	.st602{fill:#D4CAC4;}
	.st603{fill:#1F214F;}
	.st604{fill:#3C59A8;}
	.st605{fill:#D6CCC6;}
	.st606{fill:#D5CAC4;}
	.st607{fill:#C22B27;}
	.st608{fill:#D3CAC3;}
	.st609{fill:#D4C9C2;}
	.st610{fill:#D4CAC3;}
	.st611{fill:#D6D0CC;}
	.st612{fill:#3957A5;}
	.st613{fill:#C73228;}
	.st614{fill:#777CA9;}
	.st615{fill:#8D91B2;}
	.st616{fill:#62629F;}
	.st617{fill:#1F2250;}
	.st618{fill:#E6614D;}
	.st619{fill:#C32F27;}
	.st620{fill:#D3C7BE;}
	.st621{fill:#DF614F;}
	.st622{fill:#FBF7F5;}
	.st623{fill:#3D59A8;}
	.st624{fill:#292049;}
	.st625{fill:#271E44;}
	.st626{fill:#29264B;}
	.st627{fill:#2B284B;}
	.st628{fill:#2A274B;}
	.st629{fill:#F37579;}
	.st630{fill:#D9AF7A;}
	.st631{fill:#121A3F;}
	.st632{fill:#131A3E;}
	.st633{fill:#131B3F;}
	.st634{fill:#D9B079;}
	.st635{fill:#A95926;}
	.st636{fill:#141C42;}
	.st637{fill:#555458;}
	.st638{fill:#3955A6;}
	.st639{fill:#E2593D;}
	.st640{fill:#E6553B;}
	.st641{fill:#E6553C;}
	.st642{fill:#E45A40;}
	.st643{fill:#F58F86;}
	.st644{fill:#EAE3E0;}
	.st645{fill:#E75A3E;}
	.st646{fill:#E5573C;}
	.st647{fill:#3955A5;}
	.st648{fill:#3A56A5;}
	.st649{fill:#D7CDC7;}
	.st650{fill:#3D57A5;}
	.st651{fill:#3C56A5;}
	.st652{fill:#5A458A;}
	.st653{fill:#E45A3F;}
	.st654{fill:#1F1633;}
	.st655{fill:#BD2C26;}
	.st656{fill:#241F48;}
	.st657{fill:#1E1E47;}
	.st658{fill:#231E44;}
	.st659{fill:#C73227;}
	.st660{fill:#E56346;}
</style>
<g>
	<path class="st176" d="M602.51,0v279.89c-0.36,0.03-0.73,0.03-1.09,0.03c-15.65,0.02-31.31,0.02-46.96,0
		c-0.84,0-1.68-0.05-2.48-0.37c-0.26-0.1-0.47-0.24-0.66-0.41c-0.47-0.44-0.75-1.05-1.2-1.51c-0.85-0.56-1.81-0.29-2.72-0.29
		c-13.4-0.03-26.81-0.01-40.22-0.02c-4.8-0.01-5.08-0.38-6.58-4.87c-1.41-4.21-1.45-8.3-0.63-12.66c3.99-21.2,7.46-42.49,10.77-63.8
		c0.66-4.24,0.56-8.56-0.1-12.84c-1.35-8.67-6.19-14.74-13.86-18.75c-2.62-1.37-5.41-2.36-8.01-3.77c-1.03-0.55-2.17-0.97-2.76-2.1
		c-0.3-1.29,0.66-1.83,1.5-2.35c12.89-8,12.62-26.87,3.77-36.98c-1.74-1.99-3.92-3.47-6.11-4.88c-4.27-2.76-6.75-6.61-8.16-11.43
		c-1.62-5.57-3.36-11.13-6.75-15.99c-6.73-9.66-15.96-15.31-27.58-16.91c-12.95-1.78-24.07,2.35-33.67,10.94
		c-1.52,1.36-3.15,2.53-4.88,3.59c-10.3,6.3-14.82,16.17-12.95,28.15c0.71,4.59,1.89,9.09,3.56,13.4
		c2.42,6.25,2.65,12.71,2.07,19.17c-0.77,8.63,2.91,14.74,9.78,19.38c0.97,0.65,2.17,0.98,2.81,2.07c-0.05,1.01-0.89,1.37-1.56,1.83
		c-9.75,6.77-19.78,13.11-29.69,19.65c-3.23,2.13-6.62,4.06-9.67,6.42c-5.61,4.34-11.77,5.04-18.58,4.24
		c-14.79-1.73-29.64-2.91-44.46-4.32c-1.04-0.1-2.01,0.07-2.94,0.49c-5.61,0.69-11.24,0.55-16.84,0.13c-4.71-0.35-9.4-0.21-14.1-0.2
		c-1.41,0-2.61,0.62-3.72,1.41c-3.28,2.34-6.41,4.89-9.5,7.47c-0.39,0.32-0.75,0.68-1.06,1.07c-0.88,1.11-2.25,2.31-1.6,3.72
		c0.58,1.27,2.28,0.52,3.48,0.64c0.92,0.09,1.85-0.03,2.76,0.19c0.41,0.07,0.78,0.22,1.08,0.52c-0.01,1.84-1.51,1.46-2.5,1.49
		c-4.12,0.14-8.24-0.03-12.36,0.04c-4.55,0.07-9.09-0.01-13.63,0.03c-2.95,0.02-3.2,0.35-2.55,3.3c0.56,2.54,1.06,5.1,1.6,7.65
		c0.17,0.82,0.36,1.75-0.4,2.36c-0.8,0.63-1.69,0.2-2.34-0.27c-2.28-1.67-4.09-0.91-6.1,0.66c-9.06,7.12-18.28,14.04-27.51,20.94
		c-1.99,1.49-1.94,1.48,0.34,2.67c2.51,1.29,5.46,1.75,7.45,4.01c-0.61,1.85-2.52,2.31-3.77,3.48c-0.72,0.69-1.55,1.27-2.29,1.95
		c-3.09,2.55-6.25,5.03-9.37,7.87c1.12,0.94,2.33,0.89,3.42,1.09c7.11,1.31,14.21,2.65,21.29,4.09c0.96,0.19,2.03,0.16,2.76,1.02
		c0.09,1.28-1.19,1.81-1.55,2.84c-2.09,1.09-3.19,3.52-5.63,4.13c-0.86,0.04-1.7-0.08-2.56-0.13h-0.06
		c-1.15-0.06-2.2,0.61-3.33,0.67c-0.14,0.01-0.29,0.01-0.44,0c-0.08-0.01-0.16-0.03-0.25-0.04c-11.82,0.01-23.64,0.63-35.44-0.38
		c-0.07-0.03-0.12-0.07-0.18-0.11h-0.01c-0.05-0.03-0.09-0.06-0.13-0.09c0,0,0,0,0-0.01c-0.18-0.13-0.31-0.29-0.41-0.46
		c-0.41-0.68-0.34-1.58-0.64-2.32v-0.01c-0.01,0-0.01-0.01-0.01-0.01c-0.56-2.31-0.58-2.35-2.64-1.11
		c-3.22,1.93-6.46,3.84-9.75,5.65c-0.87,0.47-1.7,1.12-2.8,0.87c-0.06-0.02-0.11-0.05-0.16-0.08c-0.07-0.03-0.13-0.07-0.18-0.11
		c-0.11-0.09-0.2-0.2-0.26-0.34c-0.02-0.04-0.03-0.08-0.04-0.13c-0.02-0.04-0.02-0.08-0.03-0.12c0.23-1.31,1.33-1.88,2.24-2.6
		c3.57-2.82,7.25-5.49,10.83-8.29c2.01-1.57,2.12-2.01,1.69-4.85c-2.45,1.68-4.82,3.24-7.07,4.94c-5.65,4.26-11.51,8.24-17.1,12.57
		c-0.6,0.46-1.18,0.97-2.02,0.93c-0.04-0.02-0.08-0.05-0.12-0.07c-0.06-0.04-0.1-0.08-0.15-0.11h-0.01c-0.39-0.31-0.43-0.6-0.33-0.9
		v-0.01c0.07-0.18,0.18-0.35,0.3-0.53v-0.01c0.12-0.16,0.24-0.33,0.33-0.5c6.62-6.46,12.85-13.32,19.88-19.38
		c0.53-0.46,1.02-0.99,1.64-1.32c0.12-0.06,0.24-0.12,0.37-0.17c3.78-0.1,7.15,1.56,10.67,2.54c1.13,0.31,2.21,0.81,3.31,1.2
		c1.51,0.54,2.18,0.3,1.92-1.53c-0.77-5.43-1.55-10.83-5.75-14.93c-0.24-0.23-0.38-0.53-0.48-0.86c-0.03-0.08-0.05-0.17-0.07-0.26
		c-0.05-1.96,1.69-2.58,2.8-3.62c4.26-3.97,4.26-3.93,0.99-8.66c-2.45-3.53-5.25-6.77-7.93-10.12c-0.02-0.07-0.05-0.13-0.08-0.2
		c-0.63-1.5-2.04-2.46-2.85-3.84c-0.08-0.74,0.23-1.36,0.75-1.8c3.91-3.34,7.14-7.39,11.22-10.55c0.61-0.47,1.26-0.83,1.58-0.96
		c-2.62-0.03-5.64-0.11-8.64-0.24c-3.19-0.14-6.37-0.54-9.58-0.49c-0.76,0.01-1.52-0.12-2.11-0.68c-0.42-1.56,0.68-2.5,1.68-3.08
		c5.21-3.04,7.06-7.51,6.11-13.34c-0.15-0.9,0.05-1.85,0.3-2.74c1-1.91,2.93-2.72,4.61-3.79c2.26-1.43,4.45-2.94,7.17-4.85
		c-3.59-1.16-6.73-1.93-9.86-2.73c-0.93-0.25-2.07-0.08-2.6-1.22c1.39-4.63,0.44-9.48,1.26-14.17c0.13-0.79,0.23-1.7-0.68-2.23
		c-1.25-0.37-2.52-0.09-3.77-0.09c-21.89-0.03-43.78,0.01-65.66-0.06c-2.8,0-5.21,0.63-7.59,2.14c-7.76,4.9-15.53,9.78-23.32,14.62
		c-0.5,0.31-1.02,0.6-1.49,0.96c-0.7,0.54-1.86,0.87-1.72,1.96c0.13,1.01,1.41,0.68,2.05,1.17c1.34,1.09,0.14,1.84-0.38,2.67
		c-0.69,1.07-2.18,1.56-2.26,3.08c-0.18,2.17,0.51,4.28,0.45,6.44c-0.03,1.47,0.67,2.04,2.11,2.09c1.27,0.04,2.71-0.28,3.64,1.04
		c-0.23,1.27-1.35,1.04-2.17,1.22c-5.66,1.27-8.97,5.21-11.5,10.04c-0.62,1.18-0.23,1.9,1.08,2.15c1.65,0.32,3.31,0.55,4.96,0.82
		c0.93,0.15,2.13,0.06,2.08,1.57c-1.15,2.39-0.68,4.92-0.6,7.4c0.04,1.41,1.16,1.41,2.18,1.51c1.89,0.18,3.86-0.34,5.68,0.56
		c0.92,1.49-0.5,1.91-1.24,2.49c-2.78,2.16-5.62,4.25-8.49,6.28c-0.74,0.52-1.5,1.03-2.26,1.8c3.73,0.93,7.33,0.42,10.9,0.64
		c1.05,0.06,2.58-0.46,2.8,1.34c0.01,0.04,0.02,0.08,0.02,0.12c-0.68,0.63-1.54,0.74-2.37,0.67c-2.86-0.25-5.18,1.18-7.6,2.33
		c-1.14,0.55-1.8,1.51-2.28,2.6c-1.95,4.47-4.21,8.79-6.34,13.17c-0.91,1.88-0.72,2.11,1.48,1.91c2.76-0.26,5.48-0.87,8.26-1.03
		c2.43-0.14,3.04,0.35,3.11,2.81c0.08,3.27,0.22,6.55-0.11,9.82c-0.06,0.31-0.14,0.59-0.26,0.87c-0.35,0.8-0.93,1.45-1.61,1.98
		c-0.99,0.77-1.43,1.69-1.47,2.79c-0.01,0.24-0.01,0.49,0.02,0.75c-1.03,2.25-0.85,2.61,1.64,2.63c9.19,0.07,18.37,0.01,27.55,0.04
		c1.27,0,2.55-0.08,3.74,0.45c0.56,0.25,1.07,0.66,1,1.32c-0.06,0.54-0.63,0.73-1.11,0.9c-0.56,0.19-1.15,0.27-1.74,0.26
		c-8.09-0.05-16.13,1.02-24.21,1.06c-2.12,0.02-4.18,0.56-6.29,0.55c-1.27-0.01-1.65,1.17-2.45,1.78c-0.04,0.03-0.08,0.06-0.12,0.09
		c-0.01,0-0.01,0.01-0.02,0.01c-1.14,0.67-2.41,0.62-3.66,0.62c-17.99,0.01-35.98,0.01-53.97,0c-0.48,0-0.97,0.02-1.45-0.02V0
		H602.51z"/>
	<path class="st176" d="M604.58,279.05c-0.01,0.02-0.03,0.03-0.04,0.05v-0.12C604.56,279,604.57,279.03,604.58,279.05z"/>
	<path class="st442" d="M602.51,278.94v170.28H0v-170.3c18.42,0,36.85-0.01,55.28-0.01c1.26,0,2.52,0.05,3.79,0.07
		c0.05,0.08,0.11,0.15,0.15,0.23c1.69,2.52,1.72,5,0.03,7.69c-8.48,13.48-17.11,26.87-25.6,40.34c-3.78,5.99-7.6,11.95-11.36,17.95
		c-1.39,2.22-1.21,2.46,1.38,2.52c0.68,0.02,1.35,0.01,2.03,0.01c183.73,0,367.47,0,551.21-0.03c1.44,0,3.47,0.82,4.2-0.63
		c0.61-1.19-0.98-2.53-1.74-3.72c-8.74-13.71-17.32-27.53-26.08-41.23c-0.86-1.35-1.45-2.84-2.31-4.18
		c-0.18-0.31-0.24-0.66-0.27-1.03c-0.06-0.79,0.04-1.64-0.53-2.25c-0.13-0.14-0.29-0.27-0.5-0.38c-0.47-0.2-0.84-0.48-1-0.99
		c-0.02-0.14-0.02-0.27,0-0.4c0.07-0.54,0.46-0.93,0.83-1.32c1.14-1.22,1.43-2.58,0.79-4.13c-0.3-0.4-0.63-0.79-0.65-1.33
		c1.06-2.19,0.41-4.81,1.67-6.96c0.04-0.08,0.09-0.16,0.14-0.24c16.6,0.01,33.2,0.01,49.79,0.02
		C601.67,278.92,602.09,278.93,602.51,278.94z"/>
	<path class="st442" d="M604.58,279.05c-0.01,0.02-0.03,0.03-0.04,0.05v-0.12C604.56,279,604.57,279.03,604.58,279.05z"/>
	<path class="st443" d="M604.58,279.05c-0.01,0.02-0.03,0.03-0.04,0.05v-0.12C604.56,279,604.57,279.03,604.58,279.05z"/>
	<path class="st9" d="M551.41,297.18c4.17,6.63,8.34,13.26,12.52,19.88c6.16,9.76,12.32,19.51,18.48,29.28
		c0.35,0.55,1.05,1.11,0.76,1.77c-0.38,0.88-1.34,0.5-2.04,0.5c-17.2,0.02-34.4,0.02-51.59,0.02c-158.32,0-316.65,0-474.97-0.01
		c-10.71,0-21.41-0.01-32.12-0.02c-0.92,0-1.84,0-2.69,0c-0.58-0.92,0.1-1.4,0.43-1.91c8.7-13.73,17.42-27.45,26.13-41.18
		c4.33-6.83,8.63-13.67,12.97-20.5c0.55-0.87,0.87-1.47,0.06-2.58c-0.58-0.8-0.22-2.28-0.28-3.45c0.25-2.56,0.28-2.31,2.79-2.65
		c4.59-0.61,9.24-0.07,13.81-0.88c0.41-0.07,0.84-0.07,1.26-0.06c5.55,0.12,11.07-0.83,16.63-0.56c0.32,0.02,0.65-0.08,1.14-0.16
		c-0.72-1.1-1.71-0.76-2.54-0.77c-8-0.04-16-0.04-24-0.05c-2.36,0-4.72-0.02-7.07-0.03c-0.96,0-1.85,0.01-1.96-1.35
		c-0.13-1.67,0.03-2.12,1.37-2.68c0.23-0.1,0.43-0.25,0.65-0.38c0.56-0.91,1.52-1.01,2.43-1.09c8.28-0.74,16.53-2.02,24.89-1.61
		c1.3,0.06,2.6-0.39,3.62-0.16c0.64-0.05,0.23-0.58,0.36-0.27c0.04,0.09-0.02,0.15-0.17,0.16c-8.06,0.41-16.1,0.02-24.11-0.92
		c-1.11-0.26-2.2-0.62-3.37-0.58c-0.44-0.09-0.82-0.27-1.07-0.66c-0.02-3.53-0.02-7.06-0.06-10.58c-0.02-1.81-0.05-1.84-1.75-1.65
		c-3.65,0.43-7.3,0.89-10.95,1.35c-1.28,0.16-1.55-0.13-1.13-1.32c0.08-0.24,0.2-0.46,0.31-0.69c2.48-5.14,4.98-10.27,7.44-15.42
		c0.53-1.11,1.17-1.9,2.42-2.35c1.32-0.48,2.7-0.95,3.81-1.88c0.58-0.48,1.26-0.39,1.92-0.39c1.51,0.01,3.03,0.04,4.54,0.06
		c0.17-0.2,0.39-0.29,0.65-0.29c6.36,3.26,12.49,6.95,18.7,10.5c4.9,2.8,9.85,5.52,14.69,8.43c1.84,1.1,3.35,0.95,5.06-0.38
		c6.05-4.71,12.4-9.02,18.57-13.58c0.88-0.65,1.77-1.29,2.78-1.74c4.18-0.31,8.35,0.12,12.49,0.53c2.59,0.26,4.5-0.26,6.27-2.17
		c2.27-2.46,4.74-4.73,7.68-6.41c3.26-0.58,6.35-1.99,9.72-2.04c1.87,1.1,2.89,3.03,4.2,4.62c2.35,2.84,4.41,5.91,6.52,8.93
		c1.2,1.71,1.12,1.99-0.54,3.3c-2.16,1.71-4.27,3.48-6.12,5.53c-0.59,1.49-1.71,1.62-3.03,1.17c-1.41-0.48-2.65-1.3-3.93-2.02
		c-1.84-0.66-3.54-1.63-5.33-2.38c-5.26-1.8-10.5-3.67-16-4.64c-3.27-0.58-3.25-0.49-3.74,2.81c-0.8,5.35-0.03,10.77-0.84,16.12
		c-0.51,3.37-0.92,3.7-4.34,3.6c-4.63-0.13-9.24-0.72-13.87-0.63c-6.07,0.11-12.05-0.84-18.07-1.2c-0.34-0.04-0.02,0.51-0.06,0.18
		c-0.02-0.16,0.02-0.23,0.11-0.23c11.1,0.88,21.93,3.47,32.92,5.12c1,0.15,1.99,0.42,2.67,1.29c1.02,1.99,0.57,4.13,0.61,6.21
		c0.05,2.44,0.09,4.88-0.02,7.32c-0.2,0.98-0.21,1.98-0.25,2.97c-0.04,1.07-0.4,1.95-1.55,2.28c-3.18,0.21-6.38,0.05-9.56,0.12
		c-13.36-0.43-26.73-0.1-40.09-0.4c-5.88-0.13-11.76-0.34-17.64-0.46c-2.81-0.06-4.61,1.17-5.97,3.41
		c-2.09,3.41-3.29,7.16-4.26,11.01c-0.46,1.82-0.12,2.97,2.05,2.97c0.75,0,1.5,0.22,2.1,0.75c1.07,1.65,0.52,3.03-0.72,4.29
		c-0.53,0.54-1.15,0.98-1.75,1.45c-2.8,2.18-2.82,2.22-0.72,5.19c0.73,1.02,0.9,2.15,0.94,3.35c0.05,1.94,0.08,3.88,0.02,5.81
		c-0.07,2.02,0.68,2.99,2.79,2.87c5.23-0.31,10.43,0.39,15.65,0.58c8.83,0.32,17.66,0.72,26.49,1.1
		c10.34,0.45,20.68,0.93,31.01,1.35c1.35,0.21,2.18-0.73,3.06-1.47c7.79-6.5,15.68-12.87,23.47-19.37c0.77-0.64,1.49-1.36,2.54-1.57
		c2.04-0.16,4.01,0.37,5.97,0.76c1.64,0.33,2.5-0.1,2.87-1.8c1.15-5.33,2.24-10.68,3.39-16.01c0.33-1.53-0.07-2.64-1.4-3.41
		c-2.53-1.47-4.82-3.37-7.64-4.36c-0.73-0.26-1.98-0.37-1.23-1.76c11.48-0.03,22.97-0.06,34.45-0.09c0.66,0,1.36-0.1,1.85,0.53
		c0.31,1.55-0.98,2.2-1.8,3.07c-6.78,7.19-14.26,13.67-21.19,20.71c-0.69,0.7-1.61,1.24-1.84,2.32c0.02,6.33,0,12.64,0.02,18.96
		c0.01,3.26,0.18,3.45,3.43,3.45c20.31,0.02,40.63,0.02,60.94,0c4.28,0,8.55,1.08,12.83,0.04c0.87,0.02,1.55-0.19,2.13-1
		c6.53-9.25,13.29-18.34,19.71-27.67c0.24-0.35,0.39-0.74,0.55-1.13c0.68-1.87,0.27-3.81,0.37-5.71c0.06-1.28,0.4-2.42,1.72-2.74
		c3.63-0.89,7.26-1.87,11.06-1.31c1.85,1.48,0.09,2.37-0.68,3.16c-3.94,4.1-8.01,8.06-12.02,12.09c-0.77,0.78-1.6,1.5-1.45,2.76
		c-0.85,6.46-0.26,12.94-0.39,19.4c-0.03,1.31,0.6,2.05,1.96,2.08c0.34,0.01,0.67,0.02,1.01,0.02c24.99,0.01,49.99,0.01,74.97-0.01
		c0.91-0.14,1.43-0.74,1.94-1.46c6.05-8.7,12.35-17.24,18.37-25.96c1.11-1.61,1.61-3.25,1.58-5.18c-0.06-4.46-0.05-8.92,0-13.38
		c0.02-1.31-0.19-2.76,1.25-3.61c1.44-0.61,2.97-0.44,4.47-0.45c4.6-0.02,9.21-0.02,13.81,0c1.09,0.01,2.18,0.01,3.18,0.55
		c1.35,1.16,0.43,2.15-0.36,2.97c-3.45,3.54-6.82,7.17-10.55,10.42c-4.43,3.86-8.39,8.19-12.57,12.3c-0.49,0.49-0.87,1.01-0.91,1.74
		c-0.06,6.23-0.03,12.46-0.02,18.68c0,3.19,0.2,3.38,3.5,3.38c24.58,0.02,49.15,0,73.72,0c1.45,0.26,2.05-0.8,2.75-1.76
		c3.91-5.35,7.51-10.91,11.6-16.13c0.76-0.97,1.41-2.75,3.33-1.67c0.62,0.87,1.36,1.38,2.52,1.37c16.56-0.08,33.12,0.14,49.67-0.14
		c3.52-1.64,6.41-4.22,9.6-6.36c4.52-3.03,8.84-6.33,13.32-9.41c1.05-0.72,2.08-1.87,3.57-0.83c0.21,0.31,0.5,0.51,0.87,0.58
		c0.91,1.21-0.08,1.89-0.82,2.44c-8.21,6.02-16.46,11.99-24.86,17.74c-0.71,0.48-1.54,0.67-2.37,0.86
		c-4.55,0.33-9.1,0.13-13.64,0.14c-11.03,0.03-22.07,0.01-33.1,0.02c-1,0-2.02-0.13-3.01,0.3c16.53,0.31,33.06,0.09,49.58,0.26
		c2.29,0.36,3.71-1.32,5.3-2.42c6.95-4.82,13.85-9.72,20.78-14.56C548.75,297.67,549.73,296.22,551.41,297.18z"/>
	<path class="st444" d="M486.17,158.03c1.83,1.54,4.04,2.42,6.2,3.29c4.42,1.78,8.52,4.07,12.02,7.27
		c3.23,2.95,5.27,6.73,6.42,10.96c1.52,5.6,1.63,11.29,0.76,16.99c-1.33,8.78-2.67,17.55-4.2,26.3c-1.46,8.33-2.61,16.71-4.29,25.01
		c-1.16,5.75-2.07,11.54-3.11,17.31c-0.11,0.6,0,1.15,0.16,1.73c0.69,2.51,1.31,5.04,2.03,7.54c0.55,1.91,0.65,1.97,2.63,1.99
		c4.38,0.03,8.76,0.01,13.14,0.01c10.11,0,20.22-0.01,30.33,0.01c0.9,0,1.87-0.28,2.66,0.44c-0.08,1.16-0.98,1.71-1.76,2.34
		c-7.84,6.36-15.8,12.57-23.76,18.78c-1.13,0.88-2.33,1.67-3.78,1.98c-1.25,0.25-2.51,0.19-3.77,0.19
		c-14.36,0.01-28.71,0.01-43.07,0c-1.34,0-2.69,0.12-3.99-0.32c-1.6-0.75-0.91-1.73-0.13-2.54c1.27-1.32,2.82-2.32,4.35-3.32
		c6.29-4.67,12.55-9.4,19.28-14.22c-2.53-0.07-4.61,0.02-6.69-0.06c-1.16-0.05-2.41-0.01-2.94-1.42c-0.08-3.2,1.25-6.07,2.14-9.02
		c3.14-10.47,6.33-20.94,9.44-31.42c0.71-2.42,1.67-4.75,2.55-7.1c0.47-0.97,0.77-2,1.11-3.02c-0.26,0.73-0.47,1.49-0.74,2.23
		c-4.92,12.1-10.89,23.71-16.26,35.6c-3.8,8.41-12.12,13.99-20.2,13.61c-2.2-0.1-4.32-0.66-6.42-1.26
		c-14.6-4.13-29.18-8.31-43.77-12.49c-0.49-0.14-0.95-0.34-1.43-0.52c-3.69-0.8-7.3-1.85-10.91-2.96c-4.55-1.41-4.72-1.74-2.86-6.13
		c0.89-2.78,1.89-5.52,2.26-8.46c0.29-2.29-0.99-4.43-0.47-6.7c1.85-2.62,4.25-1.37,6.54-0.94c11.08,0.97,22.11,2.37,33.15,3.7
		c5.19,0.63,10.39,1.12,15.56,1.9c2.09,0.31,3.15-0.38,3.77-2.29c0.47-1.44,1.01-2.86,1.49-4.3c3.59-10.77,7.13-21.55,10.24-29.58
		c-2.95,6.29-7.73,14.71-12.19,23.31c-0.93,1.79-1.91,3.56-2.81,5.37c-0.83,1.68-2.11,2.57-4,2.54c-9.26-0.16-18.53,0.39-27.8-0.36
		c-5.37-0.44-10.78,0.07-16.17-0.26c-0.59-0.04-1.18-0.02-1.75-0.22c-1.08-0.45-1.67-1.36-2.22-2.31
		c-3.72-6.39-4.71-13.15-2.71-20.31c1.84-6.26,3.72-12.51,5.34-17.78c-4.6,6.51-9.3,14.19-14.76,21.35
		c-0.72,0.91-1.74,1.31-2.78,1.66c-5.43,1.83-10.82,3.77-16.19,5.77c-5.73,2.12-11.52,2.31-17.4,0.94
		c-16.9-3.95-33.77-7.99-50.67-11.93c-3.55-0.83-3.9-1.82-2.41-6.29c1.73-4.25,2.24-8.59,1.04-13.08c-0.25-0.94-0.61-1.96,0.09-2.91
		c0.34-1.66,1.69-1.23,2.64-1.06c1.59,0.29,3.17,0.31,4.76,0.45c4.51,0.4,9,1.03,13.51,1.35c2.35,0.17,4.68,0.48,7.02,0.66
		c2.84,0.21,5.67,0.57,8.5,0.87c2.09,0.22,4.18,0.28,6.27,0.53c3.74,0.45,7.52,0.73,11.28,1.02c3.01,0.23,5.74-0.91,8.27-2.58
		c10.05-6.62,20.12-13.19,30.21-19.75c4.02-2.61,8.07-5.18,11.96-7.98c0.74-0.53,1.57-0.94,2.36-1.4c0.39-1.52,1.76-2.01,2.93-2.57
		c5.89-2.78,12.15-4.48,18.42-6.12c0.49-0.13,1-0.09,1.5,0.08c1.13,0.53,1.43,1.58,1.7,2.66c0.39,1.2,0.7,2.43,0.92,3.67
		c0.55,3.1,2.51,4.61,5.45,5.15c4.44,0.82,8.53-0.32,12.44-2.27c3.73-1.87,6.95-4.41,9.65-7.61c0.7-0.83,1.31-1.78,2.43-2.13
		c1.66-0.32,3.14,0.42,4.68,0.78c4.68,1.11,9.31,1.08,13.93-0.35C484.23,157.72,485.22,157.28,486.17,158.03z"/>
	<path class="st445" d="M275.05,67.44c0.89,0.39,1.83,0.24,2.75,0.24c14.49-0.01,28.98-0.02,43.47-0.03c0.25,0,0.51,0,0.76,0
		c2.16,0.03,2.15,0.03,2.23,2.26c0.02,0.59,0.08,1.17,0.12,1.76c0.97,1.02,0.91,2.31,0.91,3.57c0.01,24.16,0.01,48.32,0,72.48
		c0,4.05-0.78,4.79-4.95,4.8c-9.94,0.02-19.88,0.01-29.82,0.01c-28.73,0-57.45,0-86.18-0.01c-1.58,0-3.24,0.26-4.53-1.04
		c-3.49-0.28-3.48-0.28-3.48-3.92c0-25.68,0-51.35-0.01-77.03c0-0.51,0.02-1.01,0-1.52c-0.04-0.99,0.47-1.35,1.39-1.32
		c0.59,0.02,1.18,0,1.77,0c14.4,0,28.81,0,43.21-0.01c1.01,0,2.03,0.13,3.01-0.23c0.82-0.42,1.57-1.01,2.58-0.84
		c8.19,0.04,16.37-0.3,24.56,0.19C273.66,66.69,274.34,67.12,275.05,67.44z"/>
	<path class="st446" d="M486.17,158.03c-3.18,1.01-6.34,2.04-9.74,2.05c-3.2,0.01-6.31-0.47-9.38-1.35
		c-0.87-0.25-1.68-0.79-2.65-0.62c-1.16,0.23-2.13-0.24-3.1-0.79c-10.63-6.08-16.14-15.38-17.32-27.42
		c-0.17-1.71,0.59-3.07,1.47-4.45c2.2-3.42,2.6-7.06,1.03-10.83c-0.87-2.09-2.43-3.46-4.77-3.62c-2.37-0.16-3.77,1.31-4.63,3.26
		c-0.79,1.77-2.01,2.27-3.9,2.53c-5.01,0.68-9.81,2.36-14.75,3.41c-1.14,0.24-1.37,1.07-1.31,2.11c0.09,1.51,0.15,3.03-0.26,4.52
		c-1.17,4.28-5.05,5.43-8.37,2.53c-1.63-1.43-2.49-3.35-3.52-5.32c-1.01,0.79-0.65,2.57-2.16,2.83c-1.05-0.63-0.84-1.75-1.04-2.7
		c-0.32-1.57-0.61-3.15-1.39-4.57c-0.36-0.65-0.74-1.53-1.61-1.37c-0.96,0.18-0.83,1.19-0.8,1.9c0.13,3.5,1.25,6.59,4.03,8.9
		c0.92,2.93,1.52,3.62,4.38,5.4c1.58,0.99,1.38,2.99,2.34,4.35c0.54,1.68,1.84,3.08,1.87,4.95c0.83,1.65,1.86,3.2,2.43,4.98
		c0.73,2.3,2.47,3.27,4.78,3.47c2.16,0.18,4.16-0.42,6.17-1.1c1.34-0.46,2.61-1.21,4.11-1.14c2.48,1.29,4.66,5.94,4.03,8.59
		c-7.53,2.02-15.15,3.75-22,7.7c-0.29,0.17-0.57,0.35-0.86,0.53c-0.33-0.05-0.69-0.04-0.99-0.16c-7.73-3.28-12.94-11.84-12.4-20.26
		c0.16-2.52,0.21-5.05,0.3-7.57c0.13-3.83-0.54-7.54-1.79-11.15c-1.68-4.85-3.32-9.72-4.04-14.82c-1.6-11.43,2.03-22.53,13.15-28.83
		c2.22-1.26,4.15-2.78,6.04-4.48c6.75-6.12,14.75-9.65,23.83-10.41c14.32-1.2,26.26,3.68,35.6,14.63
		c4.07,4.77,6.23,10.53,8.09,16.41c0.61,1.92,1.24,3.84,1.9,5.74c0.91,2.63,2.56,4.72,4.77,6.37c1.35,1.01,2.76,1.94,4.11,2.93
		c6.77,4.96,10.13,11.74,10.53,20.04c0.14,2.95-0.07,5.87-0.86,8.76c-1.62,5.9-4.98,10.41-10.34,13.41
		C486.81,157.51,486.34,157.57,486.17,158.03z"/>
	<path class="st447" d="M204.9,253.1c-3.63-1.68-7.27-3.37-10.98-5.09c0.72-1.43,2.04-1.96,3.07-2.74
		c9.53-7.29,19.12-14.5,28.66-21.78c1.37-1.05,2.55-1.7,4.16-0.41c0.87,0.7,1.99,1.08,3.43,1.83c-0.71-3.3-1.36-6.13-1.91-8.97
		c-0.24-1.23-0.71-2.41-0.68-3.71c0.02-1.04,0.39-1.58,1.47-1.56c0.67,0.01,1.35-0.01,2.02-0.01c8.75,0,17.49,0,26.24-0.02
		c0.91,0,1.87,0.2,2.69-0.4c1.12-1.34,2.66-0.91,4.08-1c2.17,0.34,4.37,0.09,6.55,0.18c0.9,0.04,2.1-0.18,2.42,0.87
		c0.31,1.01-0.76,1.58-1.46,2.15c-1.76,1.44-3.68,2.67-5.39,4.16c-2.04,1.78-2.79,3.64-1.77,4.71c1.61,1.7,3.25,0.35,4.53-0.48
		c4.86-3.17,10.14-5.26,15.71-6.72c1.12-0.29,2.25-0.85,3.37,0.02c0.39,0.47,0.56,1.03,0.7,1.61c2.01,8.44,4.26,16.81,6.52,25.18
		c0.29,1.06,0.56,2.12,0.44,3.23c-0.05,0.28-0.19,0.5-0.41,0.68c-0.93,0.58-1.94,0.45-2.95,0.29c-3.57-0.55-7.16-0.97-10.7-1.73
		c-1.88-0.41-3.6-0.12-5.18,1.24c-3.9,3.35-7.88,6.6-11.78,9.95c-1.98,1.7-3.94,2.59-6.7,2.83c-4.84,0.41-9.69,1.09-14.51,1.88
		c-1,0.16-2,0.29-3.01,0.4c-2.9,0.32-3.55-0.14-4.28-2.97c-2.18-8.4-3.93-16.9-5.61-25.42c-0.22-1.12-0.09-2.79-1.34-3.06
		c-1.86-0.41-3.89-0.31-5.73,0.28c-0.93,0.3-0.44,1.32-0.19,2c0.9,2.45,1.98,4.83,3,7.24c3.06,7.21,6.13,14.42,9.27,21.6
		c0.88,2.01,2.03,2.57,4.12,2.08c5.33-1.24,10.6-2.76,15.99-3.74c0.08-0.01,0.16-0.09,0.23-0.09c1.02-0.02,2.39-0.92,2.95,0.32
		c0.51,1.12-0.73,1.93-1.55,2.63c-2.3,1.94-4.75,3.7-7.05,6.13c4.66,1.61,9.2,2.8,13.65,4.25c1.04,0.34,2.12,0.58,3.12,1.03
		c0.71,0.31,1.5,0.69,1.52,1.53c0.03,0.91-0.86,1.15-1.55,1.43c-0.55,0.23-1.13,0.35-1.7,0.5c-8.83,2.23-17.66,4.43-26.5,6.62
		c-3.48,0.86-4.05,0.54-5.33-2.74c-1.25-3.22-2.41-6.48-3.5-9.75c-0.68-2.05-1.95-3.41-3.91-4.35c-7.06-3.39-14.29-6.44-21.33-9.89
		C206.75,254.76,205.46,254.41,204.9,253.1z"/>
	<path class="st1" d="M66.74,193.87c-1.44-0.74-2.98-0.27-4.48-0.37c-1.96-0.13-2.15-0.15-2.07-1.98c0.13-2.79-0.85-5.5-0.49-8.29
		c2.59-1.22,5.42-1.28,8.16-1.32c11.35-0.14,22.69-0.9,34.05-0.6c2.15,0.06,4.28,0.23,6.44,0.42c-4.35-0.67-8.71-0.43-13.04-0.47
		c-9.76-0.09-19.47-0.87-29.2-1.51c-0.84-0.06-1.68-0.19-2.29-0.89c-0.84-0.03-1.68-0.04-2.52-0.1c-1.49-0.1-2.06-1.05-1.39-2.35
		c0.44-0.85,1.26-1.31,2.05-1.81c5.99-3.72,11.97-7.47,17.95-11.21c3.2-2,6.42-3.99,9.59-6.04c1.14-0.74,2.33-0.82,3.61-0.82
		c9.26,0.01,18.51,0.01,27.77,0.01c13.89,0,27.77-0.01,41.66,0.01c0.97,0,2.04-0.36,2.87,0.51c0.06,1.55-1.27,2.08-2.19,2.84
		c-7.17,5.98-14.55,11.7-21.71,17.71c-1.75,1.47-2.81,2.97-2.7,5.32c0.08,1.67-0.42,3.33-0.53,5.01c-0.06,0.86-0.33,1.66-1.23,2.05
		c-1.3,0.5-2.66,0.4-4,0.4c-8.64,0.01-17.29,0.03-24.59-0.19c7.7-0.22,16.68,0.68,25.66,1.41c1.32,0.11,2.7,0.27,3.73,1.31
		c0.99,3.01,0.2,4.34-2.81,4.53c-1.99,0.12-3.99,0.11-5.99,0c-1.82-0.33-3.7-0.39-5.5-0.37c-5.89,0.06-11.76-0.43-17.63-0.7
		c-10.31-0.47-20.65-0.5-30.95-1.36c-1.68-0.14-3.36-0.01-5.04-0.08C68.78,194.91,67.54,195,66.74,193.87z"/>
	<path class="st1" d="M209.96,278.95c1.01-0.95,2.04-1.88,3.01-2.87c0.71-0.74,1.46-1.29,2.54-1.26c0.85-0.89,1.89-0.51,2.86-0.37
		c3.84,0.55,7.62,1.43,11.46,1.95c2.28,0.31,3.58,1.45,4.37,3.59c1.97,5.3,1.22,5.29,7.35,3.66c10.91-2.91,21.77-6.02,32.7-8.83
		c1.34-0.35,2.71-0.62,3.81-0.76c-6.36-2.06-12.93-4.18-19.43-6.51c-2.3-0.82-2.4-2.04-0.33-3.92c4.48-4.08,9.03-8.09,13.67-12
		c2.58-2.17,5-4.51,7.65-6.61c1.75-1.39,3.53-2.02,5.84-1.36c1.92,0.55,3.97,0.64,5.95,1.06c0.73,0.16,1.55,0.36,1.71,1.27
		c0.15,0.87-0.47,1.39-1.05,1.89c-0.65,0.54-1.37,0.98-2.07,1.45c-5.56,3.65-11.03,7.45-16.47,11.29c-0.6,0.42-1.35,0.71-1.82,1.86
		c17.11,6.29,34.62,11.42,50.15,17.69c-11.85-4.24-24.49-10.37-37.36-15.96c-1.16-0.5-2.32-1.01-3.42-1.63
		c-1.75-0.99-2-2.02-0.53-3.37c5.09-4.66,10.43-9.05,15.72-13.49c0.65-0.55,1.56-0.64,2.23-1.17l-0.03,0.03
		c0.34-1.55,1.72-2.21,2.76-3.15c1.93-1.75,4.06-3.26,6.04-4.96c1.03-0.89,2.2-1.46,3.42-0.54c2.75,2.07,5.6,4.01,8.4,6.01
		c0.56,0.4,0.96,0.94,1.01,1.67c-0.11,1.35-1.01,2.29-1.76,3.29c-4.38,5.88-8.75,11.77-13.04,17.71c-1.68,2.33-1.62,2.36,1.09,3.4
		c9.44,3.64,18.88,7.28,28.35,10.83c1.29,0.48,3.15,0.7,3.25,2.39c0.1,1.74-1.56,2.69-2.8,3.66c-1.29,1.01-2.55,0.3-3.8-0.24
		c-2.98-1.31-3.08-1.28-5.07,1.19c-2.02,2.5-2.65,2.74-5.62,1.76c-5.44-1.8-10.88-3.6-16.34-5.34c-1.26-0.38-2.55-0.39-3.85-0.29
		c-5.07-2.93-10.81-4.05-16.26-5.93c-2.51-0.87-3.42,1.58-4.83,2.89c-4.26,5.41-8.71,10.68-12.8,16.23
		c-1.02,1.39-1.89,3.04-3.76,3.57c-1.04,0.17-2-0.18-2.95-0.52c-15.71-5.67-31.47-11.2-47.18-16.87
		C211.55,280.91,209.92,280.83,209.96,278.95z"/>
	<path class="st448" d="M70.75,231.44l-0.23,0.03c0,0-0.23-0.04-0.23-0.04c-0.85-0.77-1.92-0.51-2.89-0.5
		c-4.27,0.01-8.53-0.04-13.24-0.77c4.9-3.94,9.92-7.19,14.59-10.88c1.02-1.19,2.45-1.13,3.76-1c8.48,0.84,17.01-0.02,25.48,0.93
		c0.33,0.04,0.67,0.05,1.01,0.03c9.94-0.31,19.86,0.83,29.81,0.52c2.54-0.08,5.02,0.66,7.55,0.51c1.95,0.18,2.98-1.34,4.22-2.39
		c4.49-3.78,8.88-7.69,13.43-11.41c0.8-0.65,1.55-1.66,2.85-1.01c5.38,0.22,10.77,0.47,16.15,0.66c1.52,0.05,3.02,0.16,4.68,0.6
		c-0.53,1.26-1.58,1.94-2.46,2.76c-3.62,3.4-7.26,6.79-10.87,10.2c-0.22,0.21-0.29,0.59-0.43,0.89c-1.44,2.96-3.92,4.82-6.72,6.34
		c-2.72,2.09-5.3,4.37-7.54,6.93c-1.65,1.89-3.48,2.32-5.78,1.97c-3.81-0.58-7.69-0.22-11.51-0.81c-0.65-0.1-1.33,0.03-2,0.05
		c-1.69,0.63-3.4,1.15-5.25,0.69c-0.52-0.28-1.04-0.42-1.67-0.41c-7.91,0.13-15.76-0.86-23.64-1.31
		c-6.37-0.36-12.74-0.82-19.12-1.07c-2.53-0.1-4.94-1.03-7.48-0.74C72.31,232.27,71.61,231.6,70.75,231.44z"/>
	<path class="st449" d="M66.74,193.87c5.96,0.21,11.92,0.39,17.87,0.64c10.48,0.43,20.97,0.93,31.45,1.35
		c4.28,0.17,8.57,0.17,12.83,0.68c0.34,1.37-0.92,1.73-1.59,2.45c-0.66,0.72-1.44,1.33-2.07,2.08c-3.56,4.36-6.65,9.03-8.99,14.16
		c-0.45,0.97-0.72,2.1-1.96,2.45c-5.76,0.01-11.33-1.41-16.98-2.21c-10.74-1.53-21.42-3.39-32.15-4.99c-1.37-0.2-2.91-0.12-3.9-1.43
		c-2.62-0.44-5.25-0.86-7.87-1.34c-2.1-0.39-2.26-0.67-1.34-2.59c1.43-2.97,3.23-5.66,5.81-7.8
		C60.44,195.17,63.23,193.62,66.74,193.87z"/>
	<path class="st450" d="M298.49,244.52c-2.85,2.99-6.13,5.5-9.24,8.19c-3.11,2.69-6.23,5.36-9.68,8.32
		c15.23,6.98,30.27,13.41,45.16,20.22c-18.36-5.86-36.54-12.23-54.73-18.39c-0.05-1.11,0.68-1.31,1.19-1.66
		c6.53-4.48,13.07-8.93,19.59-13.42c0.71-0.49,1.64-0.81,2.1-2c-3.3-0.6-6.4-1.17-9.51-1.73c-0.91-0.16-1.57,0.3-2.28,0.83
		c-3.17,2.39-6,5.15-9.01,7.72c-4.42,3.77-8.76,7.63-13.1,11.48c-0.61,0.54-1.38,0.99-1.75,2.19c7.7,2.56,15.38,5.11,23.5,7.81
		c-5.01,1.27-9.55,2.37-14.07,3.58c-9.26,2.48-18.5,5.02-27.75,7.53c-0.49,0.13-1.02,0.16-1.46,0.37c-1.33,0.63-2.03,0.14-2.47-1.16
		c-0.52-1.51-1.19-2.97-1.68-4.49c-0.51-1.59-1.27-2.39-3.14-2.62c-4.91-0.62-9.77-1.62-14.65-2.47c-0.29-1.56-0.18-1.7,1.5-1.97
		c1.02-1.01,2.21-0.53,3.34-0.33c3.79,0.68,7.54,1.55,11.39,2.21c-0.18-4.05-1.66-6.11-5.2-7.15c-8.15-2.38-16.1-5.37-24.24-7.8
		c-1.3-0.39-2.9-0.49-3.49-2.13c1.63-2.06,3.69-3.55,6.1-4.56c5.97,2.73,11.94,5.45,17.9,8.19c2.6,1.19,5.17,2.46,7.78,3.62
		c1.39,0.61,2.28,1.46,2.79,2.98c1.38,4.15,2.94,8.23,4.48,12.32c0.66,1.74,0.73,1.75,2.51,1.31c9.78-2.42,19.56-4.86,29.34-7.32
		c0.52-0.13,1.15-0.17,1.75-1c-6.64-2.05-13.15-4.05-19.97-6.15c3.45-3.25,6.96-5.94,10.12-9.2c-3.71,0.86-7.41,1.71-11.12,2.58
		c-2.94,0.69-5.88,1.43-8.83,2.1c-2.07,0.48-2.4,0.3-3.25-1.7c-4.29-10.06-8.58-20.11-12.86-30.18c-1.3-3.07-1.19-3.22,2.08-3.32
		c1.34-0.04,2.69,0,4.03-0.23c1.79-0.32,2.04-0.15,2.42,1.61c0.59,2.79,1.13,5.59,1.64,8.4c1.24,6.95,3.13,13.75,4.6,20.64
		c0.24,1.15,0.88,1.52,2,1.31c5.62-1.03,11.3-1.95,16.97-2.15c3.92-0.14,6.62-1.71,9.32-4.11c3.51-3.14,7.21-6.07,10.75-9.18
		c1.04-0.91,2.08-1.35,3.42-1.15c3.07,0.45,6.14,0.93,9.22,1.32C294.15,244.06,296.28,244.67,298.49,244.52z"/>
	<path class="st451" d="M125.03,200.46c0.94-1.65,2.69-2.5,3.86-3.92c2.09-0.01,4.18-0.02,6.27-0.04c2.42-0.02,2.42-0.02,2.44-2.54
		c0-0.33-0.02-0.67-0.03-1c-0.63-1.19-0.32-2.39-0.03-3.59c0.15-2.69,0.38-5.37,0.42-8.06c0.02-1.31,0.43-2.21,1.44-3.02
		c6.61-5.34,13.19-10.72,19.78-16.09c2.09-1.7,4.16-3.41,6.24-5.12c0.39-0.08,0.91-0.33,0.95,0.34c0.06,1,0.19,2.06-0.03,3.02
		c-0.67,3-0.39,6.03-0.44,9.04c-0.03,1.73-0.34,3.33-1.49,4.69c-0.67,1.86-2.35,2.8-3.75,3.93c-5.95,4.8-11.5,10.07-17.51,14.79
		c-0.44,0.34-0.96,0.66-1.2,1.39c4.56-1.03,9.09-1.85,13.58-2.81c2.6-0.56,4.6-2.37,6.76-3.82c0.92-0.61,1.7-1.73,3.08-1.14
		c0.01,2.95-0.13,5.9,0.07,8.84c0.15,2.16-0.84,3.42-2.39,4.64c-2.17,1.71-4.53,3.22-6.2,5.49c-1.55,0.41-2.51,1.68-3.65,2.63
		c-4.14,3.43-8.17,7-12.23,10.53c-1.08,0.94-2.18,1.83-3.43,2.53c-1.42-1.9-0.59-3.53,0.75-4.95c4.84-5.15,10.17-9.78,15.1-13.82
		c-3.25,2.91-7.35,5.82-11.41,8.8c-0.68,0.5-1.33,1.04-2.05,1.48c-2.05,1.25-2.95,0.84-3.11-1.52c-0.16-2.35-0.15-4.71-0.02-7.06
		c0.11-2.13-0.77-2.79-2.81-2.74c-2.68,0.06-5.38,0.24-8.06-0.15C125.53,201.05,125.21,200.84,125.03,200.46z"/>
	<path class="st452" d="M290.83,214.14c-5.73,1.64-11.6,2.92-16.62,6.44c-1.37,0.96-2.89,1.74-4.5,2.28
		c-2.12,0.71-3.66-0.46-3.6-2.71c0.04-1.36,0.77-2.38,1.65-3.31c1.46-1.55,3.25-2.67,4.94-3.93c1.05-0.78,2.11-1.56,3.16-2.35
		c-0.05-0.17-0.1-0.35-0.16-0.52c-2.64,0-5.29,0-7.93,0c0.24-1.44,1.44-1.09,2.32-1.17c1.67-0.15,3.37,0.03,5.05-0.11
		c0.92-0.07,1.64-0.41,1.82-1.42c0.2-1.1-0.37-1.8-1.33-2.15c-1.96-0.71-3.89-0.89-5.86,0.14c-2.69,1.4-5.35,2.83-7.73,4.73
		c-2.66,0-5.32,0-8.1,0c0.37-2.56,1.25-4.7,3.1-6.3c3.49-3.03,7.12-5.89,10.88-8.59c1.19-0.85,2.53-1.27,4.02-1.25
		c4.54,0.05,9.08,0.11,13.61,0.31c5.63,0.25,11.26,0.27,16.89,0.4c1.46,4.63,2.15,9.28,0.53,14.02c-0.24,0.7-0.34,1.47-0.92,2.02
		c-3.79-0.42-7.1,0.52-9.8,3.34C291.94,214.34,291.33,214.24,290.83,214.14z"/>
	<path class="st63" d="M125.83,200.59c3.28-0.03,6.56-0.1,9.83-0.08c1.78,0.01,1.87,0.11,1.89,1.85c0.04,3.11,0,6.22,0,9.33
		c0,0.33,0.05,0.66,0.11,1.42c3.4-1.99,6.2-4.47,9.24-6.56c3-2.06,5.9-4.28,9.16-6.07c-0.69,0.67-1.36,1.35-2.06,2
		c-4.68,4.34-9.3,8.75-14.07,12.99c-1.78,1.59-2.76,3.29-2.4,5.68c-4.45-0.13-8.9-0.27-13.34-0.38c-8.9-0.23-17.81-0.42-26.71-0.66
		c-9.57-0.26-19.15-0.55-28.72-0.82c-2.27-0.02-4.54,0-6.8-0.06c-1.96-0.05-2.24-0.3-2.29-2.15c-0.05-2.1,0.04-4.2-0.03-6.29
		c-0.04-1.2,0.51-1.68,1.61-1.73c5.31,0.78,10.62,1.53,15.92,2.33c7.21,1.09,14.42,2.19,21.62,3.34c5.3,0.85,10.58,1.74,15.91,2.36
		c0.73-0.5,1.54-0.68,2.39-0.49c1.93,0.45,2.76-0.63,3.25-2.24c1.14-3.75,2.74-7.34,3.8-11.12
		C124.44,202.19,124.75,201.14,125.83,200.59z"/>
	<path class="st453" d="M199.8,151.47c0.84-0.04,1.68-0.1,2.52-0.1c39.7,0,79.39,0,119.09,0c0.51,0,1.01-0.02,1.52,0
		c0.96,0.03,1.37-0.45,1.34-1.39c-0.02-0.67,0-1.35,0-2.02c0-24-0.01-48.01-0.01-72.01c0-1.43,0.08-2.86,0.12-4.29
		c4.08-0.21,3.42,0.15,3.43,3.34c0.02,25.52,0.01,51.04,0.02,76.57c0,0.51,0.02,1.01-0.01,1.52c-0.08,1.78-0.15,1.86-1.85,1.95
		c-0.59,0.03-1.18,0.01-1.77,0.01c-40.12,0-80.24,0-120.36,0c-0.17,0-0.34,0-0.51,0C199.48,155.02,199.82,155.32,199.8,151.47z"/>
	<path class="st454" d="M167.56,279.01c0.03,0.33,0.05,0.77,0.45,0.77c1.99,0.01,3.43,1.23,4.99,2.18c1.64,1.01,3.24,2.1,4.9,3.08
		c1.04,0.61,1.28,1.42,1.04,2.54c-1.33,6.22-2.65,12.43-3.93,18.66c-0.24,1.14-0.73,1.53-1.92,1.28c-2.62-0.53-5.27-0.94-7.91-1.4
		c-1.32,0.38-2.63,0.26-3.97,0c-4.44-0.87-8.87-1.76-13.31-2.65c-2.3-0.46-4.24-0.1-6.2,1.15c-1.28,0.82-2.5,2.07-4.3,1.61
		c-0.71-0.83-0.67-1.76-0.4-2.73c0.6-1.38,1.89-2.12,3-2.98c7.62-5.93,15.18-11.94,22.93-17.69c1.92-1.42,3.51-2.84,3.27-5.49
		c-0.05-0.57,0.17-1.17,0.76-1.49C167.74,276.82,167.27,277.98,167.56,279.01z"/>
	<path class="st455" d="M166.98,275.87c-0.01,0.08-0.06,0.17-0.04,0.25c0.81,3.65-1.08,5.64-3.9,7.7
		c-7.72,5.64-15.17,11.66-22.74,17.51c-0.85,0.66-1.58,1.52-2.7,1.77c-1.39-1.75-0.02-2.86,1.08-3.78c3.86-3.22,7.06-7.19,10.7-9.5
		c-2.59,2.18-6.11,4.34-9.61,6.53c-1.85,1.15-2.79,0.59-2.94-1.63c-0.18-2.67-0.06-5.36-0.06-8.04c0.1-0.61,0.06-1.24,0.27-1.83
		c0.09-0.23,0.23-0.44,0.39-0.63c0.44-0.48,1.1-0.49,1.65-0.75c6.98-5.5,14.28-10.56,21.47-15.78c1.75-1.27,3.53-2.49,5.71-4.03
		c0.03,1.79,0.03,3.17,0.1,4.55c0.05,0.95-0.65,1.28-1.24,1.73c-4.77,3.7-9.55,7.4-14.32,11.1c-0.24,0.36-0.6,0.63-0.85,0.98
		c0.34-0.43,0.88-0.32,1.32-0.47c5.06-2.88,10.12-5.75,15.43-8.78C166.81,273.97,166.9,274.92,166.98,275.87z"/>
	<path class="st456" d="M209.96,278.95c0.31,1.01,1.29,1.01,2.04,1.27c10.37,3.69,20.75,7.34,31.12,11.03
		c5.62,2,11.22,4.06,16.83,6.08c1.02,0.37,2.02,0.87,3.15,0.81c0.05,1.73-1.14,2.08-2.47,2.05c-1.66-0.04-3.31-0.23-4.93-0.67
		c-11.62-1.41-23.13-3.51-34.71-5.18c-2.75-0.4-5.5-0.79-8.25-1.17c-2.2-0.56-4.45-0.85-6.68-1.24c-0.89-0.16-2.01-0.1-2.35-1.15
		c-0.34-1.06,0.63-1.62,1.26-2.27c0.15-0.16,0.41-0.25,0.39-0.54c-1.17-0.13-2.34-0.2-3.49-0.48c-2.53-0.62-2.89-1.54-1.05-3.34
		c2.03-1.99,4.18-3.88,6.41-5.65C208.18,278.44,209.16,278.17,209.96,278.95z"/>
	<path class="st457" d="M207.24,278.5c0.38,0.99-0.51,1.31-1.01,1.79c-2.03,1.95-4.1,3.86-6.24,5.87c2.22,1.01,4.47,0.61,6.66,1.36
		c-0.54,1.34-1.97,1.82-2.61,3.17c1.56,0.55,3.2,0.58,4.76,0.9c1.27,0.27,2.65,0.14,3.76,1c0.12,0.43,0.05,0.86-0.21,1.19
		c-3.3,4.17-6.67,8.27-10.58,11.92c-1.11,0.49-2.29,0.52-3.47,0.52c-5.62,0-11.25,0.09-16.87-0.06c-1.14-0.03-3.09,0.5-2.79-1.9
		c5.32-4.79,10.27-9.97,15.4-14.96c3.32-3.23,6.54-6.55,9.8-9.84C204.81,278.51,206.06,278.64,207.24,278.5z"/>
	<path class="st1" d="M198.8,257.66c6.69,2.21,13.38,4.44,20.09,6.63c3.19,1.04,6.4,2.05,9.61,3.02c1.47,0.45,2.45,1.22,2.93,2.79
		c0.56,1.83,1.41,3.57,2.3,5.74c-5.86-0.68-11.21-2.31-16.72-3c-2.18-0.88-4.51-1.05-6.78-1.5c-7.29-1.44-14.59-2.77-21.89-4.16
		c-0.14-0.03-0.25-0.19-0.53-0.42c0.63-1.53,2.26-2.09,3.35-3.14c2.05-1.96,4.31-3.7,6.51-5.5
		C197.97,257.89,198.42,257.82,198.8,257.66z"/>
	<path class="st458" d="M137.15,279.29c-0.04-4.5-0.08-9-0.13-13.49c-0.36-1.46,0.84-2.11,1.61-2.9c4.38-4.44,8.81-8.83,13.22-13.24
		c1.55-1.55,3.1-3.09,4.46-4.82c0.76-0.97,1.56-2.03,3.05-1.86c1.71,0.75,3.42,1.5,5.13,2.25c0.44,1.56-0.84,2.07-1.75,2.71
		c-5.91,4.12-11.66,8.47-17.74,12.35c-0.26,0.21,0.35,0.32,0.08,0.12c-0.13-0.09-0.14-0.18-0.03-0.24c4.03-2.2,8.23-2.02,12.48-0.84
		c1.24,0.35,2.76,0.32,3.26,1.96c-7.07,6.93-14.09,13.91-21.34,20.65c-0.61,0.43-1.13,1.26-2.03,0.48
		C137.14,281.39,137.53,280.31,137.15,279.29z"/>
	<path class="st459" d="M160.79,261.28c-5.43-2.41-10.98-2.46-16.74-0.97c2.28-1.68,4.54-3.39,6.86-5.03
		c4.04-2.85,8.11-5.65,12.15-8.5c0.58-0.41,1.46-0.58,1.42-1.56c0.95,0.52,1.97,0.95,2.84,1.59c1.3,0.94,2.45,0.76,3.62-0.15
		c0.87,1.02,1.72,2.05,2.62,3.05c3.01,3.35,3.21,7.63,3.95,11.74c0.22,1.23,0.38,2.48,0.49,3.73c0.07,0.75-0.32,1.09-1.1,0.82
		c-0.55-0.2-1.11-0.37-1.66-0.58c-3.93-1.48-7.93-2.72-11.98-3.79C162.44,261.42,161.65,261.14,160.79,261.28z"/>
	<path class="st460" d="M165.38,186.49c-0.08,0.03-0.17,0.05-0.23,0.1c-5.21,4.72-11.57,6.57-18.35,7.45
		c-2.23,0.29-4.41,0.93-6.96,1.48c0.89-1.83,2.22-2.82,3.47-3.79c5.17-4.04,9.85-8.66,15.03-12.68c2.06-1.6,3.76-3.63,6.08-4.9
		c4.72,0.32,9.02,2.18,13.53,3.28c0.03,0.2,0.06,0.41,0.09,0.61C173.82,180.86,169.6,183.67,165.38,186.49z"/>
	<path class="st461" d="M522.57,299.1c5.76-4.49,11.54-8.96,17.29-13.46c3.71-2.9,7.38-5.84,11.06-8.77
		c0.71,0.54,0.48,1.32,0.54,2.03c0,0.5-0.06,1,0,1.49c0.25,2.21-0.17,4.25-1.5,6.07c-8.37,4.33-15.67,10.3-23.57,15.34
		c-1.16,0.74-2.27,1.91-3.88,0.96C521.57,301.52,521.63,300.3,522.57,299.1z"/>
	<path class="st462" d="M63.83,178.87c4.63,0.21,9.26,0.39,13.88,0.64c4.46,0.24,8.91,0.53,13.36,0.81
		c5.96,0.37,11.94,0.48,17.88,1.32c-6.83,0.03-13.63,0.53-20.45,0.72c-8.34,0.23-16.67,0.58-25.01,0.87
		c-1.26,0.04-2.53,0.01-3.79,0.01C61.08,181.78,62.45,180.33,63.83,178.87z"/>
	<path class="st463" d="M67.77,264.68c8.54,0.58,17.08,1.17,25.61,1.75c0.01,0.08,0.01,0.15,0.02,0.23
		c-10.75,0.92-21.5,1.85-32.25,2.77c-0.49-0.04-0.97-0.08-1.73-0.14c1.33-1.88,2.8-3.46,4.3-5c0.29,0.01,0.57,0.02,0.86,0.03
		C65.6,264.77,66.74,264.26,67.77,264.68z"/>
	<path class="st464" d="M262.06,210.06c0.3-1.46,1.39-2.25,2.58-2.92c1.68-0.95,3.4-1.84,5.1-2.77c2.3-1.25,4.59-0.67,6.8,0.19
		c1.33,0.52,1.77,1.78,1.42,3.11c-0.42,1.61-0.83,1.85-2.7,1.96c-2.5,0.14-5.03-0.35-7.49,0.39c-1.56,0.07-3.13,0.13-4.7,0.2
		C262.74,210.18,262.4,210.12,262.06,210.06z"/>
	<path class="st465" d="M157.21,226.91c2.04-2.33,4.47-4.24,6.72-6.34c1.74,0.63,2.63,1.95,2.95,3.71c-0.76,0.69-1.68,0.98-2.66,1.2
		C161.89,226.02,159.59,226.67,157.21,226.91z"/>
	<path class="st466" d="M275.05,67.44c-0.65,0.09-1.3,0.16-1.95-0.02c-2.36-0.7-3.51-2.79-4.85-4.53c-2.12-2.75-5.2-4.74-6.5-8.14
		c0.08-0.66,0.2-1.28,1.03-1.38C266.99,57.95,271.14,62.59,275.05,67.44z"/>
	<path class="st467" d="M247.68,67.19c-0.62,0.44-1.3,0.43-2,0.26c3.82-4.85,7.94-9.45,12.1-14.02c0.8,0.14,0.95,0.75,1.02,1.41
		c-0.2,1.45-1.3,2.3-2.18,3.3c-2,2.27-3.93,4.61-5.93,6.88C249.87,65.96,249.04,66.96,247.68,67.19z"/>
	<path class="st468" d="M258.33,54.98c-0.18-0.52-0.36-1.03-0.55-1.55c0.11-0.49,0.12-1.02,0.34-1.46c0.49-0.96,1.3-1.6,2.41-1.49
		c1.09,0.11,1.83,0.77,2.05,1.9c0.07,0.33,0.12,0.66,0.19,0.99c-0.2,0.53-0.41,1.05-0.62,1.58
		C260.9,56.57,259.62,56.53,258.33,54.98z"/>
	<path class="st469" d="M137.51,282.46c0.65-0.18,1.3-0.35,1.95-0.53c-0.25,0.32-0.53,0.64-0.75,0.98c-0.31,0.47,0.07,0.5,0.39,0.55
		c-0.27,0.63-0.75,0.97-1.43,1.03C137.05,283.86,137.31,283.16,137.51,282.46z"/>
	<path class="st470" d="M151.27,281.54c-0.88,0.88-1.98,1.42-3.21,1.79c0.75-0.96,1.64-1.75,2.74-2.3
		C150.96,281.2,151.12,281.37,151.27,281.54z"/>
	<path class="st471" d="M523.14,302.75c3.08-1.56,5.83-3.65,8.68-5.57c4.88-3.28,9.74-6.59,14.53-9.99
		c1.18-0.84,2.41-0.53,3.61-0.73c0.41,0.11,0.87,0.12,1.09,0.58c-0.06,1.38-1.18,2-2.09,2.65c-8.14,5.76-16.33,11.47-24.46,17.24
		c-0.69,0.49-1.42,0.9-2.26,1.1c-2.6,0.39-5.23,0.43-7.8,0.13c-5.45-0.64-10.91-0.38-16.36-0.39c-7.98-0.01-15.93-0.85-23.92-0.55
		c-1.17,0.04-2.38-0.01-3.26-1c-0.61-1.86,0.52-2.8,1.9-3.63c1.13-0.43,2.31-0.39,3.49-0.39c14.22-0.01,28.43,0.01,42.65-0.02
		C520.38,302.16,521.75,302.45,523.14,302.75z"/>
	<path class="st472" d="M523.06,307.18c4.22-3.33,8.66-6.35,13.05-9.44c5.01-3.53,10.11-6.93,14.94-10.71
		c1.23,2.67,0.13,4.54-2.09,6.02c-1.02-0.1-1.74,0.51-2.49,1.04c-7.62,5.38-15.25,10.75-22.87,16.12
		C521.73,309.5,522.43,308.34,523.06,307.18z"/>
	<path class="st473" d="M551.41,297.18c-1.14-0.04-1.8,0.85-2.6,1.4c-7.86,5.47-15.68,10.99-23.52,16.48
		c-0.81,0.57-1.56,1.31-2.67,1.27c-0.69-0.83-0.72-1.64,0.04-2.45c7.71-5.48,15.42-10.95,23.13-16.43c0.96-0.68,1.91-1.35,2.86-2.05
		c0.6-0.44,1.28-0.86,1.19-1.77c0.97-0.09,1.63,0.2,1.61,1.32C551.42,295.69,551.42,296.43,551.41,297.18z"/>
	<path class="st474" d="M137.51,282.46c-0.38,0.71,0.17,1.35,0.15,2.04l-0.05,0.06c-0.6,0.71-0.23,1.45-0.09,2.19
		c-0.31,3.24,0.12,6.46,0.15,10.17c4.96-3.32,9.58-6.41,14.2-9.5c0.11,0.1,0.21,0.2,0.32,0.3c-0.39,0.43-0.74,0.89-1.16,1.29
		c-4.05,3.78-8.1,7.57-12.2,11.29c-0.88,0.8-1.43,1.6-1.21,2.81c-0.02,1-0.04,2.01-0.06,3.01c-1.17,1.59-2.95,1.52-4.59,1.49
		c-6.97-0.13-13.95,0.54-20.92-0.1c-0.36-0.03-0.82-0.25-0.98-0.04c3.48,0.23,7.11,0.24,10.73,0.47c4.03,0.25,8.04,0.75,12.07,1.03
		c2.26,0.16,4.44,0.55,4.63,3.55c0.08,1.31,0.95,0.85,1.64,0.52c1.52-0.72,3.01-1.53,4.65-1.94c0.65-0.16,1.46-0.37,1.84,0.33
		c0.35,0.65-0.14,1.3-0.61,1.79c-1.53,1.58-3.38,2.77-5.14,4.07c-1.7,1.26-2.48,2.78-2.41,4.94c0.06,2.24,0.45,4.57-0.77,6.67
		c-2.85,0.05-5.72,0.34-8.54-0.35c-0.24-0.06-0.5-0.06-0.75-0.05c-6.14,0.28-12.28-0.29-18.38-0.68c-5.7-0.37-11.43,0.15-17.09-0.82
		c-0.16-0.03-0.34-0.03-0.5-0.02c-5.81,0.29-11.59-0.43-17.38-0.65c-4.45-0.16-8.89-0.31-13.34-0.44c-1.72-0.05-1.99-0.36-2.02-2.16
		c-0.05-2.86-0.02-5.72-0.02-8.58c0-0.88-0.07-1.58-1.15-1.93c-0.87-0.28-1.88-3.07-1.66-3.94c0.12-0.46,0.54-0.61,0.87-0.84
		c0.97-0.66,1.92-1.34,2.9-2c1.49-1,2.52-2.21,2.05-4.17c0.83-1.15,2.05-1.01,3.21-0.92c14.73,1.16,29.51,1.64,44.22,3
		c2.87,0.27,4.59-0.49,5.86-2.85c0.66-0.46,1.41-0.44,2.18-0.43c2.74,0.03,2.95-0.11,3.26-2.89c0.34-2.93,0.93-5.82,1.47-8.71
		c0.71-3.82,1.73-4.57,5.57-4.77c2.5-0.13,5.03-0.13,7.5-0.68c0.77-0.2,1.03-0.71,1.03-1.49c0.01-1.09-0.15-2.19,0.18-3.25
		C137.59,280.31,137.15,281.43,137.51,282.46z"/>
	<path class="st474" d="M453.88,328.93c-0.93,0.03-1.85,0.08-2.78,0.08c-24.53,0-49.07,0-73.6-0.01c-3.12,0-3.13-0.01-3.13-3.22
		c0-6.23-0.01-12.47,0.01-18.7c0-0.8-0.31-1.7,0.41-2.39c2.64-0.76,5.34-0.4,8.02-0.47c4.79-0.11,9.58,0.22,14.36-0.25
		c1.76-0.25,3.52-0.28,5.29-0.27c11.8,0.01,23.6,0.06,35.39-0.03c3.29-0.03,6.54,0.6,9.83,0.46c1.42,0.33,2.86-0.05,4.28,0.17
		c1.52,0.24,2.6,1,2.67,2.56c0.3,6.65,0.23,13.31,0.03,19.96C454.66,327.57,454.2,328.24,453.88,328.93z"/>
	<path class="st475" d="M356.17,328.89c-0.21,0.13-0.42,0.39-0.62,0.38c-9.17-0.57-18.34-0.18-27.51-0.23
		c-16.17-0.07-32.34-0.03-48.51-0.03c-0.25,0-0.51,0-0.76,0c-2.5-0.03-2.53-0.03-2.53-2.55c-0.01-5.47-0.05-10.94,0.03-16.41
		c0.02-1.67,0.36-3.33,0.55-5c1.31-0.65,2.7-0.85,4.16-0.84c4.63,0.03,9.25-0.01,13.88,0.02c2.02,0.01,4.03-0.06,6.01-0.51
		c12.16,0.75,24.33-0.44,36.49,0.01c4.27,0.16,8.54,0.06,12.82,0.1c1.17,0.68,2.47,0.31,3.71,0.42c1.98,0.18,3.15,1.13,3.2,3.16
		c0.15,6.12,0.1,12.25,0.02,18.37C357.09,326.87,356.55,327.87,356.17,328.89z"/>
	<path class="st476" d="M178.65,304.25c-0.07,0.66,0.26,0.86,0.88,0.85c1.25-0.02,2.51-0.01,3.76-0.01c5.44,0,18.71,0.03,18.71,0.03
		c8.69-0.44,17.62-1.85,26.36-1.09c5.09,0.45,10.23,0.42,15.33-0.08c2.6-0.25,5.18-0.44,7.77,0.05c1.31,0.51,2.67,0.08,4,0.26
		c1.75,0.23,2.87,1.1,2.92,2.89c0.19,6.39,0.18,12.78,0,19.17c-0.02,0.92-0.39,1.81-0.85,2.62c-2.27-0.02-4.48,0.62-6.78,0.52
		c-23.14-1-46.29-0.18-69.43-0.44c-0.17,0-0.34,0-0.51,0c-2.77-0.02-2.78-0.02-2.79-2.79c-0.01-6.56-0.02-13.13,0-19.69
		C178.05,305.74,177.71,304.81,178.65,304.25z"/>
	<path class="st477" d="M116.22,301.85c-0.27,0.79-0.67,1.57-0.77,2.38c-0.18,1.39-1.01,1.56-2.14,1.43
		c-7.08-0.81-14.19-1.17-21.31-1.56c-5.35-0.29-10.71-0.66-16.06-1c-4.43-0.28-8.85-0.71-13.29-0.81c-1.43-0.11-2.85-0.22-4.28-0.33
		c-1.1-0.09-1.42-0.66-1.17-1.71c1.04-4.44,2.2-8.83,4.51-12.82c0.46-0.8,1.04-1.53,1.59-2.27c1.25-1.68,2.86-2.24,5.02-2.2
		c14.66,0.27,29.33,0.38,44,0.59c4.8,0.07,9.6,0.31,14.4,0.47c0,0.34-0.03,0.73-0.33,0.91c-4.47,2.65-6.26,7.11-7.95,11.66
		C117.77,298.36,117.65,300.38,116.22,301.85z"/>
	<path class="st478" d="M453.88,328.93c-0.01-7.33-0.02-14.66-0.04-21.99c-0.01-1.78-0.04-1.74-1.77-1.85
		c-1.41-0.09-2.86,0.3-4.22-0.33c-0.3-1.17,0.52-1.88,1.12-2.67c3.51-4.53,7.32-8.81,10.9-13.29c0.5-0.63,1.32-1.13,1.09-2.14
		c-1.48-1.11-1.05-2.47-0.57-3.87c1.02-2.94,1-2.95-2.19-2.96c-6.13-0.01-12.27,0-18.4-0.01c-1.43,0-2.86,0.03-4.23-0.52
		c-6.86-2.72-13.78-5.32-20.66-7.99c-0.86-0.33-1.76-0.56-2.57-1.03c-2.39-1.83-2.84-4.49-1.03-6.08
		c15.82,4.51,31.6,9.13,47.46,13.48c7.45,2.04,13.72-0.61,18.95-5.99c1.89-1.94,3.3-4.23,4.45-6.69
		c5.54-11.88,11.11-23.74,16.66-35.6c0.98-0.07,0.75,0.48,0.53,1.02c-3.62,12.03-7.24,24.06-10.84,36.09
		c-1.18,3.93-2.3,7.87-3.44,11.81c-0.76,1.84-2.44,1.51-3.87,1.54c-4.85,0.12-4.67-0.48-4.68,4.87c-0.01,2.34,0.03,4.67-0.03,7.01
		c-0.03,1.03-0.42,1.94-0.93,2.82c-1.85,1.51-4.17,2.47-5.54,4.57c0.95,1.27,0.88,3.15,2.42,4.07c-0.5,0.82-1.01,1.63-1.51,2.45
		c-0.42,0.9-0.15,2.22-1.53,2.54c-4.83,5.96-8.94,12.45-13.54,18.58C455.29,327.55,454.93,328.56,453.88,328.93z"/>
	<path class="st176" d="M411.32,264.22c-1.08,1.05,0.13,2.14-0.05,3.21c-0.21,1.27,0.61,1.87,1.58,2.35
		c-0.13,1.87,0.27,3.69,0.39,5.54c0.12,1.89,1,2.68,2.89,2.66c3.54-0.02,7.08,0.05,10.62-0.02c2.96-0.06,5.88,0.19,8.81,0.54
		c1.2,0.38,2.43,0.48,3.69,0.47c6.88-0.05,13.76-0.05,20.64-0.07c0.92,0,1.84,0,2.92,0c-0.55,2.5-2.09,4.48-2.56,6.8
		c0.7,0.6,1.55,0.07,2.22,0.46c0.05,0.03,0.1,0.11,0.09,0.15c-0.03,0.07-0.1,0.13-0.15,0.2c-0.74,0.43-1.49,0.74-2.38,0.71
		c-14.07-0.5-28.14-0.07-42.22-0.25c-2.27-0.03-4.54,0.1-6.8-0.2c-1.61-1.23-1.37-3.12-1.58-4.78c-0.2-1.55-0.87-2.09-2.39-2.17
		c-2.3-0.12-4.64,0.52-6.89-0.4c-0.5-0.61-1.19-0.5-1.85-0.5c-6.84,0.01-13.68,0.02-20.51,0.03c-1.18,1.27-2.52,2.37-3.76,3.58
		c-0.62,0.6-1.24,1.41-2.33,0.92c-0.58-1.27,0.36-2.08,0.98-2.92c4.16-5.73,8.14-11.58,12.41-17.23c2.15-2.84,2.08-3.02-1.16-4.4
		c-1.01-0.43-2.05-0.8-2.91-1.51c-0.5-0.42-1.16-0.89-0.31-1.61c3.59-0.1,7.04-0.92,10.54-1.63c2.29-0.47,4.77,0.49,6.83,1.91
		c-1.59,3.83-1.6,3.85,2.26,4.99C404,262.13,407.66,263.16,411.32,264.22z"/>
	<path class="st457" d="M371.9,283.6c1.51-1.06,2.53-2.6,3.8-3.9c0.59-0.6,1.12-1.3,2.1-0.75c0.01,6.13,0.01,12.26,0.04,18.38
		c0.01,0.88-0.18,1.63-0.69,2.35c-6.87,9.63-13.73,19.27-20.59,28.9c-0.09,0.13-0.26,0.2-0.39,0.3c-0.38-2.24-0.16-4.5-0.18-6.75
		c-0.04-5.1-0.06-10.2-0.01-15.3c0.01-1.29-0.34-1.95-1.68-1.84h-4.79c0,0,2.21-3.85,3.23-5.23c1.71-2.33,3.68-4.47,5.47-7.05
		c-1.64-0.55-3-0.19-4.28-0.42c-0.76-0.14-2,0.14-1.75-1.37c2.48-1.27,5.14-0.26,7.69-0.68c1.86-0.37,3.75,0.31,5.6-0.17
		c1.57-1.06,2.36-2.8,3.65-4.11C369.96,285.1,370.46,283.79,371.9,283.6z"/>
	<path class="st479" d="M257.54,328.94c-0.01-7.23-0.03-14.46-0.04-21.68c0-2.3,0.12-2.03-2.22-2.13h-4.2
		c0.48-2.85,2.63-5.06,5-6.43c1.4,0.23,2.85,0.33,4.2,0.73c1.42,0.42,2.24-0.06,2.82-1.27c5.21-6.58,10.41-13.16,15.62-19.74
		c1.63,0.31,1.5,1.71,1.47,2.77c-0.07,3.24,0.33,6.46-0.55,9.72c-0.71,2.62,0.13,5.49-0.35,8.23c-6.7,9.34-13.39,18.68-20.09,28.01
		C258.72,327.79,258.42,328.64,257.54,328.94z"/>
	<path class="st480" d="M400.16,279.43c0.65-0.37,1.24-0.78,2.07-0.75c2.27,0.06,4.53,0.09,6.8,0.04c1.17-0.03,1.37,0.55,1.38,1.54
		c0.03,2.1,0.1,4.19,0.45,6.27c0.29,1.06-0.44,1.75-0.98,2.46c-3.5,4.62-7.07,9.19-10.6,13.79c-0.63,0.82-1.44,1.39-2.32,1.9
		c-0.67,0.43-1.42,0.42-2.18,0.42c-6.13,0-12.26,0.02-18.38,0.01c-0.55,0-1.2,0.21-1.6-0.41c8.06-7.99,16.12-15.97,24.18-23.96
		C399.4,280.31,399.77,279.86,400.16,279.43z"/>
	<path class="st481" d="M159.36,242.97c-1.55,1.17-2.68,2.76-4.03,4.12c-5.15,5.17-10.31,10.35-15.46,15.52
		c-1.01,1.01-2.05,1.99-2.85,3.18c-4.48-0.71-8.97-1.38-13.44-2.15c-7.77-1.34-15.52-2.75-23.27-4.26c3.7,0,7.4-0.06,11.1,0.04
		c1.08,0.03,2.17,0.25,3.27,0.22c6.07-0.14,12.11,0.66,18.18,0.6c1.31-0.01,2.8,1.09,3.87,0.01c0.89-0.9,0.21-2.43,0.45-3.66
		c0.45-2.34,0.41-4.7,0.36-7.05c-0.07-3.55,0.52-7.05,0.49-10.59c-0.01-1.06,0.44-1.47,1.51-1.52c1.46-0.06,2.86,0.27,4.25,0.57
		C149.13,239.17,154.36,240.7,159.36,242.97z"/>
	<path class="st482" d="M137.68,328.9c-0.03-2.95-0.01-5.9-0.11-8.84c-0.04-1.07,0.4-1.67,1.21-2.28c2.68-2.01,5.31-4.1,7.86-6.34
		c-3.18,0.63-5.8,2.68-9,3.55c-0.03-0.66-0.07-1.16-0.08-1.66c-0.05-3.06-0.05-3.11-2.99-3.39c-6.29-0.6-12.58-1.12-18.87-1.7
		c-2.09-0.19-4.17-0.46-6.25-0.93c6.69-0.2,13.38-0.39,20.07-0.6c2.68-0.08,5.39,0.11,8.03-0.61c1.88-1.1,3.77-2.17,5.62-3.31
		c0.83-0.51,1.66-0.76,2.62-0.57c6.47,1.28,12.98,2.34,19.4,3.9c-0.39,0.43-0.74,0.91-1.18,1.27c-8.42,6.94-16.85,13.87-25.29,20.8
		C138.39,328.46,138.03,328.67,137.68,328.9z"/>
	<path class="st479" d="M300.3,304.92c0,0-16.26,0.15-23.49,0.13c0.41-0.86,1.16-1.42,1.81-2.08c4.62-4.64,9.25-9.28,13.88-13.92
		c1.73-3.55,4.7-5.78,8.1-7.55c1.27-1.38,2.55-0.19,3.83-0.02c0.91,0.84,0.9,1.91,0.74,3.01c-0.18,1.24-0.41,2.47-0.6,3.7
		c-0.41,2.68-0.22,2.87,2.41,2.97c1.39,0.05,2.86-0.25,4.09,0.74c0.57,0.89,0.11,1.66-0.44,2.28c-2.68,3-5.17,6.15-7.91,9.09
		C302.26,303.79,301,304.81,300.3,304.92z"/>
	<path class="st483" d="M70.75,231.44c0.67,0.12,1.34,0.25,2.01,0.37c2.09-0.13,3.92,0.8,5.78,1.52c8.47,3.29,16.89,6.68,25.22,10.3
		c2.35,1.02,4.29,0.78,6.4-0.52c3.87-2.38,7.88-4.51,11.8-6.8c1.09-0.63,2.17-1.33,3.54-1.06c1.6-0.62,3.25-0.19,4.88-0.21
		c-2.19,2.11-4.78,3.7-7.21,5.5c-4.94,3.65-9.93,7.23-14.88,10.87c-0.89,0.66-1.6,0.91-2.7,0.27c-11.35-6.57-22.73-13.08-34.1-19.61
		C71.21,231.92,70.99,231.66,70.75,231.44z"/>
	<path class="st484" d="M300.61,281.51c-2.7,2.52-5.4,5.03-8.1,7.55c-3.81-0.16-7.48,0.78-11.21,1.34c-1.16,0.18-1.56,0.7-1.51,1.84
		c0.07,1.59,0.04,3.19,0.01,4.79c-0.01,0.73,0.21,1.54-0.51,2.1c0.04-6.11,0.11-12.23,0.09-18.34c0-0.79,0.58-1.89-0.67-2.38
		c0.09-0.48,0.59-0.56,0.85-0.87c2.91-3.47,2.61-3.03,6.83-1.66c4.24,1.37,8.44,2.86,12.73,4
		C300.3,280.18,299.53,281.55,300.61,281.51z"/>
	<path class="st475" d="M469.42,308.19c0.57-0.81,0.05-2.28,1.53-2.54c0.57,0.68,1.37,0.58,2.11,0.56
		c10.62-0.28,21.21,0.86,31.83,0.51c4.98-0.17,9.91,0.72,14.88,0.52c1.09-0.05,2.19-0.04,3.29-0.06c0.21,1.01-0.34,2.15,0.53,3.03
		c-0.56,0.72-1.36,0.55-2.1,0.55c-16.85,0.01-33.7,0-50.55,0c-0.25,0-0.5-0.05-0.91-0.1C469.6,309.95,470.34,308.81,469.42,308.19z"
		/>
	<path class="st485" d="M523.18,322.51c-0.73,0.61-1.6,0.41-2.43,0.41c-16.16,0-32.31,0-48.47-0.01c-0.34,0-0.67,0.01-1.01-0.01
		c-1.54-0.1-1.76-0.32-1.75-1.78c0.01-1.44,0.22-1.69,1.8-1.71c2.27-0.04,4.54-0.01,6.82-0.01c14.98-0.02,29.96-0.04,44.94-0.06
		C523.91,320.36,523.15,321.44,523.18,322.51z"/>
	<path class="st486" d="M522.64,328.93c-6.4,0.03-12.8,0.07-19.19,0.07c-10.19,0.01-20.38,0-30.56,0c-0.67,0-1.35-0.02-2.02-0.02
		c-0.95,0-1.33-0.5-1.35-1.42c-0.01-0.99,0.28-1.64,1.4-1.64c0.67,0,1.35-0.01,2.02-0.01c11.03,0,22.06-0.01,33.09-0.01
		c4.45,0,8.89-0.02,13.34,0.02c1.28,0.01,2.51-0.11,3.73-0.5C523.8,326.7,523.51,327.85,522.64,328.93z"/>
	<path class="st487" d="M522.66,313.88c-0.01,0.82-0.03,1.63-0.04,2.45c-14.3,0.01-28.61,0.02-42.91,0.04c-2.52,0-5.05,0.01-7.57,0
		c-0.59,0-1.18-0.01-1.76-0.08c-0.6-0.08-0.8-0.54-0.82-1.09c-0.02-0.64,0.11-1.2,0.86-1.31c0.5-0.07,1.01-0.07,1.51-0.07
		c16.49,0,32.99,0,49.48,0C521.82,313.81,522.24,313.86,522.66,313.88z"/>
	<path class="st488" d="M522.64,328.93c-0.01-1.19-0.19-2.4,0.46-3.51c9.3-6.63,18.59-13.27,27.95-19.94c0.73,2.63,0.68,3.01-1,4.21
		c-8.6,6.19-17.22,12.35-25.84,18.51C523.74,328.55,523.29,328.95,522.64,328.93z"/>
	<path class="st489" d="M523.18,322.51c-1-1.03-0.5-2.11-0.1-3.18c9.3-6.57,18.59-13.14,28.09-19.85c0.48,1.75,0.56,2.96-0.79,3.91
		C541.31,309.75,532.24,316.13,523.18,322.51z"/>
	<path class="st469" d="M116.22,301.85c1.54-7.09,3.5-13.94,10.49-17.83c3.07,0.01,6.15,0.01,9.22,0.02
		c-2.5,1.08-5.18,1.23-7.82,1.49c-3.6,0.35-3.57,0.31-4.27,3.76c-0.75,3.7-1.42,7.41-1.76,11.16c-0.11,1.28-0.54,1.8-1.84,1.66
		C118.91,301.96,117.56,301.93,116.22,301.85z"/>
	<path class="st475" d="M67.77,264.68c-1.09,0.14-2.16,0.07-3.19-0.35C65.68,264.11,66.76,264.02,67.77,264.68z"/>
	<path class="st176" d="M290.83,214.14c1.72-1.16,3.5-2.25,4.86-3.87c0.62-0.74,1.4-0.84,2.26-0.63c1.38,0.33,2.75,0.67,4.12,1.01
		c-0.03,1.03-0.52,1.94-0.78,2.91c-0.39,1.46-0.26,1.78,1.22,2.13c4.33,1.04,8.67,2.01,13,3.03c11.03,2.61,22.05,5.27,33.09,7.83
		c4.41,1.02,8.78,2.25,13.37,2.3c4.22,0.04,8.11-1.28,11.99-2.65c4.68-1.65,9.35-3.33,14.02-4.99c0.95-0.34,1.93-0.6,2.56-1.47
		c2.53-1.29,5.21-2.19,7.91-3.03c0.85-0.27,1.73-0.72,2.63-0.1c-1.85,7.06-1.19,13.8,2.56,20.15c0.47,0.8,0.93,1.6,1.63,2.22
		c0.37,0.41,0.82,0.79,0.5,1.44c-1.55-0.36-3.12-0.51-4.72-0.46c-0.78,0.03-1.28,0.29-1.43,1.08c-9.66-2.14-19.48-3.52-29.13-5.7
		c-3.41-0.77-6.46-0.38-9.44,1.36c-3.05,1.77-6.23,3.3-9.16,5.28c-0.9,0.61-1.8,1.25-2.93,1.38c-4.56-1.29-8.64-3.7-12.97-5.54
		c-4.12-1.74-4.05-1.75-6.97,1.6c-1.79,2.05-2.86,4.82-5.66,5.91c-1.39-0.24-2.66-0.69-3.62-1.8c-0.57-1.01-1.65-1.39-2.53-2
		c-2.2-1.52-4.44-2.99-6.49-4.72c-1.37-1.16-1.45-1.09-2.94,0.14c-3.09,2.56-6.22,5.06-9.33,7.58c-2.02-7.6-4.09-15.19-6.05-22.81
		C291.77,219.24,290.82,216.79,290.83,214.14z"/>
	<path class="st490" d="M408.13,138.97c-0.94-0.26-0.88-1.08-1.04-1.8c-0.43-2.04-0.44-2.04-2.42-2.38
		c-0.08-0.01-0.16-0.03-0.25-0.04c-3.21-0.59-3.36-0.8-2.68-4.07c0.09-0.42,0.14-0.81-0.05-1.2c-0.15-1.17-0.08-2.25,1.1-2.92
		c0.3-0.78,0.62-1.55,0.89-2.34c0.27-0.78,0.28-1.65,0.99-2.38c0.9,0.25,0.87,1.1,1.1,1.75c0.69,2.01,1.58,3.9,3.22,5.34
		c2.86,2.51,5.9,1.68,7.01-1.95c0.58-1.9,0.47-3.83,0.07-5.74c-0.2-0.93,0.02-1.37,1-1.6c5.08-1.21,10.14-2.47,15.21-3.71
		c0.16-0.04,0.35-0.15,0.49-0.1c2.43,0.85,2.95-0.81,3.81-2.55c1.93-3.92,6.07-4.44,9.18-1.37c1.45,1.43,2.19,3.2,2.41,5.16
		c0.37,3.46-0.2,6.75-2.47,9.51c-0.78,0.94-0.97,1.91-0.88,3.04c1.07,12.45,6.92,21.77,18.09,27.61c0.51,0.27,1.14,0.35,1.49,0.89
		c-5.43,7.55-12.5,12.2-22.03,12.56c-1.19,0.05-2.34-0.18-3.48-0.48c-2.55-0.67-4.3-2.19-4.86-4.86c-0.29-1.39-0.57-2.79-0.85-4.18
		c0.62-2.3,1.93-4.28,2.96-6.38c1.81-3.71,3.1-7.58,3.8-11.77c-3.49,3.33-6.86,6.63-11.85,7.29c-2.09,0.86-4.17,1.76-6.36,2.39
		c-1.49,0.42-2.98,0.53-4.49,0.4c-2.06-0.17-3.82-1.09-4.57-3.06c-0.79-2.1-1.74-4.1-2.82-6.06c1.26-1.92,3.66-2.34,5.37-4.07
		C412.81,139.2,410.28,140.34,408.13,138.97z"/>
	<path class="st491" d="M348.6,243.11c4.19-2.99,8.73-5.38,13.28-7.76c2.41-1.26,4.81-1.63,7.54-1.08
		c9.23,1.85,18.51,3.51,27.77,5.24c1.02,0.19,1.96,0.49,2.43,1.53c1.77,5.24,0.47,10.16-1.53,15.02c-1.85,0.42-3.38-0.65-5.05-1.07
		c-0.9-0.22-1.74-0.58-2.65-0.09c-2.91,1.54-5.98,1.96-9.21,1.29c-0.24-0.05-0.5,0-0.75,0.01c-1.32,0.62-2.5-0.09-3.62-0.53
		c-2.28-0.9-4.23-0.47-6.17,0.89c-2.28,1.6-4.29,3.53-6.56,5.13c-1.25,0.89-2.55,1.67-4.14,1.71c-2.38,0.06-3.4-1.59-2.26-3.67
		c0.85-1.56,2.38-2.52,3.31-3.56c-1.46,1.39-3.29,2.88-5.08,4.41c-0.58,0.49-1.23,0.89-1.91,1.22c-2.03,0.98-4.01,0.77-4.78-0.62
		c-1.03-1.85-0.01-3.17,1.08-4.11c-1.08,1.37-2.63,2.51-4.86,2.32c-1.26-0.11-2.3-0.6-2.8-1.82c-0.47-1.14-0.05-2.14,0.7-3.03
		c1.55-1.82,3.64-2.98,5.47-4.45c-1.37,1.11-2.82,2.09-4.59,2.43c-1.45,0.29-2.74-0.04-3.49-1.38c-0.74-1.32-0.19-2.55,0.83-3.39
		C343.74,245.98,345.64,243.72,348.6,243.11z"/>
	<path class="st492" d="M405.78,240.43c-0.15-0.49-0.65-0.85-0.5-1.44c15.09,0.2,30.18,0.38,45.26,0.65
		c1.73,0.03,2.66-0.42,3.49-2.02c5.59-10.83,11.3-21.6,17-32.39c0.38-0.72,0.63-1.55,1.3-2.11c0.44,0.37,0.2,0.78,0.08,1.13
		c-4.49,13.04-8.98,26.08-13.48,39.11c-0.03,0.08-0.04,0.16-0.07,0.24c-1.27,3.09-0.5,3.09-4.19,2.59
		c-7.75-1.05-15.54-1.84-23.31-2.75C422.83,242.44,414.3,241.43,405.78,240.43z"/>
	<path class="st486" d="M472.46,303.21c-0.25-0.03-0.5-0.11-0.74-0.08c-1.38,0.18-1.97-0.37-1.81-1.77
		c0.09-0.73,0.08-1.48,0.12-2.21c17.51-0.01,35.02-0.03,52.54-0.04c0.25,1.21-0.37,2.55,0.57,3.65c-0.88,0.73-1.94,0.43-2.92,0.43
		C504.3,303.2,488.38,303.2,472.46,303.21z"/>
	<path class="st485" d="M475.57,294.57c0.38-3.51,0.12-7.03,0.15-10.54c0.01-1.26,0.02-2.51-0.03-3.77
		c-0.04-0.95,0.32-1.36,1.3-1.34c1.93,0.05,3.86,0.02,5.78,0.01c0.82,0,1.7,0.2,2.31-0.61c0.64,0.77,1.52,0.57,2.34,0.58
		c2.26,0.02,4.52-0.01,6.79,0.03c0.54,0.01,1.16-0.24,1.79,0.47C489.17,284.48,482.37,289.52,475.57,294.57z"/>
	<path class="st478" d="M401.09,216.62c-3.11,1.09-6.22,2.17-9.33,3.27c-0.43,0.15-0.88,0.58-1.21-0.13
		c4.93-7.21,9.85-14.42,14.8-21.62c0.47-0.68,0.81-1.49,1.91-2.12C405.14,203.06,403.12,209.84,401.09,216.62z"/>
	<path class="st493" d="M428.09,150.28c4.53-2.12,8.71-4.73,11.98-8.6c0.22-0.26,0.48-0.47,0.96-0.35
		c-0.66,4.83-1.95,9.49-4.24,13.82c-1.09,2.06-1.73,4.41-3.6,6c-0.35-0.88-0.71-1.77-1.06-2.66
		C431.1,155.6,430.29,152.6,428.09,150.28z"/>
	<path class="st494" d="M499.37,230.43c-0.19-0.34,0.02-0.87-0.53-1.02c0.31-1.22,0.81-2.34,1.84-3.66
		C500.49,227.65,500.12,229.09,499.37,230.43z"/>
	<path class="st495" d="M317.52,134.71c-1.28,0.61-2.61,0.26-3.88,0.32c-2.04,0.1-2.06,0.07-2.09,2.14c-0.03,2.02,0,4.04-0.04,6.07
		c-0.01,0.53,0.22,1.17-0.44,1.56c-0.7-0.18-0.53-0.76-0.54-1.2c-0.03-2.27-0.07-4.55-0.02-6.82c0.02-1.1-0.22-1.75-1.51-1.74
		c-4.13,0.03-8.26,0.01-12.39-0.05c-1.24-0.02-1.61,0.52-1.57,1.68c0.07,2.1,0.04,4.21,0.03,6.32c0,0.63,0.15,1.31-0.33,1.82
		c-0.87-0.1-0.72-0.71-0.72-1.16c-0.02-2.27-0.05-4.55,0.02-6.82c0.04-1.22-0.2-1.88-1.65-1.84c-4.05,0.09-8.09,0.08-12.14,0.04
		c-1.22-0.01-1.63,0.44-1.6,1.63c0.06,2.1,0.03,4.21,0,6.32c-0.01,0.62,0.24,1.33-0.38,1.83c-0.81-0.08-0.62-0.7-0.62-1.13
		c-0.03-2.19-0.01-4.38-0.04-6.57c-0.03-1.99-0.05-2.04-1.92-2.06c-3.96-0.03-7.93,0.04-11.89,0c-1.37-0.02-1.72,0.56-1.68,1.83
		c0.07,2.19,0.02,4.38-0.01,6.57c-0.01,0.48,0.13,1.01-0.37,1.38c-0.79,0-0.66-0.62-0.67-1.08c-0.03-2.36-0.07-4.72-0.02-7.08
		c0.03-1.15-0.3-1.68-1.56-1.66c-4.05,0.05-8.09,0.05-12.14-0.01c-1.19-0.02-1.66,0.39-1.62,1.6c0.07,2.1,0.04,4.21,0,6.32
		c-0.01,0.63,0.24,1.35-0.36,1.88c-0.83,0.04-0.69-0.6-0.69-1.04c-0.02-2.36-0.05-4.72,0.01-7.08c0.03-1.19-0.39-1.66-1.6-1.65
		c-4.05,0.04-8.09-0.03-12.14-0.01c-1.72,0.01-1.75,0.06-1.77,1.93c-0.02,2.02,0.03,4.04,0,6.07c-0.01,0.62,0.26,1.34-0.41,1.82
		c-0.8-0.05-0.65-0.67-0.65-1.11c-0.02-2.19,0.02-4.38,0-6.57c-0.01-2.1-0.03-2.12-2.05-2.14c-3.04-0.02-6.07,0.01-9.11,0.01
		c-4.05,0-8.09,0.01-12.14-0.02c-0.62,0-1.32,0.21-1.95-0.5c0.71-0.72,1.58-0.46,2.34-0.46c6.15,0,12.31,0.04,18.46,0.04
		c1.42,0,3.18,0.55,4.16-0.39c0.89-0.85,0.23-2.57,0.28-3.91c0.05-1.43,0.02-2.86,0-4.3c-0.03-1.87-0.04-1.91-2-1.92
		c-6.83-0.03-13.66-0.02-20.49-0.06c-0.88,0-1.83,0.28-2.79-0.39c0.59-0.95,1.47-0.64,2.2-0.64c6.58-0.02,13.15,0,19.73,0
		c0.59,0,1.18-0.05,1.77,0c1.16,0.09,1.68-0.31,1.65-1.57c-0.07-2.44-0.09-4.89,0.02-7.33c0.06-1.42-0.57-1.67-1.79-1.66
		c-6.91,0.03-13.83,0.03-20.74,0c-0.88,0-1.83,0.26-2.81-0.39c0.61-0.91,1.49-0.62,2.22-0.62c6.75-0.02,13.49,0,20.24-0.01
		c3.18,0,2.82,0.24,2.83-2.86c0.01-1.6,0.01-3.2,0-4.8c-0.02-3.23,0.41-2.89-3.02-2.9c-6.58-0.01-13.15,0-19.73-0.01
		c-0.8,0-1.65,0.16-2.56-0.35c0.53-0.96,1.37-0.63,2-0.63c6.75-0.03,13.49-0.01,20.24,0c0.59,0,1.18-0.03,1.77,0
		c0.98,0.05,1.34-0.4,1.33-1.35c-0.03-2.61-0.06-5.22-0.01-7.84c0.02-1.12-0.42-1.5-1.49-1.44c-0.92,0.05-1.85,0-2.78,0
		c-6.24,0-12.48,0-18.72-0.02c-0.76,0-1.63,0.26-2.44-0.59c1.03-0.6,1.95-0.39,2.82-0.39c6.83-0.02,13.66,0,20.49-0.02
		c2.07-0.01,2.08-0.04,2.11-2.08c0.02-2.19-0.01-4.38,0.02-6.57c0.01-0.6-0.24-1.34,0.61-1.82c0.62,0.56,0.45,1.25,0.46,1.86
		c0.02,2.27,0.06,4.55-0.01,6.82c-0.03,1.24,0.29,1.84,1.68,1.81c4.05-0.07,8.09-0.06,12.14-0.01c1.22,0.02,1.64-0.47,1.62-1.64
		c-0.04-2.11-0.02-4.21,0.03-6.32c0.02-0.8-0.26-1.67,0.33-2.4c0.81,0,0.71,0.61,0.71,1.07c0.02,2.44-0.01,4.89,0.02,7.33
		c0.03,1.86,0.06,1.9,1.77,1.92c3.96,0.04,7.93-0.02,11.89,0.07c1.38,0.03,1.74-0.52,1.7-1.78c-0.07-2.27-0.04-4.55-0.03-6.82
		c0-0.63-0.14-1.31,0.34-1.82c0.88,0.1,0.72,0.71,0.72,1.14c0.02,2.44-0.02,4.89,0,7.33c0.02,1.85,0.05,1.91,1.79,1.92
		c3.96,0.03,7.93,0.02,11.89-0.02c1.74-0.02,1.77-0.07,1.8-1.91c0.03-2.19-0.01-4.38,0.03-6.57c0.01-0.63-0.23-1.34,0.35-1.88
		c0.8,0.02,0.67,0.64,0.67,1.09c0.03,2.44,0.01,4.89,0.04,7.33c0.03,1.85,0.05,1.89,1.76,1.91c3.96,0.04,7.93-0.02,11.89,0.07
		c1.36,0.03,1.76-0.49,1.72-1.77c-0.07-2.27-0.04-4.55-0.03-6.82c0-0.63-0.13-1.31,0.42-1.9c0.8,0.36,0.64,1,0.64,1.52
		c0.01,2.44,0.02,4.89-0.03,7.33c-0.02,1.16,0.38,1.66,1.61,1.64c4.05-0.06,8.09-0.07,12.14-0.01c1.39,0.02,1.71-0.6,1.68-1.83
		c-0.05-2.1-0.01-4.21,0.02-6.32c0.01-0.74-0.13-1.52,0.23-2.21c0.85-0.09,0.77,0.53,0.77,1c0.03,2.53,0.08,5.06,0.02,7.58
		c-0.03,1.26,0.32,1.83,1.7,1.78c1.39-0.05,2.83-0.23,4.33,0.22c-0.56,1.14-1.51,0.72-2.24,0.74c-3.79,0.09-3.79,0.07-3.78,3.94
		c0,1.69,0.07,3.37-0.02,5.05c-0.07,1.36,0.52,1.72,1.78,1.7c1.38-0.02,2.8-0.25,4.16,0.18c-0.1,0.9-0.7,0.75-1.17,0.77
		c-0.76,0.03-1.52,0-2.28,0.01c-2.69,0.01-2.45-0.16-2.46,2.45c-0.01,1.94-0.02,3.88-0.02,5.81c0,2.28,0.01,2.28,2.39,2.32
		c1.01,0.01,2.02,0.03,3.03,0.07c0.15,0.01,0.29,0.14,0.53,0.27c-0.72,1.12-1.83,0.59-2.72,0.62c-3.73,0.1-3.21-0.4-3.25,3.21
		c-0.02,2.02,0.03,4.04-0.01,6.07c-0.02,0.97,0.38,1.38,1.34,1.35c1.01-0.03,2.02-0.03,3.03,0c0.53,0.02,1.16-0.2,1.53,0.45
		c-0.33,0.75-0.98,0.55-1.52,0.57c-1.1,0.03-2.19,0.03-3.29,0.02c-0.72-0.01-1.09,0.3-1.09,1.04c0.01,2.78,0.02,5.56,0.02,8.34
		c0,0.74,0.36,1.05,1.09,1.04c1.1-0.01,2.19,0,3.29,0.03C316.48,134.01,317.14,133.81,317.52,134.71z"/>
	<path class="st496" d="M258.33,54.98c1.28,0.56,2.56,0.65,3.83-0.03c3.65,4.16,7.29,8.32,10.94,12.47
		c-0.8,0.36-1.65,0.25-2.48,0.25c-6.87,0.01-13.73,0.03-20.6,0.01c-0.8,0-1.7,0.31-2.34-0.49
		C251.23,63.12,254.78,59.05,258.33,54.98z"/>
	<path class="st497" d="M404.51,97.03c4.91,9.76,13.2,14.77,23.28,17.41c-0.06,0.17-0.11,0.34-0.17,0.52
		c-3.72,0.9-7.44,1.81-11.17,2.71c-0.93,0.22-1.62-0.02-2.05-0.96c-0.53-1.17-1.34-2.14-2.41-2.87c-2.46-1.69-5.06-0.93-6.19,1.82
		c-0.36,0.86-0.58,1.76-0.64,2.69c-0.03,0.48,0.04,1.05-0.61,1.25C400.45,113.56,400.58,102.38,404.51,97.03z"/>
	<path class="st498" d="M407.27,119.19c-0.08-1.02,0.01-2.02,0.49-2.95c0.7-1.35,1.9-1.67,3.11-0.74c0.52,0.4,1.01,0.92,1.35,1.49
		c1.42,2.36,2.11,4.94,2.02,7.7c-0.02,0.66-0.17,1.34-0.4,1.97c-0.68,1.86-2.04,2.22-3.48,0.82c-1.97-1.9-2.7-4.4-3.09-7.02
		C407.22,120.04,407.27,119.61,407.27,119.19z"/>
	<path class="st499" d="M402.8,126.55c-0.22,1.03-0.28,2.12-1.1,2.92c-0.98-0.21-1.59-0.91-2.11-1.69
		c-1.72-2.59-2.57-5.44-2.48-8.55c0.02-0.59,0.06-1.16,0.37-1.7c0.56-0.98,1.13-1.13,2.02-0.48c0.77,0.56,1.24,1.36,1.64,2.2
		C402.25,121.55,402.75,124,402.8,126.55z"/>
	<path class="st500" d="M408.13,138.97c2.9,0,5.81,0,9.17,0c-2.08,2.69-4.77,3.84-7.46,4.98c-0.25-0.93-0.12-1.97-1.05-2.68
		C408.05,140.71,408.19,139.79,408.13,138.97z"/>
	<path class="st501" d="M137.54,189.36c0.79,1.19,0.61,2.39,0.03,3.59c-10.62-0.92-21.25-1.83-31.87-2.75
		C116.31,189.48,126.93,189.51,137.54,189.36z"/>
	<path class="st502" d="M319.74,243.54c1.42-0.01,2.56,0.62,3.56,1.56c0.44,1.38-0.56,2.2-1.26,3.1
		c-3.98,5.11-8.19,10.04-12.19,15.13c-1.5,1.91-1.51,1.94,0.75,2.89c16.84,7.08,33.67,14.15,50.58,21.05
		c1.91,0.78,4.04,1.27,5.16,3.32c-0.29,0.75-0.93,0.57-1.49,0.55c-1.5-0.04-3.01-0.11-4.51-0.16c-3.51-0.37-6.98,0.01-10.48,0.25
		c-4.51,0.31-9.05,0.07-13.58,0.08c-3.11,0.11-6.2-0.15-9.31-0.21c-4.47-0.3-8.8,0.71-13.18,1.31c-0.89,0.12-1.77,0.59-2.7,0.17
		c-0.49-0.88-1.33-0.46-2.01-0.48c-1.99-0.06-3.98-0.02-6.03-0.02c0.33-3.67,1.57-7.03,1.37-10.57c5.67,1.83,11.34,3.67,17.02,5.49
		c2.31,0.74,2.32,0.72,3.91-1.31c0.1-0.13,0.23-0.25,0.33-0.38c2.33-3.15,1.8-3.33,5.83-1.45c3,1.4,2.23,1.5,4.64-0.81
		c0.48-0.46,0.94-0.96,1.38-1.47c0.09-0.11,0.08-0.31,0.18-0.7c-1.27-0.5-2.57-1.02-3.88-1.51c-9.97-3.79-19.95-7.57-29.92-11.37
		c-1.5-0.57-1.56-0.81-0.45-2.32c4.83-6.56,9.67-13.11,14.51-19.67C318.57,245.18,319.15,244.35,319.74,243.54z"/>
	<path class="st503" d="M125.5,235.26c-5.69,3.25-11.39,6.49-17.06,9.79c-1.06,0.62-1.93,0.6-3.06,0.13
		c-10.86-4.49-21.74-8.92-32.62-13.37c0.82-0.66,1.78-0.42,2.67-0.32c4.59,0.53,9.21,0.68,13.82,0.95
		c6.62,0.38,13.23,1.06,19.85,1.34c4.45,0.19,8.88,0.82,13.35,0.69C123.52,234.44,124.69,234.24,125.5,235.26z"/>
	<path class="st504" d="M125.83,200.59c-1.66,4.99-3.3,9.98-4.98,14.95c-0.8,2.36-0.83,2.35-3.16,2c-0.99-0.15-1.98-0.3-2.97-0.45
		c2.47-6.15,5.73-11.8,10.32-16.64C125.3,200.5,125.56,200.55,125.83,200.59z"/>
	<path class="st469" d="M137.52,286.75c-0.26-0.74-0.47-1.48,0.09-2.19C137.58,285.29,137.55,286.02,137.52,286.75z"/>
	<path class="st1" d="M256.08,298.69c-1.56,2-3.44,4.43-5,6.43H202c3.22-4.2,7.22-8.45,10.57-12.53c2.54-0.48,4.99,0.32,7.45,0.66
		c7.39,1.02,14.75,2.26,22.13,3.38C246.79,297.34,251.44,298.01,256.08,298.69z"/>
	<path class="st1" d="M106.11,314.33c-4.93,1.89-9.86,3.78-14.79,5.68c-1.72,0.66-3.45,1.33-5.15,2.03c-0.66,0.27-1.3,0.5-1.87-0.08
		c-3.28-3.35-7.05-6.14-11.15-9.54c2.34-0.15,4.12-0.19,5.91,0.05c0.58,0.08,1.16,0.31,1.73,0.28c5.22-0.25,10.39,0.7,15.59,0.54
		c3.27-0.1,6.45,0.74,9.72,0.53C106.11,313.99,106.11,314.16,106.11,314.33z"/>
	<path class="st9" d="M396.97,304.67c4.37-6.04,9.03-11.86,13.61-17.74c0.1-0.13,0.19-0.27,0.29-0.41c1.32-0.61,2.65-0.98,4.14-0.64
		c0.72,0.16,1.51,0.08,2.27,0.08c11.45,0.02,22.9,0.02,34.35,0.04c3.61,0.01,7.22-0.15,10.8,0.51c-0.52,1.26-1.51,2.19-2.34,3.22
		c-4.07,5.02-8.15,10.02-12.23,15.02c-1.04,0.43-2.15,0.62-3.22,0.37c-2.33-0.56-4.69-0.37-7.03-0.37
		c-12.62-0.02-25.24-0.01-37.86-0.01C398.81,304.74,397.89,304.69,396.97,304.67z"/>
	<path class="st505" d="M419.8,318.62c0,1.35-0.05,2.87,0.02,4.38c0.06,1.43-0.85,1.37-1.82,1.37c-0.97,0-1.84,0.07-1.83-1.36
		c0.04-3.7,0-7.4-0.05-11.1c-0.01-0.9,0.4-1.11,1.22-1.15c2.18-0.11,2.25-0.1,3.09,1.99c0.52,1.29,1.06,2.58,1.85,3.82
		c0-1.38-0.02-2.77,0.01-4.15c0.04-1.63,0.06-1.61,1.72-1.64c1.08-0.02,1.96-0.07,1.9,1.52c-0.12,3.44-0.04,6.89-0.07,10.34
		c-0.01,0.71,0.22,1.7-0.95,1.67c-1.01-0.03-2.28,0.59-2.92-0.76c-0.5-1.06-0.85-2.19-1.33-3.26
		C420.39,319.68,420.46,318.9,419.8,318.62z"/>
	<path class="st506" d="M393.62,317.39c0-1.85,0.01-3.69-0.01-5.54c-0.01-0.72,0.25-1.09,1.01-1.07c1.18,0.03,2.36-0.06,3.52,0.08
		c1.46,0.17,2.7,0.85,3.62,2.04c1.72,2.23,1.91,6.72,0.4,9.09c-0.94,1.48-2.4,2.05-4.01,2.29c-4.29,0.63-4.52,0.42-4.53-3.87
		c0-1.01,0-2.02,0-3.02C393.63,317.39,393.63,317.39,393.62,317.39z"/>
	<path class="st507" d="M404.24,317.65c-0.04-1.55,0.33-3.01,1.02-4.37c0.92-1.78,2.39-2.78,4.46-2.71
		c2.09,0.07,3.43,1.22,4.19,3.09c1.09,2.7,1.03,5.42-0.16,8.07c-0.73,1.64-1.96,2.66-3.87,2.77c-2.08,0.12-3.59-0.75-4.59-2.5
		C404.54,320.67,404.2,319.2,404.24,317.65z"/>
	<path class="st508" d="M431.26,310.77c0.59,0,1.18-0.01,1.77,0c1.67,0.05,1.63,0.06,1.67,1.7c0.02,1.03-0.25,1.62-1.4,1.48
		c-0.33-0.04-0.67,0-1.01,0.02c-0.67,0.03-0.78,0.49-0.81,1.04c-0.03,0.66,0.32,0.89,0.92,0.87c1.03-0.02,2.03-0.15,2,1.46
		c-0.02,1.15-0.25,1.77-1.52,1.66c-0.56-0.05-1.22-0.12-1.37,0.72c-0.24,1.28,0.56,1.33,1.49,1.33c0.55,0,1.29-0.25,1.53,0.49
		c0.27,0.8,0.27,1.68-0.04,2.47c-0.17,0.43-0.71,0.33-1.12,0.37c-5.6,0.47-5.61,0.47-5.67-5.18c-0.02-2.27,0.05-4.55-0.02-6.82
		c-0.04-1.18,0.31-1.74,1.56-1.61c0.67,0.07,1.35,0.01,2.02,0.01C431.26,310.77,431.26,310.77,431.26,310.77z"/>
	<path class="st9" d="M311.11,292.57c0.63-0.73,1.41-0.96,2.39-1.08c3.23-0.37,6.44-0.97,9.67-1.34c1.19-0.14,2.49-0.52,3.61,0.37
		c3.07,0.33,6.15,0.29,9.23,0.28c4.73-0.13,9.45,0.42,14.19,0.26c0.66-0.02,1.34-0.03,1.9,0.42c2.48,0.09,4.96,0.18,8.04,0.29
		c-3.56,4.42-7.41,9.2-10.64,13.22h-49.3C303.58,301.1,307.74,296.46,311.11,292.57z"/>
	<path class="st509" d="M335.67,316.91c0.27-1.73,0.58-3.3,0.75-4.89c0.13-1.18,0.84-1.29,1.76-1.24c0.88,0.05,1.91-0.27,2.1,1.13
		c0.22,1.66,0.53,3.32,0.85,5.34c0.64-1.8,0.81-3.33,1.03-4.85c0.17-1.18,0.62-1.83,1.94-1.63c0.57,0.09,1.16,0.01,1.72,0.01
		c0.4,0.79,0.09,1.42-0.05,2.04c-0.74,3.37-1.58,6.72-2.18,10.11c-0.26,1.47-1.11,1.37-2.16,1.43c-1.24,0.08-1.86-0.33-2-1.63
		c-0.17-1.48-0.52-2.95-1.24-4.46c-0.28,1.63-0.59,3.26-0.81,4.9c-0.13,1.01-0.73,1.25-1.58,1.16c-0.85-0.09-2.01,0.44-2.33-0.88
		c-0.98-4.14-1.9-8.3-2.85-12.47c3.68-0.44,3.65-0.43,4.18,2.83C334.97,314.83,334.63,316.01,335.67,316.91z"/>
	<path class="st510" d="M296.56,324.07c-3.85,1.78-4.17-1.61-5.61-3.57c0,0.64,0.01,1.29,0,1.93c-0.05,1.99-0.06,1.9-1.94,1.97
		c-1.37,0.05-1.71-0.51-1.69-1.77c0.06-3.44,0.08-6.89,0-10.34c-0.03-1.27,0.46-1.61,1.62-1.52c1.09,0.08,2.19-0.03,3.28,0.03
		c1.71,0.09,3.11,0.78,3.82,2.42c0.72,1.67,0.67,3.37-0.68,4.67c-0.85,0.82-0.8,1.44-0.37,2.39
		C295.55,321.56,296.47,322.72,296.56,324.07z"/>
	<path class="st511" d="M310.77,317.71c0.91-1.78,0.89-3.42,1.31-4.95c0.53-1.95,0.47-1.98,2.43-1.97c0.58,0,1.18-0.13,1.82,0.29
		c-0.58,3.09-1.55,6.13-2.49,9.17c-0.22,0.72-0.45,1.44-0.67,2.17c-0.62,2.03-0.62,1.98-2.78,1.96c-0.99-0.01-1.54-0.28-1.77-1.31
		c-0.8-3.61-1.69-7.2-2.52-10.8c-0.09-0.4-0.07-0.82-0.1-1.32c0.37-0.06,0.69-0.17,1.01-0.16c2.55,0.09,2.73-0.72,3.09,2.57
		C310.26,314.7,310.51,316.02,310.77,317.71z"/>
	<path class="st512" d="M298.06,317.33c0-1.68,0.07-3.37-0.02-5.04c-0.07-1.28,0.48-1.6,1.63-1.54c1.43,0.07,2.86,0.06,4.29,0.01
		c1.13-0.05,1.2,0.63,1.14,1.45c-0.05,0.78,0.29,1.82-1.12,1.73c-0.17-0.01-0.34,0.01-0.5,0.01c-0.77,0-1.58-0.08-1.57,1.08
		c0.01,1.12,0.86,0.86,1.46,0.82c1.12-0.07,1.45,0.42,1.49,1.47c0.05,1.14-0.21,1.79-1.51,1.67c-0.39-0.04-0.86-0.12-1.19,0.24
		c-0.31,0.34-0.29,0.76-0.23,1.18c0.1,0.72,0.68,0.59,1.15,0.64c1.9,0.22,2.27,0.7,1.99,2.41c-0.1,0.61-0.37,0.89-0.97,0.89
		c-1.6,0-3.2-0.01-4.8,0.02c-0.85,0.01-1.21-0.39-1.21-1.22c0.01-1.93,0-3.87,0-5.8C298.1,317.33,298.08,317.33,298.06,317.33z"/>
	<path class="st513" d="M323.09,317.51c0-1.85,0.02-3.71-0.01-5.56c-0.02-0.86,0.32-1.2,1.18-1.19c1.52,0.03,3.04,0.05,4.55-0.01
		c1.14-0.04,1.19,0.64,1.15,1.46c-0.04,0.8,0.24,1.8-1.14,1.73c-0.5-0.03-1.02-0.03-1.51,0.07c-0.48,0.1-0.54,0.57-0.55,1
		c-0.01,0.48,0.14,0.82,0.68,0.84c0.25,0.01,0.51,0.05,0.76,0.02c1.32-0.16,1.49,0.6,1.52,1.68c0.03,1.15-0.46,1.48-1.5,1.43
		c-0.54-0.02-1.24-0.19-1.41,0.66c-0.19,0.92,0.08,1.36,1.14,1.42c1.93,0.12,2.3,0.66,2.02,2.38c-0.09,0.58-0.33,0.92-0.94,0.92
		c-0.17,0-0.34,0.02-0.51,0.01c-1.67-0.09-3.73,0.66-4.91-0.3c-1.27-1.03-0.32-3.16-0.48-4.8c-0.06-0.58-0.01-1.18-0.01-1.77
		C323.09,317.51,323.09,317.51,323.09,317.51z"/>
	<path class="st514" d="M321.17,317.54c0,1.85-0.04,3.7,0.01,5.55c0.04,1.48-0.98,1.28-1.89,1.29c-0.93,0-1.92,0.17-1.91-1.28
		c0.01-3.7,0-7.41-0.04-11.11c-0.01-0.83,0.28-1.27,1.16-1.22c0.5,0.03,1.01,0.03,1.52,0c0.89-0.05,1.17,0.38,1.15,1.22
		c-0.03,1.85-0.01,3.7-0.01,5.55C321.16,317.54,321.17,317.54,321.17,317.54z"/>
	<path class="st515" d="M232.73,318.98c0,1.35-0.06,2.69,0.02,4.04c0.07,1.21-0.59,1.43-1.56,1.32c-0.82-0.09-1.99,0.43-2-1.14
		c0-3.79-0.02-7.58-0.04-11.37c0-0.72,0.27-1,1.03-1.06c2.22-0.18,2.47-0.07,3.33,2.06c0.46,1.16,0.9,2.33,1.76,3.5
		c0-1.25-0.02-2.51,0-3.76c0.03-1.78,0.05-1.78,1.83-1.77c1.68,0.01,1.71,0.01,1.72,1.88c0.02,3.28,0.02,6.57-0.03,9.85
		c-0.01,0.65,0.4,1.57-0.75,1.83c-1.54,0.34-2.7-0.02-3.19-1.16c-0.62-1.43-1.16-2.9-1.74-4.35
		C232.98,318.88,232.85,318.93,232.73,318.98z"/>
	<path class="st516" d="M207.85,324.18c-3.54,0.34-3.54,0.34-5.5-3.95c-0.5,1.09-0.26,2.04-0.28,2.92c-0.03,1.27-0.86,1.24-1.73,1.2
		c-0.87-0.04-1.96,0.28-1.96-1.22c0.01-3.78-0.01-7.56-0.03-11.34c0-0.76,0.36-1.03,1.08-1.02c1.26,0.02,2.52-0.02,3.78,0.02
		c1.73,0.05,3.13,0.78,3.86,2.37c0.75,1.62,0.78,3.37-0.51,4.71c-0.9,0.92-0.86,1.63-0.34,2.64
		C206.83,321.67,207.3,322.91,207.85,324.18z"/>
	<path class="st517" d="M196.59,316.24c0,1.51,0.11,3.03-0.02,4.53c-0.21,2.4-1.52,3.54-3.97,3.69c-3,0.19-4.69-0.79-5.11-3.28
		c-0.54-3.16-0.18-6.37-0.2-9.56c0-0.23,0.12-0.61,0.27-0.66c0.98-0.3,2.01-0.34,2.96-0.03c0.67,0.21,0.42,1.01,0.43,1.56
		c0.04,2.02,0.03,4.03,0.04,6.05c0,0.5,0.01,1.01,0.07,1.51c0.06,0.54,0.31,0.95,0.95,0.93c0.64-0.03,0.86-0.46,0.92-0.99
		c0.06-0.58,0.08-1.17,0.08-1.76c0.01-2.02,0.09-4.04-0.02-6.05c-0.09-1.7,1.03-1.35,2-1.41c1.04-0.06,1.81,0.05,1.71,1.43
		c-0.1,1.34-0.02,2.69-0.02,4.03C196.65,316.24,196.62,316.24,196.59,316.24z"/>
	<path class="st518" d="M216.46,316.54c2.81,0.03,2.86,0.08,2.49,2.85c-0.09,0.66-0.24,1.33-0.46,1.96
		c-0.59,1.71-1.66,2.9-3.57,3.11c-1.99,0.22-3.67-0.28-4.86-2c-1.56-2.28-1.61-7.32-0.09-9.68c1.92-2.98,6.36-2.95,8.28,0.04
		c0.47,0.73,0.45,1.24-0.49,1.48c-1.1,0.28-2.24,1.36-3.24-0.3c-0.24-0.41-0.93-0.19-1.29,0.27c-0.79,1-0.89,5.26-0.13,6.38
		c0.23,0.34,0.56,0.66,1.04,0.52c0.41-0.12,0.76-0.36,0.88-0.82c0.1-0.4,0.27-0.84-0.33-1c-1.38-0.38-0.87-1.49-0.73-2.25
		c0.17-0.88,1.1-0.49,1.72-0.57C215.95,316.51,216.2,316.54,216.46,316.54z"/>
	<path class="st519" d="M224.2,310.76c0.59,0,1.18-0.02,1.76,0c1.62,0.06,1.63,0.12,1.63,1.74c0,0.89-0.18,1.48-1.24,1.4
		c-0.42-0.03-0.84-0.01-1.26,0.02c-0.63,0.05-0.8,0.49-0.83,1.04c-0.04,0.68,0.37,0.85,0.93,0.89c0.94,0.05,2.09-0.34,2.03,1.36
		c-0.04,1.15-0.12,1.89-1.59,1.85c-1.13-0.03-1.74,0.82-1.34,1.49c0.37,0.62,1.03,0.51,1.59,0.46c1.36-0.12,1.71,0.5,1.7,1.78
		c-0.01,1.23-0.46,1.65-1.64,1.57c-1.67-0.12-3.73,0.66-4.91-0.29c-1.26-1.02-0.38-3.15-0.45-4.78c-0.1-2.26,0.03-4.54-0.05-6.8
		c-0.04-1.24,0.23-1.92,1.64-1.75C222.85,310.84,223.53,310.77,224.2,310.76C224.2,310.77,224.2,310.77,224.2,310.76z"/>
	<path class="st520" d="M241.99,319.12c0-0.92,0.01-1.84,0-2.77c-0.01-1.05,0.26-2.06-1.45-2.31c-1.33-0.19-0.63-1.67-0.67-2.57
		c-0.04-0.88,0.79-0.67,1.33-0.68c1.68-0.03,3.36-0.03,5.03,0c0.69,0.01,1.7-0.25,1.58,0.97c-0.09,0.86,0.68,2.23-0.97,2.38
		c-1.11,0.1-1.11,0.75-1.11,1.55c0.01,2.26,0.03,4.53,0,6.79c-0.02,1.86-0.07,1.88-1.77,1.9c-1.85,0.02-1.89-0.02-1.95-1.99
		c-0.01-0.17,0-0.34,0-0.5C241.98,320.96,241.98,320.04,241.99,319.12C241.98,319.12,241.98,319.12,241.99,319.12z"/>
	<path class="st262" d="M435.57,278.49c-0.73,0.59-1.6,0.39-2.42,0.4c-5.96,0.02-11.91,0.02-17.87,0.01c-2.29,0-2.72-0.3-2.89-2.45
		c-0.11-1.42-0.33-2.82-0.51-4.22c-0.12-0.91-0.48-2.1,0.98-2.46C420.52,272.44,428.04,275.47,435.57,278.49z"/>
	<path class="st1" d="M366.35,290.59c-19.46-8.77-39.45-16.29-59.14-25.02c1.82-2.79,3.98-5.13,5.95-7.61
		c3.03-3.82,6.15-7.57,9.21-11.37c0.37-0.45,0.63-0.99,0.94-1.49c2.07-1.97,3.59-4.4,5.47-6.53c0.05-0.06,0.08-0.15,0.13-0.22
		c3.1-3.6,2.58-3.38,6.62-1.57c3.68,1.64,7.34,3.32,10.99,5c0.75,0.35,1.6,0.57,2.09,1.33c-1.57,1.54-3.46,2.66-5.2,3.99
		c-0.47,0.36-0.95,0.7-1.39,1.09c-0.77,0.68-1.55,1.4-1.05,2.58c0.38,0.89,1.81,1.39,3.1,1.09c1.41-0.33,2.65-1.05,3.9-1.75
		c0.87-0.48,1.72-0.98,2.87-1.13c-1.71,1.47-3.42,2.94-5.12,4.42c-0.76,0.66-1.59,1.28-2.21,2.06c-1.06,1.31-0.45,2.89,1.2,3.28
		c1.2,0.28,2.37,0.06,3.38-0.63c0.97-0.66,1.88-1.42,2.83-2.12c0.63-0.47,1.28-0.92,2.18-1.05c-0.67,0.7-1.36,1.38-2,2.1
		c-0.55,0.63-1.16,1.26-1.53,1.99c-0.7,1.39-0.02,2.5,1.54,2.69c1.45,0.17,2.63-0.46,3.7-1.33c2.23-1.8,4.42-3.64,6.65-5.44
		c0.63-0.51,1.19-1.17,2.45-1.36c-0.71,1.29-1.67,2.04-2.45,2.92c-1.11,1.26-2.47,2.31-3.32,3.79c-0.78,1.36-0.29,2.28,1.25,2.46
		c1.06,0.13,2.02-0.19,2.86-0.78c1.17-0.82,2.29-1.72,3.42-2.59c1.27-0.98,2.57-1.92,3.78-2.96c2.54-2.19,5.25-2.85,8.36-1.21
		c0.81,0.43,1.73,0.65,2.6,0.96c1.72,1.43,3.93,1.87,5.85,2.89c1.97,1.04,2.03,1.06,0.7,2.93c-4.74,6.62-9.51,13.22-14.29,19.81
		c-0.4,0.55-0.89,1.02-0.78,1.78C370.05,285.93,368.2,288.26,366.35,290.59z"/>
	<path class="st521" d="M352.1,291.49c-5.4,0.3-10.78-0.39-16.17-0.48c-0.21-0.1-0.27-0.19-0.19-0.27c0.07-0.07,0.14-0.11,0.22-0.11
		c7.23-0.02,14.45-0.04,21.68-0.04c0.91,0,1.86-0.13,2.7,0.39c-1.96,0.03-3.92,0.04-5.89,0.08
		C353.66,291.08,352.81,290.89,352.1,291.49z"/>
	<path class="st522" d="M237.07,100.3c1.93,0,3.87,0.05,5.8-0.02c1.23-0.04,1.88,0.23,1.82,1.66c-0.1,2.43-0.07,4.87-0.02,7.31
		c0.02,1.14-0.32,1.69-1.56,1.68c-4.12-0.05-8.24-0.04-12.35-0.03c-1.01,0-1.56-0.3-1.54-1.44c0.05-2.6,0.04-5.21-0.01-7.81
		c-0.03-1.19,0.59-1.39,1.57-1.37C232.86,100.31,234.97,100.29,237.07,100.3C237.07,100.3,237.07,100.3,237.07,100.3z"/>
	<path class="st523" d="M269.69,122.46c-1.93,0-3.86-0.04-5.79,0.01c-1.23,0.03-1.84-0.33-1.78-1.71c0.09-2.43,0.07-4.87,0-7.3
		c-0.04-1.25,0.5-1.59,1.65-1.57c4.11,0.05,8.23,0.05,12.35,0.03c1.03,0,1.53,0.33,1.52,1.44c-0.04,2.52-0.04,5.04,0.04,7.55
		c0.04,1.27-0.56,1.58-1.67,1.56C273.89,122.44,271.79,122.47,269.69,122.46C269.69,122.47,269.69,122.47,269.69,122.46z"/>
	<path class="st523" d="M302.82,100.32c2.11,0,4.22,0.02,6.32-0.01c0.95-0.01,1.37,0.34,1.36,1.33c-0.03,2.61-0.02,5.22,0.02,7.84
		c0.01,0.93-0.31,1.41-1.3,1.41c-4.22-0.01-8.43-0.01-12.65,0.02c-1.05,0.01-1.54-0.38-1.52-1.48c0.05-2.61,0.06-5.22,0.04-7.84
		c-0.01-1.01,0.49-1.31,1.41-1.29c2.11,0.03,4.22,0.01,6.32,0.01C302.82,100.32,302.82,100.32,302.82,100.32z"/>
	<path class="st524" d="M302.82,123.53c2.02,0,4.04,0.03,6.05-0.01c1.12-0.03,1.72,0.27,1.68,1.54c-0.08,2.52-0.06,5.04-0.04,7.56
		c0.01,0.95-0.38,1.37-1.34,1.38c-4.2,0.02-8.41,0.04-12.61,0.09c-1.03,0.01-1.55-0.34-1.53-1.46c0.06-2.52,0.08-5.04,0.04-7.56
		c-0.02-1.26,0.58-1.56,1.7-1.54c2.02,0.05,4.03,0.01,6.05,0.01C302.82,123.54,302.82,123.54,302.82,123.53z"/>
	<path class="st525" d="M253.37,111.93c2.02,0,4.04,0.03,6.06-0.01c1.08-0.02,1.73,0.16,1.68,1.5c-0.1,2.52-0.07,5.05-0.03,7.57
		c0.02,1.07-0.35,1.51-1.44,1.51c-4.12-0.03-8.25-0.03-12.37,0c-1.01,0.01-1.57-0.27-1.55-1.41c0.05-2.61,0.04-5.21,0-7.82
		c-0.01-0.97,0.38-1.34,1.34-1.33C249.16,111.96,251.27,111.93,253.37,111.93C253.37,111.93,253.37,111.93,253.37,111.93z"/>
	<path class="st526" d="M286.45,100.33c2.02,0,4.05,0.03,6.07-0.01c1.02-0.02,1.56,0.24,1.54,1.4c-0.04,2.61-0.01,5.22,0.02,7.84
		c0.01,0.94-0.37,1.38-1.35,1.37c-4.22-0.04-8.43-0.06-12.65-0.07c-0.9,0-1.42-0.26-1.4-1.29c0.03-2.7,0.01-5.39-0.02-8.09
		c-0.01-0.87,0.36-1.19,1.21-1.18c2.19,0.02,4.38,0.01,6.58,0.01C286.45,100.31,286.45,100.32,286.45,100.33z"/>
	<path class="st527" d="M269.88,123.49c2.02,0,4.04,0.03,6.06-0.01c1.11-0.02,1.73,0.25,1.69,1.54c-0.07,2.52-0.05,5.05-0.03,7.58
		c0.01,0.93-0.32,1.41-1.3,1.41c-4.3-0.01-8.59-0.01-12.89,0c-0.99,0-1.32-0.48-1.31-1.41c0.03-2.53,0.05-5.05-0.01-7.58
		c-0.03-1.29,0.62-1.54,1.72-1.52c2.02,0.04,4.04,0.01,6.06,0.01C269.88,123.5,269.88,123.5,269.88,123.49z"/>
	<path class="st525" d="M236.69,134.07c-1.94,0-3.88-0.03-5.81,0.01c-1.09,0.02-1.75-0.21-1.7-1.53c0.09-2.52,0.08-5.05,0.04-7.58
		c-0.02-1.12,0.48-1.46,1.52-1.45c4.13,0.02,8.26,0.03,12.38-0.02c1.22-0.01,1.62,0.47,1.59,1.65c-0.06,2.36-0.06,4.72,0.02,7.07
		c0.05,1.29-0.37,1.84-1.72,1.79c-2.1-0.07-4.21-0.02-6.32-0.02C236.69,134.03,236.69,134.05,236.69,134.07z"/>
	<path class="st523" d="M286.58,123.54c1.93,0,3.86,0.04,5.79-0.01c1.12-0.03,1.71,0.25,1.67,1.53c-0.07,2.43-0.07,4.87,0.03,7.3
		c0.06,1.39-0.56,1.7-1.78,1.68c-4.03-0.05-8.06-0.06-12.09-0.04c-1.01,0-1.55-0.26-1.52-1.41c0.05-2.6,0.04-5.2-0.01-7.8
		c-0.02-1.02,0.46-1.3,1.37-1.29c2.18,0.02,4.37,0.01,6.55,0.01C286.58,123.52,286.58,123.53,286.58,123.54z"/>
	<path class="st528" d="M269.72,110.9c-2.02,0-4.04-0.04-6.05,0.01c-1.21,0.03-1.62-0.47-1.59-1.65c0.07-2.52,0.07-5.04,0.06-7.56
		c-0.01-0.95,0.35-1.37,1.32-1.36c4.29,0.01,8.58,0,12.86-0.02c0.97-0.01,1.34,0.4,1.32,1.36c-0.04,2.6-0.06,5.21-0.03,7.81
		c0.01,0.96-0.39,1.38-1.34,1.37c-2.19-0.01-4.37,0-6.56,0C269.72,110.87,269.72,110.88,269.72,110.9z"/>
	<path class="st529" d="M236.8,99.35c-1.94,0-3.87-0.04-5.81,0.02c-1.22,0.04-1.88-0.25-1.82-1.66c0.09-2.52,0.09-5.05,0.04-7.57
		c-0.02-1.13,0.48-1.44,1.52-1.43c4.12,0.03,8.25,0.04,12.38,0.01c1.02-0.01,1.56,0.26,1.54,1.41c-0.04,2.52-0.03,5.05,0.05,7.57
		c0.04,1.38-0.58,1.72-1.83,1.68C240.85,99.29,238.83,99.35,236.8,99.35z"/>
	<path class="st530" d="M269.86,99.32c-2.01,0-4.03-0.03-6.04,0.01c-1.12,0.03-1.72-0.26-1.69-1.54c0.06-2.52,0.03-5.03-0.02-7.55
		c-0.02-1,0.21-1.58,1.38-1.56c4.28,0.04,8.56,0.04,12.84,0.03c0.99,0,1.3,0.46,1.29,1.39c-0.02,2.6-0.02,5.2,0.04,7.8
		c0.02,1.1-0.44,1.49-1.5,1.47c-2.1-0.04-4.2-0.01-6.3-0.01C269.86,99.34,269.86,99.33,269.86,99.32z"/>
	<path class="st531" d="M236.92,111.92c2.02,0,4.03,0.03,6.05-0.01c1.1-0.03,1.74,0.23,1.71,1.51c-0.06,2.52-0.03,5.04,0.01,7.55
		c0.02,1.04-0.35,1.54-1.45,1.54c-4.2-0.03-8.4-0.03-12.6-0.01c-1.07,0-1.47-0.47-1.45-1.53c0.04-2.52,0.06-5.04-0.01-7.55
		c-0.04-1.3,0.61-1.54,1.7-1.51C232.89,111.95,234.9,111.92,236.92,111.92z"/>
	<path class="st532" d="M302.96,111.92c2.02,0,4.05,0.03,6.07-0.01c1.04-0.02,1.54,0.33,1.52,1.45c-0.05,2.53-0.04,5.06,0,7.58
		c0.02,1.04-0.32,1.57-1.42,1.56c-4.21-0.03-8.43-0.03-12.65-0.03c-0.93,0-1.39-0.36-1.39-1.34c0.01-2.61,0.02-5.22-0.03-7.83
		c-0.02-1.17,0.59-1.41,1.58-1.39c2.11,0.03,4.21,0.01,6.32,0.01C302.96,111.91,302.96,111.91,302.96,111.92z"/>
	<path class="st533" d="M302.79,99.33c-2.1,0-4.21-0.02-6.31,0.01c-0.96,0.01-1.38-0.38-1.37-1.34c0.01-2.69,0-5.38-0.02-8.08
		c-0.01-0.84,0.34-1.23,1.19-1.23c4.38,0.01,8.75,0.01,13.13,0.01c0.89,0,1.14,0.48,1.13,1.28c-0.02,2.69-0.03,5.38-0.01,8.08
		c0.01,1.01-0.51,1.29-1.42,1.28C306.99,99.31,304.89,99.33,302.79,99.33z"/>
	<path class="st534" d="M286.12,99.33c-1.93,0-3.87-0.04-5.8,0.02c-1.12,0.03-1.71-0.26-1.67-1.53c0.08-2.6,0.07-5.21,0.04-7.81
		c-0.01-1,0.41-1.3,1.35-1.29c4.2,0.02,8.4,0,12.6-0.02c0.88-0.01,1.43,0.18,1.42,1.23c-0.05,2.69-0.05,5.37-0.03,8.06
		c0.01,0.96-0.39,1.35-1.35,1.34c-2.18-0.04-4.37-0.01-6.55-0.01C286.12,99.32,286.12,99.33,286.12,99.33z"/>
	<path class="st529" d="M253.52,100.34c2.02,0,4.04,0.03,6.06-0.01c1.04-0.02,1.53,0.29,1.5,1.42c-0.05,2.61-0.02,5.22,0.01,7.83
		c0.01,0.98-0.4,1.34-1.36,1.34c-4.21-0.03-8.42-0.05-12.64-0.04c-0.94,0-1.38-0.34-1.37-1.32c0.03-2.69,0.02-5.39-0.01-8.08
		c-0.01-0.88,0.39-1.18,1.22-1.17c2.19,0.02,4.38,0.01,6.57,0.01C253.52,100.31,253.52,100.33,253.52,100.34z"/>
	<path class="st535" d="M253.18,99.34c-1.93,0-3.86-0.04-5.79,0.02c-1.12,0.03-1.71-0.25-1.68-1.52c0.07-2.6,0.06-5.2,0.04-7.8
		c-0.01-0.97,0.38-1.32,1.33-1.31c4.28,0.02,8.56,0.01,12.84-0.02c0.87-0.01,1.19,0.35,1.18,1.2c-0.04,2.68-0.06,5.37-0.04,8.05
		c0.01,0.96-0.36,1.36-1.33,1.35c-2.18-0.03-4.36-0.01-6.55-0.01C253.18,99.31,253.18,99.33,253.18,99.34z"/>
	<path class="st536" d="M286.5,111.93c2.02,0,4.03,0.03,6.05-0.01c1.04-0.02,1.54,0.29,1.51,1.42c-0.06,2.52-0.07,5.04-0.04,7.56
		c0.01,1.04-0.31,1.54-1.42,1.54c-4.2-0.01-8.4,0.01-12.6,0.04c-0.96,0.01-1.36-0.37-1.34-1.34c0.04-2.6,0.07-5.21,0.02-7.81
		c-0.02-1.15,0.5-1.42,1.52-1.4c2.1,0.04,4.2,0.01,6.3,0.01C286.5,111.94,286.5,111.93,286.5,111.93z"/>
	<path class="st537" d="M253.55,123.52c2.02,0,4.03,0.03,6.05-0.01c1.03-0.02,1.53,0.29,1.51,1.42c-0.06,2.6-0.05,5.2-0.01,7.81
		c0.01,1-0.45,1.33-1.37,1.32c-4.2-0.02-8.4-0.03-12.6-0.01c-1.13,0.01-1.42-0.52-1.4-1.55c0.05-2.52,0.06-5.04,0.01-7.55
		c-0.02-1.13,0.48-1.44,1.51-1.41c2.1,0.04,4.2,0.01,6.3,0.01C253.55,123.54,253.55,123.53,253.55,123.52z"/>
	<path class="st538" d="M335.96,290.62c-0.02,0.13-0.03,0.25-0.03,0.38c-2.72,0.02-5.44,0.04-8.16,0.05c-0.42,0-0.83-0.04-0.98-0.53
		c0.48-0.14,1.03-0.52,1.42-0.39C330.76,290.92,333.39,290.31,335.96,290.62z"/>
	<path class="st476" d="M397.25,317.44c0-0.84,0-1.67,0-2.51c0-0.37,0.14-0.7,0.5-0.75c0.32-0.05,0.63,0.11,0.87,0.39
		c1.11,1.24,1.15,4.67,0.06,5.9c-0.24,0.27-0.52,0.45-0.86,0.42c-0.55-0.06-0.56-0.52-0.57-0.94
		C397.25,319.11,397.26,318.27,397.25,317.44z"/>
	<path class="st476" d="M410.9,317.42c-0.06,1.05,0.02,1.98-0.4,2.85c-0.19,0.4-0.47,0.72-0.92,0.75c-0.45,0.04-0.83-0.21-0.97-0.64
		c-0.66-1.96-0.82-3.94,0.13-5.83c0.44-0.88,1.2-0.79,1.71,0.07C410.99,315.55,410.8,316.57,410.9,317.42z"/>
	<path class="st476" d="M290.87,315.25c0.15-0.56-0.34-1.49,0.75-1.48c0.85,0.01,1.06,0.78,1.07,1.44c0.01,0.77-0.25,1.65-1.17,1.62
		C290.52,316.78,291.03,315.81,290.87,315.25z"/>
	<path class="st476" d="M202.3,313.6c1.3,0.44,1.53,1.04,1.49,1.74c-0.03,0.69-0.29,1.3-1.04,1.5c-0.23,0.06-0.51-0.05-0.57-0.34
		c-0.18-0.82-0.14-1.64,0.05-2.45C202.28,313.86,202.57,313.71,202.3,313.6z"/>
	<path class="st539" d="M269.9,109.01c-1.92,0.01-3.37-1.4-3.4-3.3c-0.02-1.93,1.35-3.39,3.26-3.45c2.01-0.06,3.58,1.46,3.56,3.44
		C273.31,107.54,271.81,108.99,269.9,109.01z"/>
	<path class="st132" d="M236.8,90.49c1.9-0.08,3.56,1.52,3.59,3.45c0.03,1.92-1.3,3.37-3.21,3.5c-1.96,0.13-3.63-1.32-3.76-3.25
		C233.31,92.31,234.9,90.57,236.8,90.49z"/>
	<path class="st383" d="M269.92,97.44c-1.96,0.02-3.36-1.31-3.42-3.26c-0.07-1.99,1.42-3.63,3.35-3.69
		c1.87-0.06,3.65,1.63,3.65,3.47C273.51,95.87,271.9,97.43,269.92,97.44z"/>
	<path class="st540" d="M240.36,117.24c-0.02,1.84-1.53,3.34-3.39,3.36c-1.96,0.02-3.61-1.6-3.56-3.49c0.05-1.81,1.63-3.4,3.41-3.42
		C238.67,113.67,240.38,115.39,240.36,117.24z"/>
	<path class="st541" d="M306.34,117.09c0.06,1.86-1.56,3.52-3.48,3.56c-1.92,0.04-3.38-1.32-3.46-3.21
		c-0.07-1.95,1.39-3.64,3.27-3.76C304.47,113.57,306.28,115.24,306.34,117.09z"/>
	<path class="st381" d="M302.91,90.47c1.86,0.04,3.52,1.73,3.51,3.58c-0.01,1.87-1.63,3.41-3.59,3.4c-2.02-0.01-3.45-1.47-3.42-3.49
		C299.42,92.01,301.01,90.43,302.91,90.47z"/>
	<path class="st539" d="M289.86,93.92c0.05,1.88-1.31,3.37-3.19,3.47c-1.97,0.11-3.65-1.39-3.67-3.28c-0.02-1.92,1.56-3.5,3.5-3.5
		C288.38,90.62,289.81,92.02,289.86,93.92z"/>
	<path class="st542" d="M256.86,105.7c-0.08,1.86-1.82,3.39-3.74,3.29c-1.89-0.1-3.3-1.63-3.21-3.48c0.09-1.9,1.82-3.47,3.7-3.34
		C255.39,102.29,256.94,103.97,256.86,105.7z"/>
	<path class="st543" d="M256.9,94c0.02,1.92-1.57,3.47-3.54,3.45c-1.9-0.02-3.37-1.42-3.44-3.27c-0.07-1.94,1.47-3.59,3.39-3.64
		C255.19,90.49,256.88,92.12,256.9,94z"/>
	<path class="st544" d="M286.48,120.63c-1.87,0.04-3.44-1.35-3.55-3.15c-0.11-1.88,1.44-3.66,3.27-3.77
		c1.82-0.11,3.58,1.51,3.66,3.36C289.95,119.02,288.45,120.59,286.48,120.63z"/>
	<path class="st545" d="M253.22,132.28c-1.86-0.07-3.33-1.6-3.31-3.44c0.02-1.9,1.7-3.46,3.65-3.39c1.82,0.07,3.36,1.66,3.33,3.46
		C256.86,130.79,255.16,132.35,253.22,132.28z"/>
</g>
</svg>
